<?xml version="1.0" encoding="UTF-8"?>
<!DOCTYPE svg PUBLIC "-//W3C//DTD SVG 1.1//EN" "http://www.w3.org/Graphics/SVG/1.1/DTD/svg11.dtd">
<!-- Creator: CorelDRAW X7 -->
<svg xmlns="http://www.w3.org/2000/svg" xml:space="preserve" width="47.6672mm" height="47.6672mm" version="1.1" style="shape-rendering:geometricPrecision; text-rendering:geometricPrecision; image-rendering:optimizeQuality; fill-rule:evenodd; clip-rule:evenodd"
viewBox="0 0 5249 5249"
 xmlns:xlink="http://www.w3.org/1999/xlink">
 <defs>
  <style type="text/css">
   <![CDATA[
    .fil0 {fill:white}
   ]]>
  </style>
 </defs>
 <g id="Layer_x0020_1">
  <metadata id="CorelCorpID_0Corel-Layer"/>
  <g id="_2472628106960">
   <g>
    <path class="fil0" d="M2624 0c-1447,0 -2624,1177 -2624,2624 0,1448 1177,2625 2624,2625 1448,0 2625,-1177 2625,-2625 0,-1447 -1177,-2624 -2625,-2624zm653 2717l-427 0 0 1522 -633 0c0,0 0,-832 0,-1522l-300 0 0 -538 300 0 0 -348c0,-249 119,-638 639,-638l469 1 0 522c0,0 -285,0 -340,0 -56,0 -135,28 -135,147l0 316 482 0 -55 538z"/>
   </g>
  </g>
 </g>
</svg>
