<?xml version="1.0" encoding="UTF-8"?>
<!DOCTYPE svg PUBLIC "-//W3C//DTD SVG 1.1//EN" "http://www.w3.org/Graphics/SVG/1.1/DTD/svg11.dtd">
<!-- Creator: CorelDRAW X7 -->
<svg xmlns="http://www.w3.org/2000/svg" xml:space="preserve" width="47.6672mm" height="47.6672mm" version="1.1" style="shape-rendering:geometricPrecision; text-rendering:geometricPrecision; image-rendering:optimizeQuality; fill-rule:evenodd; clip-rule:evenodd"
viewBox="0 0 3945 3945"
 xmlns:xlink="http://www.w3.org/1999/xlink">
 <defs>
  <style type="text/css">
   <![CDATA[
    .fil0 {fill:white}
   ]]>
  </style>
 </defs>
 <g id="Layer_x0020_1">
  <metadata id="CorelCorpID_0Corel-Layer"/>
  <path class="fil0" d="M1973 0c1089,0 1972,883 1972,1973 0,1089 -883,1972 -1972,1972 -1090,0 -1973,-883 -1973,-1972 0,-1090 883,-1973 1973,-1973zm0 733c-337,0 -380,2 -512,8 -132,6 -222,27 -301,58 -82,31 -151,74 -220,143 -69,69 -111,138 -143,220 -31,79 -52,169 -58,301 -6,132 -7,174 -7,511 0,337 1,380 7,512 6,132 27,222 58,301 32,82 74,151 143,220 69,69 138,112 220,143 79,31 169,52 301,58 132,6 175,7 512,7 337,0 379,-1 511,-7 132,-6 223,-27 302,-58 81,-31 150,-74 219,-143 69,-69 112,-138 144,-220 30,-79 51,-169 57,-301 6,-132 8,-175 8,-512 0,-337 -2,-379 -8,-511 -6,-132 -27,-222 -57,-301 -32,-82 -75,-151 -144,-220 -69,-69 -138,-112 -219,-143 -79,-31 -170,-52 -302,-58 -132,-6 -174,-8 -511,-8l0 0zm0 224c331,0 370,1 501,7 121,6 187,26 231,43 58,23 99,49 142,93 44,43 71,85 93,143 17,43 37,109 43,230 6,131 7,170 7,501 0,332 -1,371 -7,502 -6,121 -26,187 -43,230 -22,58 -49,100 -93,143 -43,43 -84,70 -142,93 -44,17 -110,37 -231,43 -131,6 -170,7 -501,7 -332,0 -371,-1 -502,-7 -121,-6 -186,-26 -230,-43 -58,-23 -99,-50 -143,-93 -43,-43 -70,-85 -93,-143 -17,-43 -37,-109 -42,-230 -6,-131 -8,-170 -8,-502 0,-331 2,-370 8,-501 5,-121 25,-187 42,-230 23,-58 50,-100 93,-143 44,-44 85,-70 143,-93 44,-17 109,-37 230,-43 131,-6 170,-7 502,-7zm0 1431c-229,0 -414,-185 -414,-414 0,-228 185,-413 414,-413 228,0 413,185 413,413 0,229 -185,414 -413,414zm0 -1051c-352,0 -638,286 -638,637 0,352 286,638 638,638 352,0 637,-286 637,-638 0,-351 -285,-637 -637,-637zm662 -179c85,0 155,69 155,154 0,85 -70,154 -155,154 -85,0 -154,-69 -154,-154 0,-85 69,-154 154,-154z"/>
 </g>
</svg>
