<?xml version="1.0" encoding="UTF-8"?>
<!DOCTYPE svg PUBLIC "-//W3C//DTD SVG 1.1//EN" "http://www.w3.org/Graphics/SVG/1.1/DTD/svg11.dtd">
<!-- Creator: CorelDRAW X7 -->
<svg xmlns="http://www.w3.org/2000/svg" xml:space="preserve" width="47.6672mm" height="47.6672mm" version="1.1" style="shape-rendering:geometricPrecision; text-rendering:geometricPrecision; image-rendering:optimizeQuality; fill-rule:evenodd; clip-rule:evenodd"
viewBox="0 0 1457 1457"
 xmlns:xlink="http://www.w3.org/1999/xlink">
 <defs>
  <style type="text/css">
   <![CDATA[
    .fil0 {fill:white}
   ]]>
  </style>
 </defs>
 <g id="Layer_x0020_1">
  <metadata id="CorelCorpID_0Corel-Layer"/>
  <path class="fil0" d="M729 0c402,0 728,326 728,729 0,402 -326,728 -728,728 -403,0 -729,-326 -729,-728 0,-403 326,-729 729,-729zm-198 393c0,53 -43,96 -96,96 -52,0 -96,-43 -96,-95 0,-53 43,-97 96,-97 53,0 96,43 96,96zm251 242c11,-13 20,-25 32,-36 35,-33 76,-50 125,-49 26,0 52,2 78,9 59,17 93,57 109,115 12,43 15,87 15,131 0,94 0,187 0,281 0,8 -3,11 -11,11 -48,-1 -97,-1 -145,0 -8,0 -10,-3 -10,-11 0,-89 0,-178 0,-267 0,-22 -1,-44 -8,-66 -11,-40 -40,-60 -82,-58 -57,3 -86,31 -94,89 -1,14 -2,28 -2,42 0,87 0,173 0,260 0,8 -2,11 -11,11 -48,-1 -97,-1 -145,0 -8,0 -10,-2 -10,-10 0,-172 0,-343 0,-514 0,-8 2,-10 10,-10 46,0 92,0 139,0 8,0 10,2 10,10 0,21 0,41 0,62zm-264 195c0,85 0,170 0,255 0,9 -2,12 -12,12 -48,-1 -96,-1 -144,0 -8,0 -10,-2 -10,-10 0,-172 0,-343 0,-515 0,-7 2,-9 9,-9 49,0 98,0 147,0 9,0 10,3 10,11 0,86 0,171 0,256z"/>
 </g>
</svg>
