<?xml version="1.0" encoding="UTF-8"?>
<!DOCTYPE svg PUBLIC "-//W3C//DTD SVG 1.1//EN" "http://www.w3.org/Graphics/SVG/1.1/DTD/svg11.dtd">
<!-- Creator: CorelDRAW X7 -->
<svg xmlns="http://www.w3.org/2000/svg" xml:space="preserve" width="125.086mm" height="58.0372mm" version="1.1" style="shape-rendering:geometricPrecision; text-rendering:geometricPrecision; image-rendering:optimizeQuality; fill-rule:evenodd; clip-rule:evenodd"
viewBox="0 0 18072 8385"
 xmlns:xlink="http://www.w3.org/1999/xlink">
 <defs>
  <style type="text/css">
   <![CDATA[
    .fil0 {fill:white}
    .fil1 {fill:black;fill-rule:nonzero}
    .fil2 {fill:white;fill-rule:nonzero}
   ]]>
  </style>
 </defs>
 <g id="Layer_x0020_1">
  <metadata id="CorelCorpID_0Corel-Layer"/>
  <path class="fil0" d="M4192 0c2316,0 4193,1877 4193,4192 0,2316 -1877,4193 -4193,4193 -2315,0 -4192,-1877 -4192,-4193 0,-2315 1877,-4192 4192,-4192zm-1345 1879c-360,0 -652,292 -652,652 0,361 292,653 652,653 361,0 653,-292 653,-653 0,-360 -292,-652 -653,-652zm1754 3875c0,226 -183,409 -409,409 -225,0 -409,-183 -409,-409l0 -731c0,-184 -75,-351 -197,-473 -121,-121 -289,-197 -472,-197 -184,0 -352,76 -473,197 -122,122 -197,289 -197,473l0 1397c0,226 -183,409 -409,409 -226,0 -409,-183 -409,-409l0 -1397c0,-410 167,-782 436,-1051 270,-270 642,-437 1052,-437 303,0 585,92 821,249 73,-148 170,-283 285,-398 270,-270 642,-437 1051,-437 410,0 782,167 1051,437 270,269 437,641 437,1051l0 1397c0,226 -183,409 -409,409 -226,0 -409,-183 -409,-409l0 -1397c0,-184 -75,-351 -197,-473 -122,-121 -289,-197 -473,-197 -184,0 -351,76 -473,197 -121,122 -197,289 -197,473l0 538c0,6 0,11 0,17 0,10 0,20 0,31l0 731zm937 -4462c360,0 652,293 652,653 0,361 -292,653 -652,653 -361,0 -653,-292 -653,-653 0,-360 292,-653 653,-653z"/>
  <g id="_2526319015968">
   <path class="fil1" d="M10187 1802l401 1249 400 -1249 570 0 0 1796 -434 0 0 -419 41 -859 -434 1278 -286 0 -435 -1279 42 860 0 419 -433 0 0 -1796 568 0zm2866 1139c0,207 -47,373 -140,497 -93,123 -220,185 -378,185 -123,0 -223,-44 -302,-134l0 622 -416 0 0 -1847 388 0 13 123c80,-99 185,-148 314,-148 165,0 293,60 384,182 91,121 137,288 137,500l0 20zm-416 -26c0,-237 -69,-355 -207,-355 -99,0 -164,35 -197,106l0 525c36,74 103,111 199,111 133,0 201,-114 205,-343l0 -44zm1351 683c-15,-27 -28,-67 -39,-119 -77,96 -184,144 -321,144 -126,0 -233,-38 -321,-114 -88,-76 -132,-172 -132,-287 0,-145 54,-255 161,-329 107,-74 262,-111 466,-111l128 0 0 -71c0,-123 -53,-184 -159,-184 -99,0 -148,49 -148,146l-416 0c0,-129 55,-233 165,-314 110,-80 249,-120 420,-120 170,0 304,42 403,124 99,83 149,198 152,342l0 591c2,122 21,216 57,281l0 21 -416 0zm-260 -270c51,0 94,-11 129,-34 34,-22 58,-47 73,-75l0 -215 -121 0c-145,0 -217,66 -217,196 0,38 13,69 38,92 26,24 58,36 98,36zm1333 -1395l0 331 219 0 0 288 -219 0 0 611c0,50 9,85 27,105 18,20 54,29 107,29 42,0 76,-2 104,-7l0 297c-75,24 -153,36 -234,36 -143,0 -249,-33 -317,-101 -68,-68 -103,-170 -103,-307l0 -663 -170 0 0 -288 170 0 0 -331 416 0zm789 473c89,-111 203,-167 341,-167 147,0 258,43 333,130 75,88 113,216 115,386l0 843 -417 0 0 -832c0,-71 -15,-123 -43,-156 -29,-33 -78,-50 -147,-50 -86,0 -146,27 -182,81l0 957 -415 0 0 -1895 415 0 0 703zm1554 610l222 -752 446 0 -544 1557 -24 56c-77,173 -214,259 -410,259 -54,0 -111,-8 -171,-24l0 -297 54 0c59,0 103,-8 134,-25 31,-17 54,-47 69,-91l33 -88 -464 -1347 444 0 211 752z"/>
   <path class="fil2" d="M10750 5429l-698 0 0 714 -433 0 0 -1796 1201 0 0 334 -768 0 0 414 698 0 0 334zm941 714c-15,-26 -28,-66 -39,-118 -77,96 -184,144 -321,144 -126,0 -233,-38 -321,-114 -88,-77 -132,-173 -132,-288 0,-145 54,-254 161,-328 107,-74 262,-112 466,-112l128 0 0 -70c0,-123 -53,-185 -159,-185 -98,0 -148,49 -148,146l-416 0c0,-128 55,-233 165,-313 110,-81 250,-121 420,-121 170,0 305,42 404,125 98,83 149,197 151,341l0 591c2,123 21,217 57,281l0 21 -416 0zm-260 -270c52,0 94,-11 129,-33 34,-22 59,-48 73,-76l0 -214 -121 0c-144,0 -217,65 -217,196 0,37 13,68 38,92 26,23 59,35 98,35zm1242 -1063l13 156c95,-121 222,-182 381,-182 169,0 283,67 342,201 91,-134 221,-201 393,-201 270,0 409,164 417,491l0 868 -417 0 0 -842c0,-68 -12,-118 -35,-149 -23,-31 -65,-47 -126,-47 -82,0 -143,37 -184,110l2 17 0 911 -417 0 0 -839c0,-70 -12,-121 -34,-152 -22,-31 -64,-47 -127,-47 -79,0 -140,37 -182,110l0 928 -416 0 0 -1333 390 0zm2222 1333l-417 0 0 -1333 417 0 0 1333zm-442 -1678c0,-60 22,-108 64,-147 43,-38 99,-57 167,-57 68,0 124,19 167,57 42,39 64,87 64,147 0,59 -22,108 -64,146 -43,38 -99,57 -167,57 -68,0 -124,-19 -167,-57 -42,-38 -64,-87 -64,-146zm1136 1678l-417 0 0 -1894 417 0 0 1894zm790 -582l221 -751 446 0 -544 1556 -24 57c-77,172 -214,259 -409,259 -54,0 -112,-8 -172,-25l0 -296 55 0c58,0 103,-9 133,-26 31,-16 54,-47 69,-90l33 -89 -464 -1346 445 0 211 751z"/>
  </g>
 </g>
</svg>
