<?xml version="1.0" encoding="UTF-8"?>
<!DOCTYPE svg PUBLIC "-//W3C//DTD SVG 1.1//EN" "http://www.w3.org/Graphics/SVG/1.1/DTD/svg11.dtd">
<!-- Creator: CorelDRAW X7 -->
<svg xmlns="http://www.w3.org/2000/svg" xml:space="preserve" width="137.351mm" height="72.4735mm" version="1.1" style="shape-rendering:geometricPrecision; text-rendering:geometricPrecision; image-rendering:optimizeQuality; fill-rule:evenodd; clip-rule:evenodd"
viewBox="0 0 25385 13395"
 xmlns:xlink="http://www.w3.org/1999/xlink">
 <defs>
  <style type="text/css">
   <![CDATA[
    .fil0 {fill:black;fill-rule:nonzero}
   ]]>
  </style>
 </defs>
 <g id="Layer_x0020_1">
  <metadata id="CorelCorpID_0Corel-Layer"/>
  <g id="_2526315224336">
   <path class="fil0" d="M1205 209l849 2646 846 -2646 1208 0 0 3803 -920 0 0 -888 89 -1818 -920 2706 -606 0 -922 -2708 89 1820 0 888 -917 0 0 -3803 1204 0zm6069 2411c0,440 -99,790 -297,1052 -197,263 -465,394 -801,394 -259,0 -473,-95 -639,-285l0 1317 -881 0 0 -3910 823 0 26 260c169,-210 391,-314 666,-314 348,0 619,128 813,385 192,257 290,610 290,1060l0 41zm-881 -54c0,-502 -147,-753 -439,-753 -209,0 -348,75 -417,225l0 1113c76,157 217,235 422,235 281,0 426,-242 434,-726l0 -94zm2861 1446c-32,-57 -60,-141 -84,-251 -162,203 -389,305 -679,305 -267,0 -493,-81 -680,-242 -186,-161 -279,-365 -279,-609 0,-307 113,-538 340,-695 226,-157 555,-236 987,-236l272 0 0 -150c0,-260 -113,-390 -337,-390 -209,0 -314,103 -314,309l-880 0c0,-272 116,-494 348,-664 233,-170 529,-255 890,-255 361,0 645,88 854,264 209,176 316,417 321,723l0 1251c4,259 44,458 121,596l0 44 -880 0zm-552 -572c110,0 201,-23 274,-71 72,-47 124,-100 155,-160l0 -454 -256 0c-307,0 -460,138 -460,415 0,80 27,145 81,195 53,50 123,75 206,75zm2824 -2953l0 701 464 0 0 609 -464 0 0 1294c0,106 19,180 57,222 38,42 114,63 227,63 87,0 160,-6 219,-17l0 631c-158,51 -323,76 -495,76 -304,0 -527,-72 -672,-214 -144,-144 -216,-361 -216,-651l0 -1404 -362 0 0 -609 362 0 0 -701 880 0zm1671 1002c188,-236 428,-355 721,-355 312,0 547,92 705,276 159,185 240,458 243,818l0 1784 -882 0 0 -1763c0,-149 -32,-259 -92,-329 -61,-71 -164,-107 -311,-107 -181,0 -309,58 -384,173l0 2026 -880 0 0 -4012 880 0 0 1489zm3290 1290l470 -1591 943 0 -1152 3296 -49 119c-164,366 -453,549 -868,549 -114,0 -235,-17 -363,-52l0 -628 115 0c124,0 219,-18 284,-53 65,-36 113,-100 145,-192l70 -188 -982 -2851 941 0 446 1591z"/>
   <path class="fil0" d="M2360 7061l-1442 0 0 909 1703 0 0 707 -2620 0 0 -3804 2626 0 0 706 -1709 0 0 803 1442 0 0 679zm1425 -1209l28 331c201,-256 469,-384 807,-384 358,0 598,141 724,425 192,-284 468,-425 831,-425 573,0 867,346 883,1039l0 1839 -883 0 0 -1784c0,-144 -25,-250 -74,-316 -48,-66 -137,-99 -266,-99 -174,0 -304,78 -389,233l2 36 0 1930 -882 0 0 -1778c0,-148 -24,-256 -71,-322 -47,-66 -137,-99 -269,-99 -168,0 -298,78 -387,233l0 1966 -880 0 0 -2825 826 0zm3665 1386c0,-282 55,-534 165,-754 110,-220 268,-389 473,-508 206,-119 446,-177 724,-177 422,0 756,131 1000,393 243,262 365,619 365,1070l0 31c0,440 -122,791 -367,1049 -244,259 -576,388 -993,388 -403,0 -726,-120 -969,-362 -245,-241 -376,-568 -395,-981l-3 -149zm881 55c0,261 41,453 122,575 82,122 203,183 364,183 313,0 473,-242 480,-724l0 -89c0,-507 -162,-760 -485,-760 -295,0 -454,218 -478,655l-3 160zm3259 -2142l0 701 464 0 0 610 -464 0 0 1294c0,106 19,180 57,222 38,42 114,62 227,62 88,0 161,-5 219,-16l0 630c-157,51 -323,76 -495,76 -303,0 -527,-71 -672,-214 -144,-143 -216,-360 -216,-651l0 -1403 -361 0 0 -610 361 0 0 -701 880 0zm1741 3526l-883 0 0 -2825 883 0 0 2825zm-935 -3555c0,-126 45,-229 135,-310 91,-81 209,-121 353,-121 145,0 262,40 353,121 90,81 136,184 136,310 0,126 -46,229 -136,310 -91,80 -208,121 -353,121 -144,0 -262,-41 -353,-121 -90,-81 -135,-184 -135,-310zm1365 2116c0,-282 55,-534 165,-754 109,-220 267,-389 472,-508 206,-119 447,-177 724,-177 423,0 756,131 1001,393 243,262 365,619 365,1070l0 31c0,440 -122,791 -367,1049 -244,259 -576,388 -993,388 -403,0 -726,-120 -970,-362 -244,-241 -375,-568 -395,-981l-2 -149zm881 55c0,261 41,453 122,575 82,122 203,183 364,183 313,0 473,-242 480,-724l0 -89c0,-507 -162,-760 -486,-760 -294,0 -454,218 -478,655l-2 160zm3043 -1441l28 332c195,-257 464,-385 807,-385 294,0 514,88 660,263 145,176 221,441 225,794l0 1821 -882 0 0 -1784c0,-142 -29,-247 -87,-314 -57,-67 -161,-101 -313,-101 -172,0 -300,68 -384,203l0 1996 -880 0 0 -2825 826 0zm3800 2825c-32,-57 -59,-141 -83,-252 -163,203 -389,305 -680,305 -266,0 -493,-80 -679,-242 -186,-161 -279,-364 -279,-608 0,-307 113,-539 339,-696 227,-157 556,-235 987,-235l272 0 0 -150c0,-260 -112,-391 -337,-391 -208,0 -313,104 -313,310l-880 0c0,-273 115,-494 348,-664 233,-171 529,-255 890,-255 360,0 645,88 854,263 209,176 316,418 321,724l0 1250c4,260 44,459 120,596l0 45 -880 0zm-551 -573c109,0 200,-23 273,-70 73,-47 124,-101 155,-161l0 -454 -255 0c-307,0 -461,139 -461,415 0,80 27,145 82,195 53,50 123,75 206,75zm2727 573l-883 0 0 -4013 883 0 0 4013zm-22248 3321l-496 0 0 1343 -917 0 0 -3803 1497 0c451,0 803,99 1058,300 254,201 381,483 381,849 0,265 -54,484 -160,659 -107,174 -275,314 -503,422l794 1534 0 39 -982 0 -672 -1343zm-496 -706l580 0c174,0 305,-45 393,-137 88,-92 132,-220 132,-384 0,-164 -44,-294 -134,-387 -88,-94 -219,-140 -391,-140l-580 0 0 1048zm3901 2103c-434,0 -784,-130 -1053,-388 -268,-259 -402,-596 -402,-1010l0 -74c0,-288 54,-543 161,-765 107,-222 263,-393 469,-513 205,-121 449,-182 731,-182 396,0 710,123 940,370 230,247 345,590 345,1032l0 342 -1750 0c31,158 100,283 206,373 106,90 243,135 413,135 278,0 496,-97 653,-291l403 475c-110,151 -266,272 -467,361 -201,90 -418,135 -649,135zm-100 -2253c-257,0 -411,172 -459,514l888 0 0 -68c4,-142 -32,-251 -107,-329 -75,-77 -183,-117 -322,-117zm2739 1152l447 -1777 927 0 -922 2824 -898 0 -922 -2824 930 0 438 1777zm1486 -391c0,-283 55,-534 165,-754 109,-221 267,-390 472,-509 206,-118 447,-177 724,-177 423,0 756,131 1000,393 244,262 366,619 366,1070l0 31c0,441 -122,791 -367,1050 -245,258 -576,388 -994,388 -403,0 -725,-121 -969,-362 -244,-241 -375,-568 -395,-981l-2 -149zm880 54c0,262 41,453 123,575 82,123 203,183 363,183 313,0 474,-241 481,-724l0 -88c0,-507 -162,-761 -486,-761 -294,0 -454,219 -478,656l-3 159zm3163 1384l-883 0 0 -4012 883 0 0 4012zm2225 -304c-186,238 -437,358 -754,358 -310,0 -545,-90 -704,-271 -160,-180 -239,-439 -239,-777l0 -1830 880 0 0 1835c0,242 117,363 353,363 201,0 345,-72 430,-216l0 -1982 886 0 0 2824 -826 0 -26 -304zm2359 -3221l0 701 464 0 0 609 -464 0 0 1294c0,106 19,180 57,222 38,42 114,63 227,63 87,0 160,-6 219,-17l0 631c-157,51 -323,76 -495,76 -304,0 -527,-72 -672,-214 -144,-144 -216,-361 -216,-651l0 -1404 -362 0 0 -609 362 0 0 -701 880 0zm1741 3525l-883 0 0 -2824 883 0 0 2824zm-935 -3555c0,-125 45,-229 135,-310 91,-80 209,-120 353,-120 145,0 262,40 352,120 91,81 137,185 137,310 0,126 -46,229 -137,311 -90,80 -207,120 -352,120 -144,0 -262,-40 -353,-120 -90,-82 -135,-185 -135,-311zm1365 2117c0,-283 55,-534 165,-754 109,-221 267,-390 472,-509 206,-118 447,-177 724,-177 423,0 756,131 1000,393 244,262 366,619 366,1070l0 31c0,441 -122,791 -367,1050 -245,258 -576,388 -994,388 -403,0 -725,-121 -969,-362 -244,-241 -375,-568 -395,-981l-2 -149zm880 54c0,262 42,453 123,575 82,123 203,183 363,183 313,0 474,-241 481,-724l0 -88c0,-507 -162,-761 -486,-761 -294,0 -454,219 -478,656l-3 159zm3043 -1440l29 331c195,-257 464,-385 807,-385 294,0 514,88 660,264 145,176 221,440 225,793l0 1821 -882 0 0 -1783c0,-143 -29,-248 -87,-315 -57,-67 -161,-101 -313,-101 -172,0 -300,68 -384,204l0 1995 -880 0 0 -2824 825 0z"/>
  </g>
 </g>
</svg>
