
<svg xmlns="http://www.w3.org/2000/svg" xml:space="preserve" width="125.086mm" height="58.0372mm" version="1.1" style="shape-rendering:geometricPrecision; text-rendering:geometricPrecision; image-rendering:optimizeQuality; fill-rule:evenodd; clip-rule:evenodd"
viewBox="0 0 7907 3669"
 xmlns:xlink="http://www.w3.org/1999/xlink">
 <defs>
  <style type="text/css">
   <![CDATA[
    .fil0 {fill:white}
    .fil1 {fill:black;fill-rule:nonzero}
    .fil2 {fill:white;fill-rule:nonzero}
   ]]>
  </style>
 </defs>
 <g id="Layer_x0020_1">
  <metadata id="CorelCorpID_0Corel-Layer"/>
  <path class="fil0" d="M1834 0c1013,0 1835,821 1835,1834 0,1013 -822,1835 -1835,1835 -1013,0 -1834,-822 -1834,-1835 0,-1013 821,-1834 1834,-1834zm-588 822c-158,0 -286,128 -286,285 0,158 128,286 286,286 157,0 285,-128 285,-286 0,-157 -128,-285 -285,-285zm767 1696c0,99 -80,179 -179,179 -98,0 -179,-80 -179,-179l0 -320c0,-81 -33,-154 -86,-207 -53,-53 -126,-86 -207,-86 -80,0 -153,33 -207,86 -53,53 -86,126 -86,207l0 611c0,99 -80,179 -179,179 -99,0 -179,-80 -179,-179l0 -611c0,-179 74,-342 191,-460 118,-118 281,-191 460,-191 133,0 257,40 360,109 32,-65 74,-124 124,-175 118,-117 281,-191 460,-191 180,0 342,74 460,191 118,118 191,281 191,460l0 612c0,99 -80,179 -179,179 -98,0 -179,-80 -179,-179l0 -612c0,-80 -33,-153 -86,-207 -53,-53 -126,-86 -207,-86 -80,0 -153,33 -206,86 -54,54 -87,127 -87,207l0 236c0,2 0,5 0,7 0,5 0,9 0,14l0 320zm410 -1952c158,0 285,127 285,285 0,158 -127,286 -285,286 -158,0 -286,-128 -286,-286 0,-158 128,-285 286,-285z"/>
  <g id="_2526361187168">
   <path class="fil1" d="M4457 788l176 547 175 -547 249 0 0 786 -190 0 0 -183 18 -376 -190 559 -125 0 -190 -559 18 376 0 183 -189 0 0 -786 248 0zm1254 499c0,91 -20,163 -61,217 -41,54 -96,81 -166,81 -53,0 -97,-19 -132,-58l0 272 -182 0 0 -808 170 0 6 53c35,-43 81,-64 137,-64 72,0 128,26 168,79 40,53 60,126 60,219l0 9zm-182 -12c0,-103 -30,-155 -90,-155 -43,0 -72,15 -87,46l0 230c16,33 45,49 88,49 58,0 88,-50 89,-150l0 -20zm591 299c-6,-12 -12,-29 -17,-52 -33,42 -80,63 -140,63 -55,0 -102,-16 -141,-50 -38,-33 -57,-75 -57,-125 0,-64 23,-112 70,-144 47,-33 115,-49 204,-49l56 0 0 -31c0,-54 -23,-80 -70,-80 -43,0 -64,21 -64,64l-182 0c0,-57 24,-103 72,-138 48,-35 109,-52 184,-52 74,0 133,18 176,54 43,36 65,86 66,150l0 258c1,54 9,95 25,123l0 9 -182 0zm-114 -118c23,0 42,-5 57,-15 15,-9 26,-20 32,-33l0 -93 -53 0c-63,0 -95,28 -95,85 0,17 6,30 17,41 11,10 25,15 42,15zm584 -610l0 145 96 0 0 126 -96 0 0 267c0,22 4,37 12,46 8,8 23,13 47,13 18,0 33,-1 45,-4l0 131c-33,10 -67,15 -102,15 -63,0 -109,-14 -139,-44 -30,-30 -45,-74 -45,-134l0 -290 -75 0 0 -126 75 0 0 -145 182 0zm345 207c39,-49 89,-73 149,-73 65,0 113,19 146,57 33,38 49,94 50,169l0 368 -182 0 0 -364c0,-31 -7,-54 -19,-68 -13,-15 -34,-22 -64,-22 -38,0 -64,12 -80,36l0 418 -182 0 0 -829 182 0 0 308zm680 266l97 -328 195 0 -238 681 -10 24c-34,76 -94,114 -180,114 -23,0 -48,-4 -74,-11l0 -130 23 0c26,0 45,-3 59,-11 13,-7 23,-20 30,-39l14 -39 -203 -589 195 0 92 328z"/>
   <path class="fil2" d="M4496 2243l145 -341 204 0 -253 504 0 282 -192 0 0 -282 -252 -504 203 0 145 341zm340 148c0,-59 12,-110 34,-156 23,-45 56,-80 98,-105 42,-24 92,-37 150,-37 87,0 156,27 206,82 51,54 76,127 76,221l0 6c0,91 -25,164 -76,217 -51,53 -119,80 -205,80 -84,0 -150,-25 -201,-75 -50,-49 -77,-117 -81,-202l-1 -31zm182 11c0,54 9,94 25,119 17,25 42,38 76,38 64,0 97,-50 99,-150l0 -18c0,-105 -34,-157 -100,-157 -61,0 -94,45 -99,135l-1 33zm810 223c-39,49 -91,74 -156,74 -64,0 -113,-19 -146,-56 -33,-37 -49,-91 -49,-160l0 -379 182 0 0 380c0,50 24,75 73,75 41,0 71,-15 89,-45l0 -410 183 0 0 584 -171 0 -5 -63zm487 -665l0 144 96 0 0 126 -96 0 0 268c0,22 4,37 12,46 8,8 23,12 47,12 18,0 33,-1 45,-3l0 130c-33,11 -67,16 -102,16 -63,0 -109,-15 -139,-44 -30,-30 -45,-75 -45,-135l0 -290 -74 0 0 -126 74 0 0 -144 182 0zm345 207c39,-49 89,-74 149,-74 65,0 113,19 146,57 33,39 50,95 50,169l0 369 -182 0 0 -364c0,-31 -7,-54 -19,-68 -13,-15 -34,-22 -64,-22 -38,0 -64,12 -80,35l0 419 -181 0 0 -829 181 0 0 308z"/>
  </g>
 </g>
</svg>
