<?xml version="1.0" encoding="UTF-8"?>
<!DOCTYPE svg PUBLIC "-//W3C//DTD SVG 1.1//EN" "http://www.w3.org/Graphics/SVG/1.1/DTD/svg11.dtd">
<!-- Creator: CorelDRAW X7 -->
<svg xmlns="http://www.w3.org/2000/svg" xml:space="preserve" width="137.351mm" height="72.4735mm" version="1.1" style="shape-rendering:geometricPrecision; text-rendering:geometricPrecision; image-rendering:optimizeQuality; fill-rule:evenodd; clip-rule:evenodd"
viewBox="0 0 5405 2852"
 xmlns:xlink="http://www.w3.org/1999/xlink">
 <defs>
  <style type="text/css">
   <![CDATA[
    .fil0 {fill:black;fill-rule:nonzero}
    .fil1 {fill:white;fill-rule:nonzero}
   ]]>
  </style>
 </defs>
 <g id="Layer_x0020_1">
  <metadata id="CorelCorpID_0Corel-Layer"/>
  <g id="_2526274928736">
   <path class="fil0" d="M257 44l180 564 181 -564 257 0 0 810 -196 0 0 -189 19 -387 -196 576 -129 0 -196 -576 19 387 0 189 -196 0 0 -810 257 0zm1292 514c0,94 -21,168 -63,224 -42,56 -99,84 -171,84 -55,0 -101,-20 -136,-61l0 281 -188 0 0 -833 176 0 5 55c36,-44 83,-67 142,-67 74,0 132,28 173,82 41,55 62,130 62,226l0 9zm-188 -12c0,-107 -31,-160 -93,-160 -45,0 -74,16 -89,48l0 237c16,33 46,50 90,50 60,0 90,-52 92,-155l0 -20zm609 308c-6,-12 -12,-30 -17,-53 -35,43 -83,65 -145,65 -57,0 -105,-17 -145,-52 -39,-34 -59,-77 -59,-129 0,-66 24,-115 72,-149 48,-33 118,-50 210,-50l58 0 0 -32c0,-55 -24,-83 -72,-83 -44,0 -66,22 -66,66l-188 0c0,-58 25,-105 74,-141 50,-36 113,-55 190,-55 77,0 137,19 182,57 44,37 67,89 68,154l0 266c1,55 9,98 26,127l0 9 -188 0zm-117 -122c23,0 43,-5 58,-15 16,-10 27,-21 33,-34l0 -96 -54 0c-66,0 -98,29 -98,88 0,17 5,31 17,41 11,11 26,16 44,16zm601 -628l0 149 99 0 0 130 -99 0 0 275c0,23 4,39 12,47 8,9 25,14 49,14 18,0 34,-1 46,-4l0 135c-33,10 -69,16 -105,16 -65,0 -112,-15 -143,-46 -31,-30 -46,-77 -46,-138l0 -299 -77 0 0 -130 77 0 0 -149 187 0zm356 213c40,-50 91,-76 153,-76 67,0 117,20 151,59 33,40 51,98 51,174l0 380 -187 0 0 -375c0,-32 -7,-55 -20,-70 -13,-15 -35,-23 -66,-23 -39,0 -66,12 -82,37l0 431 -187 0 0 -854 187 0 0 317zm701 275l100 -339 201 0 -246 702 -10 25c-35,78 -97,117 -185,117 -24,0 -50,-4 -77,-11l0 -134 24 0c26,0 47,-4 60,-11 14,-8 25,-21 31,-41l15 -40 -209 -607 200 0 96 339z"/>
   <path class="fil1" d="M503 1504l-307 0 0 193 362 0 0 151 -558 0 0 -810 559 0 0 150 -363 0 0 171 307 0 0 145zm303 -258l6 71c43,-55 100,-82 172,-82 76,0 127,30 154,90 41,-60 100,-90 177,-90 122,0 184,74 188,221l0 392 -188 0 0 -380c0,-31 -5,-54 -16,-68 -10,-14 -29,-21 -56,-21 -38,0 -65,17 -83,50l0 8 0 411 -188 0 0 -379c0,-32 -5,-55 -15,-69 -10,-14 -29,-21 -57,-21 -36,0 -64,17 -83,50l0 419 -187 0 0 -602 176 0zm780 295c0,-60 12,-113 35,-160 24,-47 57,-83 101,-109 44,-25 95,-37 154,-37 90,0 161,28 213,83 52,56 78,132 78,228l0 7c0,94 -26,168 -78,223 -52,55 -123,83 -212,83 -85,0 -154,-26 -206,-77 -52,-51 -80,-121 -84,-209l-1 -32zm188 12c0,55 9,96 26,122 17,26 43,39 77,39 67,0 101,-51 103,-154l0 -19c0,-108 -35,-162 -104,-162 -62,0 -96,47 -102,140l0 34zm694 -456l0 149 99 0 0 130 -99 0 0 275c0,23 4,39 12,48 8,9 24,13 48,13 19,0 35,-1 47,-3l0 134c-34,11 -69,16 -106,16 -64,0 -112,-15 -142,-46 -31,-30 -47,-76 -47,-138l0 -299 -76 0 0 -130 76 0 0 -149 188 0zm371 751l-188 0 0 -602 188 0 0 602zm-200 -757c0,-27 10,-49 29,-66 20,-18 45,-26 75,-26 31,0 56,8 75,26 20,17 29,39 29,66 0,26 -9,48 -29,66 -19,17 -44,25 -75,25 -30,0 -55,-8 -75,-25 -19,-18 -29,-40 -29,-66zm291 450c0,-60 12,-113 35,-160 24,-47 57,-83 101,-109 44,-25 95,-37 154,-37 90,0 161,28 213,83 52,56 78,132 78,228l0 7c0,94 -26,168 -78,223 -52,55 -123,83 -212,83 -86,0 -154,-26 -206,-77 -52,-51 -80,-121 -84,-209l-1 -32zm188 12c0,55 8,96 26,122 17,26 43,39 77,39 67,0 101,-51 102,-154l0 -19c0,-108 -34,-162 -103,-162 -63,0 -97,47 -102,140l0 34zm648 -307l6 71c41,-55 98,-82 171,-82 63,0 110,18 141,56 31,37 47,94 48,169l0 388 -188 0 0 -380c0,-31 -6,-53 -18,-67 -13,-14 -35,-22 -67,-22 -37,0 -64,15 -82,44l0 425 -187 0 0 -602 176 0zm809 602c-7,-13 -13,-30 -18,-54 -35,43 -83,65 -145,65 -56,0 -105,-17 -144,-52 -40,-34 -60,-77 -60,-129 0,-66 24,-115 73,-148 48,-34 118,-50 210,-50l58 0 0 -32c0,-56 -24,-83 -72,-83 -45,0 -67,22 -67,65l-187 0c0,-58 24,-105 74,-141 49,-36 113,-54 189,-54 77,0 138,18 182,56 45,37 67,89 69,154l0 266c0,55 9,98 25,127l0 10 -187 0zm-118 -122c24,0 43,-5 59,-15 15,-10 26,-22 33,-35l0 -96 -55 0c-65,0 -98,29 -98,88 0,17 6,31 18,42 11,10 26,16 43,16zm581 122l-188 0 0 -855 188 0 0 855zm-4737 707l-106 0 0 286 -195 0 0 -810 319 0c96,0 171,21 225,64 54,43 81,103 81,181 0,56 -11,103 -34,140 -23,37 -58,67 -107,90l169 326 0 9 -209 0 -143 -286zm-106 -151l124 0c37,0 65,-9 83,-29 19,-19 29,-47 29,-82 0,-35 -10,-62 -29,-82 -19,-20 -47,-30 -83,-30l-124 0 0 223zm831 448c-93,0 -167,-27 -224,-82 -57,-56 -86,-127 -86,-216l0 -15c0,-62 11,-116 34,-163 23,-47 56,-84 100,-109 44,-26 96,-39 156,-39 84,0 151,26 200,79 49,52 74,125 74,219l0 73 -373 0c7,34 21,60 44,80 22,19 52,28 88,28 59,0 105,-20 139,-62l85 102c-23,32 -56,57 -99,76 -43,20 -89,29 -138,29zm-21 -479c-55,0 -88,36 -98,109l189 0 0 -15c1,-30 -7,-53 -23,-70 -16,-16 -39,-24 -68,-24zm583 245l95 -379 197 0 -196 602 -191 0 -197 -602 198 0 94 379zm316 -84c0,-60 12,-113 35,-160 24,-47 57,-83 101,-108 44,-26 95,-38 154,-38 90,0 161,28 213,84 52,55 78,131 78,227l0 7c0,94 -26,168 -78,224 -52,55 -123,82 -212,82 -86,0 -154,-26 -206,-77 -52,-51 -80,-121 -84,-209l-1 -32zm188 12c0,56 8,97 26,123 17,26 43,38 77,38 67,0 101,-51 102,-154l0 -19c0,-108 -34,-161 -103,-161 -63,0 -97,46 -102,139l0 34zm673 295l-188 0 0 -855 188 0 0 855zm474 -65c-40,51 -93,76 -161,76 -66,0 -116,-19 -150,-57 -34,-39 -51,-94 -51,-166l0 -390 188 0 0 391c0,52 25,77 75,77 43,0 73,-15 92,-46l0 -422 188 0 0 602 -176 0 -5 -65zm502 -686l0 149 99 0 0 130 -99 0 0 276c0,22 4,38 12,47 8,9 25,13 49,13 18,0 34,-1 46,-3l0 134c-33,11 -69,16 -105,16 -65,0 -112,-15 -143,-45 -31,-31 -46,-77 -46,-139l0 -299 -77 0 0 -130 77 0 0 -149 187 0zm371 751l-188 0 0 -602 188 0 0 602zm-199 -757c0,-27 9,-49 29,-66 19,-17 44,-26 75,-26 30,0 56,9 75,26 19,17 29,39 29,66 0,27 -10,49 -29,66 -19,17 -45,25 -75,25 -31,0 -56,-8 -75,-25 -20,-17 -29,-39 -29,-66zm290 450c0,-60 12,-113 35,-160 24,-47 57,-83 101,-108 44,-26 95,-38 154,-38 90,0 161,28 213,84 52,55 78,131 78,227l0 7c0,94 -26,168 -78,224 -52,55 -123,82 -212,82 -85,0 -154,-26 -206,-77 -52,-51 -80,-121 -84,-209l-1 -32zm188 12c0,56 9,97 26,123 17,26 43,38 77,38 67,0 101,-51 103,-154l0 -19c0,-108 -35,-161 -104,-161 -62,0 -96,46 -102,139l0 34zm648 -307l6 71c41,-55 99,-82 172,-82 62,0 109,19 140,56 31,37 47,94 48,169l0 388 -188 0 0 -380c0,-30 -6,-53 -18,-67 -12,-14 -34,-21 -67,-21 -36,0 -64,14 -82,43l0 425 -187 0 0 -602 176 0z"/>
  </g>
 </g>
</svg>
