<?xml version="1.0" encoding="UTF-8"?>
<!DOCTYPE svg PUBLIC "-//W3C//DTD SVG 1.1//EN" "http://www.w3.org/Graphics/SVG/1.1/DTD/svg11.dtd">
<!-- Creator: CorelDRAW X7 -->
<svg xmlns="http://www.w3.org/2000/svg" xml:space="preserve" width="146.7mm" height="162.56mm" version="1.1" style="shape-rendering:geometricPrecision; text-rendering:geometricPrecision; image-rendering:optimizeQuality; fill-rule:evenodd; clip-rule:evenodd"
viewBox="0 0 6005 6655"
 xmlns:xlink="http://www.w3.org/1999/xlink">
 <defs>
  <style type="text/css">
   <![CDATA[
    .fil2 {fill:black;fill-rule:nonzero}
    .fil5 {fill:#1A1A1A;fill-rule:nonzero}
    .fil7 {fill:#22A7F0;fill-rule:nonzero}
    .fil8 {fill:#2976B4;fill-rule:nonzero}
    .fil15 {fill:#2B1E52;fill-rule:nonzero}
    .fil4 {fill:#371A45;fill-rule:nonzero}
    .fil9 {fill:#845EBE;fill-rule:nonzero}
    .fil10 {fill:#8C7B94;fill-rule:nonzero}
    .fil6 {fill:#999999;fill-rule:nonzero}
    .fil13 {fill:#9B8DA2;fill-rule:nonzero}
    .fil14 {fill:#B31D61;fill-rule:nonzero}
    .fil16 {fill:#B56E9B;fill-rule:nonzero}
    .fil3 {fill:#B9AFBE;fill-rule:nonzero}
    .fil11 {fill:#F9195A;fill-rule:nonzero}
    .fil12 {fill:#FC8CAD;fill-rule:nonzero}
    .fil17 {fill:#FDF2F2;fill-rule:nonzero}
    .fil1 {fill:white;fill-rule:nonzero}
    .fil0 {fill:black;fill-rule:nonzero;fill-opacity:0.149020}
   ]]>
  </style>
 </defs>
 <g id="Layer_x0020_1">
  <metadata id="CorelCorpID_0Corel-Layer"/>
  <path class="fil0" d="M2466 6655c1256,0 2275,-122 2275,-272 0,-92 -382,-173 -966,-222 -5,17 -11,33 -18,49 -17,33 -41,62 -70,84 -28,23 -60,39 -92,51 -64,24 -130,33 -194,37 -23,1 -45,2 -67,2 -42,0 -84,-2 -126,-6 -32,-2 -64,-5 -95,-9l-94 -13c-62,-8 -126,-19 -189,-35 -31,-9 -63,-19 -94,-33 -31,-13 -61,-30 -89,-53 -14,-11 -27,-24 -39,-39 -11,-14 -21,-32 -28,-48 -5,-12 -10,-24 -14,-36 -33,0 -67,0 -100,0 -48,0 -96,0 -144,0 -4,12 -9,24 -14,36 -7,16 -17,34 -28,48 -12,15 -25,28 -39,39 -28,23 -58,40 -89,53 -31,14 -63,24 -94,33 -63,16 -127,27 -189,35l-94 13c-31,4 -63,7 -95,9 -42,4 -84,6 -126,6 -22,0 -44,-1 -67,-2 -64,-4 -130,-13 -194,-37 -32,-12 -64,-28 -92,-51 -29,-22 -53,-51 -70,-84 -7,-15 -12,-30 -17,-45 -560,49 -923,129 -923,218 0,150 1019,272 2275,272z"/>
  <path class="fil1" d="M3647 2858l0 1529c0,88 -23,171 -63,242 -86,151 -248,254 -433,254l-1424 0c-178,0 -335,-95 -422,-237 -47,-76 -73,-164 -73,-259l0 -1529c0,-34 3,-66 10,-98 17,-88 58,-167 116,-232 91,-101 223,-166 369,-166l1424 0c213,0 396,136 466,325 19,53 30,111 30,171z"/>
  <path class="fil2" d="M3151 2399c253,0 459,206 459,459l0 1529c0,253 -206,459 -459,459l-1424 0c-253,0 -458,-206 -458,-459l0 -1529c0,-253 205,-459 458,-459l1424 0zm-1424 2521l1424 0c294,0 533,-239 533,-533l0 -1529c0,-294 -239,-533 -533,-533l-1424 0c-293,0 -532,239 -532,533l0 1529c0,294 239,533 532,533z"/>
  <path class="fil1" d="M3329 2507c0,0 617,701 617,1287 0,501 -617,674 -617,674l-855 -1448 855 -513z"/>
  <path class="fil1" d="M3946 3794c0,502 -617,674 -617,674l-21 -36 -834 -1412 645 -387 210 -126c0,0 617,701 617,1287z"/>
  <path class="fil3" d="M3614 4142c13,-22 24,-46 34,-70 -9,2 -19,4 -29,5 -3,0 -6,1 -9,1 2,21 3,43 4,64zm53 -472c-32,-163 -99,-327 -178,-478 21,97 39,194 54,292 9,58 17,116 24,174 6,0 12,0 17,-1 4,0 7,0 11,0 25,0 50,5 72,13z"/>
  <path class="fil2" d="M3321 2555c105,126 588,733 588,1239 0,410 -448,590 -563,630l-821 -1391 796 -478zm-9 1956l27 -7c7,-2 162,-46 319,-154 213,-146 325,-338 325,-556 0,-593 -601,-1282 -626,-1311l-21 -24 -912 548 888 1504z"/>
  <path class="fil1" d="M1491 3357c0,0 -261,327 -680,255 -434,-75 -357,-797 -357,-797l660 -254c0,0 -41,226 54,226 107,-1 298,-252 465,-328l-142 898z"/>
  <path class="fil3" d="M930 3585c187,0 334,-81 426,-152l4 -25c6,-31 12,-63 18,-94 12,-62 26,-125 40,-187 1,-4 2,-8 3,-12 -104,159 -263,331 -468,331 -21,0 -42,-2 -64,-6 -310,-53 -336,-425 -132,-462 -17,1 -33,2 -49,2 -55,0 -101,-8 -128,-14 -35,-9 -66,-21 -94,-36 -1,197 35,595 332,646 39,6 76,9 112,9z"/>
  <path class="fil2" d="M933 3660c359,0 577,-267 587,-280 13,-16 10,-39 -6,-52 -16,-13 -39,-10 -52,6 -2,3 -253,309 -644,242 -354,-61 -337,-616 -329,-735l580 -223c-4,56 -2,133 33,174 17,21 40,32 66,32l0 0c71,-1 155,-74 251,-160 77,-68 157,-138 229,-171 19,-8 27,-30 19,-49 -9,-19 -31,-27 -49,-18 -83,37 -167,111 -248,183 -74,66 -159,141 -202,141l0 0c-4,0 -7,-2 -9,-5 -23,-27 -19,-122 -9,-178l12 -64 -742 285 -3 23c-3,31 -75,758 388,838 45,7 87,11 128,11z"/>
  <path class="fil1" d="M3746 6111c0,6 -1,12 -2,18 -32,186 -249,252 -641,201 -177,-23 -422,-50 -487,-192 -129,-281 3,-852 -12,-1217l0 -1c0,0 -72,9 -160,9 -88,0 -160,-9 -160,-9 0,3 0,6 0,9 -13,366 116,930 -12,1209 -65,142 -310,169 -487,192 -392,51 -610,-15 -641,-201 -1,-6 -2,-12 -3,-18 -22,-227 294,-333 294,-333 0,0 -69,-481 -114,-916 -19,-183 -24,-372 -18,-560 2,-48 4,-97 7,-145 4,-69 9,-138 15,-206 6,-59 12,-117 19,-174 26,-216 60,-420 96,-600 32,-161 65,-302 93,-414 6,-25 12,-48 18,-70 34,-133 58,-210 58,-210l1670 0c0,0 24,78 58,211 21,78 44,175 69,287 10,43 20,89 30,137 40,194 79,420 108,660 7,57 13,113 18,171 7,70 12,141 16,213 3,51 5,101 7,152 1,34 2,68 2,102 1,150 -5,300 -20,446 -45,435 -114,916 -114,916 0,0 316,106 293,333z"/>
  <path class="fil3" d="M1554 6310c40,0 80,-2 120,-5 31,-3 61,-6 92,-10l93 -12c61,-9 122,-18 180,-34 57,-16 113,-37 155,-71 10,-8 19,-17 27,-27l6 -8 5 -8c1,-2 2,-5 4,-8l2 -4 2 -5c12,-26 20,-54 27,-83 14,-57 20,-118 23,-179 3,-61 2,-123 0,-184 -5,-124 -17,-248 -27,-374 -9,-114 -19,-229 -17,-347 -29,-6 -56,-14 -84,-23 -37,-13 -73,-28 -108,-46 -18,-9 -35,-19 -52,-29 -16,-10 -33,-20 -48,-32 -32,-24 -61,-51 -86,-81 0,0 0,0 0,0 0,0 0,0 0,0 0,0 15,340 210,601 195,261 175,471 49,680 -62,105 -321,173 -583,173 -126,0 -253,-16 -359,-51 3,12 8,23 13,34 23,46 67,79 121,99 53,20 113,28 173,32 20,1 41,2 62,2z"/>
  <path class="fil3" d="M3334 6310c21,0 42,-1 62,-2 60,-4 120,-12 173,-32 54,-20 98,-53 121,-99 6,-12 11,-25 14,-38 -106,24 -225,36 -342,36 -270,0 -528,-61 -588,-161 -125,-209 -112,-424 71,-694 227,-335 174,-580 174,-580 0,0 0,0 0,0 0,0 0,0 0,0 -25,30 -54,57 -86,81 -15,12 -32,22 -48,32 -17,10 -34,20 -52,29 -35,18 -71,33 -108,46 -28,9 -55,17 -84,23 3,118 -7,233 -16,347 -10,126 -22,250 -27,374 -2,61 -3,123 0,184 3,61 9,122 23,179 7,29 15,57 27,83l2 5 2 4c2,3 3,6 4,8l5 8 6 8c8,10 17,19 27,27 41,34 98,55 155,71 58,16 119,25 180,34l93 12c31,4 61,7 92,10 40,3 80,5 120,5z"/>
  <path class="fil2" d="M1521 2760c-40,121 -73,244 -103,367 -14,62 -28,125 -40,187 -6,31 -12,63 -18,94l-16 94c-5,32 -10,63 -15,95l-14 94c-4,32 -8,63 -12,95 -4,32 -7,63 -10,95 -14,127 -21,254 -27,382 -3,128 -5,256 2,383l3 48 1 24 2 24 8 96c5,64 13,127 20,190 29,252 61,504 97,755l25 -40c-17,6 -32,12 -47,19 -15,7 -30,14 -45,22 -29,15 -57,33 -84,53 -27,20 -52,43 -74,70 -23,26 -42,57 -55,91 -12,34 -17,71 -15,107 2,36 11,72 27,105 17,33 41,62 70,84 28,23 60,39 92,51 64,24 130,33 194,37 65,3 130,1 193,-4 32,-2 64,-5 95,-9l94 -13c62,-8 126,-19 189,-35 31,-9 63,-19 94,-33 31,-13 61,-30 89,-53 14,-11 27,-24 39,-39 11,-14 21,-32 28,-48 14,-31 23,-63 31,-96 16,-64 22,-128 25,-192 3,-65 2,-128 0,-191 -6,-127 -17,-252 -28,-377 -10,-124 -19,-248 -15,-370l-41 35c28,3 55,5 82,7 27,1 55,2 82,2 27,0 55,-1 82,-2 27,-2 54,-4 82,-7l-41 -35c4,122 -6,246 -15,370 -11,125 -22,250 -28,377 -2,63 -3,126 0,191 3,64 9,128 25,192 8,33 17,65 31,96 7,16 17,34 28,48 12,15 25,28 39,39 28,23 58,40 89,53 31,14 63,24 94,33 63,16 127,27 189,35l94 13c31,4 63,7 95,9 63,5 128,7 193,4 64,-4 130,-13 194,-37 32,-12 64,-28 92,-51 29,-22 53,-51 70,-84 16,-33 25,-69 27,-105 2,-36 -3,-73 -15,-107 -13,-34 -32,-65 -55,-91 -22,-27 -47,-50 -74,-70 -27,-20 -55,-38 -84,-53 -15,-8 -30,-15 -45,-22 -15,-7 -30,-13 -47,-19l25 40c36,-253 69,-507 98,-761 7,-64 14,-127 20,-191 3,-33 6,-65 8,-97l5 -97c5,-128 5,-257 0,-386 -5,-129 -16,-257 -29,-385 -3,-32 -7,-63 -10,-95 -4,-32 -8,-64 -12,-96 -8,-64 -16,-127 -26,-191 -20,-127 -44,-253 -74,-379 -7,-31 -16,-62 -24,-93 -9,-31 -18,-61 -28,-92 -20,-61 -41,-122 -68,-181 -3,-7 -10,-9 -16,-7 -5,3 -8,9 -7,14l0 0c26,125 49,250 74,375 22,124 44,250 65,376 42,250 71,503 81,757 5,127 5,254 0,380 -5,127 -18,252 -33,380 -29,253 -62,506 -97,759l-4 30 29 10c12,5 27,11 40,17 14,6 27,12 40,19 26,14 51,30 74,47 47,35 86,78 104,127 9,25 13,51 11,78 -2,26 -8,53 -20,76 -23,46 -67,79 -121,99 -53,20 -113,28 -173,32 -60,3 -121,1 -182,-3 -31,-3 -61,-6 -92,-10l-93 -12c-61,-9 -122,-18 -180,-34 -57,-16 -114,-37 -155,-71 -10,-8 -19,-17 -27,-27l-6 -8 -5 -8c-1,-2 -2,-5 -4,-8l-2 -4 -2 -5c-12,-26 -20,-54 -27,-83 -14,-57 -20,-118 -23,-179 -3,-61 -2,-123 0,-184 5,-124 17,-248 27,-374 10,-125 20,-251 16,-379l-2 -40 -40 5c-25,2 -51,4 -77,6 -26,1 -52,2 -78,2 -26,0 -52,-1 -78,-2 -26,-2 -52,-4 -77,-6l-40 -5 -2 40c-4,128 6,254 16,379 10,126 22,250 27,374 2,61 3,123 0,184 -3,61 -9,122 -23,179 -7,29 -15,57 -27,83l-2 5 -2 4c-2,3 -3,6 -4,8l-5 8 -6 8c-8,10 -17,19 -27,27 -42,34 -98,55 -155,71 -58,16 -119,25 -180,34l-93 12c-31,4 -61,7 -92,10 -61,4 -122,6 -182,3 -60,-4 -120,-12 -173,-32 -54,-20 -98,-53 -121,-99 -12,-23 -18,-50 -20,-76 -2,-27 2,-53 11,-78 18,-49 57,-92 104,-127 23,-17 48,-33 74,-47 13,-7 26,-13 40,-19 13,-6 28,-12 40,-17l29 -10 -4 -30c-35,-251 -68,-502 -97,-754 -6,-62 -14,-125 -20,-188l-7 -94 -2 -23 -1 -24 -2 -47c-6,-125 -4,-251 0,-377 12,-252 39,-502 76,-752 38,-250 83,-498 126,-748 1,-7 -3,-13 -10,-15 -6,-1 -12,3 -14,9z"/>
  <path class="fil2" d="M3127 5504c303,0 407,-132 414,-140 12,-17 9,-40 -8,-52 -16,-12 -39,-9 -51,7 -4,4 -202,240 -876,9 -20,-6 -40,4 -47,23 -7,20 4,41 23,47 229,79 407,106 545,106z"/>
  <path class="fil2" d="M1731 5521c271,0 562,-96 581,-102 19,-6 29,-27 23,-47 -7,-19 -28,-29 -47,-23 -6,2 -656,216 -881,8 -15,-14 -38,-13 -52,2 -14,15 -13,38 2,52 90,83 229,110 374,110z"/>
  <path class="fil1" d="M3838 2060l0 0c-16,-3 -27,-17 -24,-33l111 -815c3,-15 17,-26 33,-24 164,22 278,174 256,338l-38 277c-23,164 -174,279 -338,257z"/>
  <path class="fil4" d="M3954 1194c1,0 2,0 3,0 77,11 146,51 193,114 48,62 68,139 57,217l-38 278c-11,77 -51,146 -113,193 -63,47 -140,68 -217,57 -12,-2 -21,-13 -19,-25l112 -815c1,-6 4,-11 9,-14 3,-3 8,-5 13,-5zm-75 875c67,0 131,-21 185,-62 65,-50 107,-122 118,-203l38 -278c11,-81 -10,-161 -59,-226 -50,-65 -121,-107 -202,-119 -10,-1 -19,1 -27,7 -7,6 -12,14 -13,23l-112 815c-3,20 11,37 30,40 14,2 28,3 42,3z"/>
  <path class="fil3" d="M3879 2025c57,0 112,-18 158,-53 56,-42 92,-104 102,-174l8 -58c-54,58 -129,94 -211,96 -5,17 -10,33 -15,49 -14,48 -31,95 -50,140 3,0 5,0 8,0z"/>
  <path class="fil2" d="M3961 1226c66,11 124,46 165,100 43,56 61,125 51,195l-38 277c-10,70 -46,132 -102,174 -53,41 -119,59 -186,52l110 -798zm-82 873c73,0 144,-23 203,-68 72,-54 118,-133 130,-222l38 -278c13,-90 -11,-178 -65,-250 -54,-71 -133,-118 -222,-130 -18,-2 -35,2 -49,13 -14,11 -23,26 -25,43l-112 815c-5,36 20,69 56,74l0 0c15,2 31,3 46,3z"/>
  <path class="fil1" d="M1267 819c16,2 27,16 25,32l-112 815c-2,15 -17,26 -32,24 -164,-22 -279,-174 -256,-337l38 -278c22,-164 173,-279 337,-256z"/>
  <path class="fil4" d="M1266 825c12,2 21,13 19,25l-112 815c0,6 -3,11 -8,14 -5,4 -11,5 -16,5 -78,-11 -147,-51 -194,-114 -47,-62 -67,-139 -57,-217l38 -278c11,-77 51,-146 114,-193 62,-47 139,-68 216,-57zm-114 872c7,0 15,-2 21,-7 7,-6 12,-14 13,-23l112 -815c3,-20 -10,-37 -30,-40 -81,-11 -161,10 -226,59 -66,50 -108,122 -119,203l-38 278c-11,81 10,161 59,226 50,66 122,108 203,119 1,0 3,0 5,0z"/>
  <path class="fil3" d="M1129 1649c-10,-69 -15,-139 -15,-210 -77,-22 -140,-73 -178,-138l-8 57c-9,69 9,138 51,194 38,50 90,83 150,97z"/>
  <path class="fil2" d="M1254 854l-110 798c-66,-11 -124,-46 -165,-100 -42,-56 -60,-125 -51,-194l38 -278c10,-70 46,-132 102,-174 54,-41 119,-59 186,-52zm-102 873c32,0 60,-23 65,-56l111 -815c5,-36 -20,-69 -56,-74l0 0c-89,-12 -177,11 -249,65 -71,54 -118,133 -130,223l-38 277c-12,90 11,178 65,250 55,71 134,118 223,130 3,0 6,0 9,0z"/>
  <path class="fil3" d="M3559 2744c10,-9 19,-18 29,-28 -22,-67 -59,-127 -107,-177 -15,13 -31,25 -47,37 35,44 78,101 125,168zm-2160 -161c49,-42 98,-84 147,-117 -7,-6 -14,-13 -20,-20 -56,27 -106,66 -146,112 7,9 13,17 19,25z"/>
  <path class="fil2" d="M3588 2716c9,-9 19,-19 29,-29 -24,-65 -61,-123 -108,-172 -10,8 -19,16 -28,24 48,50 85,110 107,177zm-2208 -158c40,-46 90,-85 146,-112 -9,-9 -18,-18 -27,-28 -53,28 -101,66 -141,110 7,10 15,20 22,30z"/>
  <path class="fil3" d="M3401 2873c35,-25 69,-51 102,-79 -49,-70 -94,-129 -129,-173 -11,8 -23,16 -35,23 -4,3 -8,6 -13,8 4,14 8,27 11,42 4,14 7,28 11,43 1,0 1,1 1,2 20,43 37,88 52,134z"/>
  <path class="fil2" d="M3503 2794c12,-10 25,-21 37,-32 6,-6 13,-12 19,-18 -47,-67 -90,-124 -125,-168 -19,16 -39,30 -60,45 35,44 80,103 129,173z"/>
  <path class="fil3" d="M1540 2737c3,-15 7,-30 11,-44 20,-79 37,-137 47,-173 -49,32 -101,75 -151,120 29,34 60,66 93,97l0 0z"/>
  <path class="fil2" d="M1447 2640c50,-45 102,-88 151,-120 1,-1 1,-2 1,-4 -18,-16 -36,-33 -53,-50 -49,33 -98,75 -147,117 8,10 16,19 24,29 7,9 15,19 24,28z"/>
  <path class="fil3" d="M2553 3143c8,0 16,0 23,-1 283,-4 553,-90 781,-239 -10,-53 -20,-105 -31,-157l0 0c-1,-5 2,-11 7,-14 2,0 3,-1 5,-1 4,0 8,2 10,6 -4,-15 -7,-29 -11,-43 -3,-15 -7,-28 -11,-42 -233,149 -499,226 -770,226 -100,0 -200,-10 -300,-31 -253,-53 -476,-170 -657,-331 0,2 0,3 -1,4 -10,36 -27,94 -47,173 -4,14 -8,29 -11,44 14,14 28,27 43,40 184,162 411,280 667,334 102,21 203,32 303,32z"/>
  <path class="fil2" d="M3357 2903c9,-6 18,-12 27,-19 6,-3 12,-7 17,-11 -15,-46 -32,-91 -52,-134 0,-1 0,-2 -1,-2 -2,-4 -6,-6 -10,-6 -2,0 -3,1 -5,1 -5,3 -8,9 -7,14l0 0c11,52 21,104 31,157z"/>
  <path class="fil1" d="M3925 1728c-160,757 -903,1242 -1661,1083 -758,-160 -1243,-903 -1083,-1661 159,-757 903,-1242 1661,-1083 757,160 1242,903 1083,1661z"/>
  <path class="fil4" d="M2552 44c95,0 192,9 288,30 365,76 678,291 881,603 204,312 274,685 197,1049 -77,365 -291,678 -603,882 -312,203 -685,273 -1050,196 -752,-158 -1236,-899 -1078,-1652 139,-657 720,-1108 1365,-1108zm4 2804c270,0 535,-78 766,-229 315,-206 532,-522 609,-890 78,-368 7,-744 -198,-1059 -206,-316 -522,-532 -890,-609 -760,-160 -1509,328 -1669,1088 -160,760 329,1508 1089,1668 97,21 195,31 293,31z"/>
  <path class="fil3" d="M2556 2804c218,0 433,-52 629,-155 -147,42 -326,72 -524,72 -114,0 -235,-10 -359,-33 -320,-60 -600,-215 -794,-372 189,227 453,393 764,459 94,20 189,29 284,29z"/>
  <path class="fil2" d="M2552 74c93,0 188,10 282,29 357,76 663,285 862,590 199,306 268,670 192,1027 -75,357 -284,663 -590,862 -305,199 -670,268 -1026,193 -737,-155 -1210,-881 -1055,-1617 135,-642 704,-1084 1335,-1084zm4 2804c276,0 546,-79 783,-234 322,-210 543,-532 622,-909 79,-376 7,-760 -203,-1082 -210,-322 -533,-543 -909,-622 -776,-163 -1541,335 -1704,1112 -164,776 335,1541 1111,1704 100,21 200,31 300,31z"/>
  <path class="fil5" d="M3913 1762c-53,269 -189,502 -378,680 -143,133 -656,315 -1226,209 -529,-98 -954,-472 -1036,-649 -109,-236 -148,-503 -95,-773 139,-712 808,-888 1564,-741 755,147 1310,562 1171,1274z"/>
  <path class="fil2" d="M3877 1755c-50,253 -177,481 -368,660 -127,119 -622,306 -1193,200 -516,-96 -931,-460 -1009,-629 -110,-237 -142,-497 -93,-749 63,-324 241,-548 529,-667 258,-106 601,-122 992,-46 390,76 702,220 902,415 222,218 303,492 240,816zm-1216 966c441,0 787,-147 899,-252 202,-189 337,-432 389,-700 68,-350 -19,-647 -261,-883 -210,-205 -535,-356 -939,-435 -405,-78 -762,-61 -1034,51 -313,128 -505,371 -573,720 -53,269 -19,544 98,795 86,186 514,569 1062,671 124,23 245,33 359,33z"/>
  <path class="fil6" d="M3446 1819c54,0 109,-30 153,-81 28,-54 53,-110 75,-167 15,-102 -22,-194 -97,-223 -15,-7 -32,-10 -49,-10 -81,0 -167,70 -208,175 -50,128 -15,261 77,297 16,6 32,9 49,9z"/>
  <path class="fil6" d="M3164 2129c37,0 76,-23 98,-62 31,-55 18,-121 -29,-147 -13,-8 -28,-11 -43,-11 -37,0 -76,23 -98,62 -31,55 -18,121 30,147 13,8 27,11 42,11z"/>
  <path class="fil2" d="M2658 2646c418,0 751,-137 851,-231 191,-179 318,-407 368,-660 47,-244 13,-461 -103,-646 -3,64 -11,131 -25,199 -17,91 -43,179 -75,263 -3,24 -10,49 -19,73 -14,36 -33,68 -56,94 -85,163 -197,309 -330,433 -143,134 -580,306 -1114,306 -93,0 -190,-6 -288,-17 135,68 287,125 449,155 118,22 233,31 342,31z"/>
  <path class="fil2" d="M2657 2683c421,0 765,-136 878,-241 189,-178 325,-411 378,-680 56,-286 -1,-524 -137,-716 0,21 0,42 -2,63 116,185 150,402 103,646 -50,253 -177,481 -368,660 -100,94 -433,231 -851,231 -109,0 -224,-9 -342,-31 -162,-30 -314,-87 -449,-155 -34,-4 -69,-9 -104,-15 158,92 345,169 546,206 119,22 236,32 348,32z"/>
  <path class="fil6" d="M3599 1738c23,-26 42,-58 56,-94 9,-24 16,-49 19,-73 -22,57 -47,113 -75,167z"/>
  <path class="fil2" d="M3917 1151c8,0 17,-2 24,-8 13,-12 17,-31 9,-46 -179,-391 -609,-679 -1181,-790 -576,-112 -1085,0 -1396,309l26 26 24 29 -24 -29 24 29 2 -3c294,-291 778,-396 1330,-289 549,107 960,381 1128,750l2 4 3 5c8,9 18,13 29,13z"/>
  <path class="fil6" d="M1402 1713c0,0 94,-227 348,-559 329,-431 961,-460 961,-460 10,-17 -144,-57 -356,-57 -181,0 -404,29 -603,124 -433,206 -350,952 -350,952z"/>
  <path class="fil2" d="M2291 4884l-53 -14c-17,-4 -35,-9 -53,-14 -35,-11 -70,-22 -105,-34 -35,-12 -69,-27 -105,-40 -35,-14 -69,-29 -107,-42 25,30 54,57 86,81 15,12 32,22 48,32 17,10 34,20 52,29 35,18 71,33 108,46 38,12 75,23 116,29 20,3 39,-11 42,-32 3,-18 -9,-36 -27,-41l-2 0z"/>
  <path class="fil2" d="M2609 4957c41,-6 78,-17 116,-29 37,-13 73,-28 108,-46 18,-9 35,-19 52,-29 16,-10 33,-20 48,-32 32,-24 61,-51 86,-81 -38,13 -72,28 -107,42 -35,13 -70,28 -105,40 -35,12 -70,23 -105,34 -18,5 -36,10 -53,14l-52 14 -2 0c-20,5 -32,26 -27,45 5,19 23,30 41,28z"/>
  <path class="fil4" d="M1442 5815c22,-3 45,-5 68,-7 23,-2 47,-4 70,-5 46,-3 93,-3 139,-1 47,2 93,8 139,16 46,9 90,21 137,37 -35,-35 -79,-61 -125,-80 -46,-18 -95,-30 -144,-38 -49,-7 -99,-10 -148,-10 -25,1 -50,2 -75,4 -25,2 -48,6 -74,11 -20,4 -33,23 -29,44 4,18 22,31 40,29l2 0z"/>
  <path class="fil2" d="M3459 5742c-26,-5 -49,-9 -74,-11 -25,-2 -50,-3 -75,-4 -49,0 -99,3 -148,10 -49,8 -98,20 -144,38 -46,19 -90,45 -125,80 47,-16 92,-28 137,-37 47,-8 92,-14 139,-16 46,-2 93,-2 139,1 23,1 47,3 70,5 23,2 46,4 68,7l1 0c21,2 39,-12 42,-32 2,-20 -11,-37 -30,-41z"/>
  <path class="fil3" d="M2444 4892c26,0 52,-1 78,-2 25,-1 50,-3 74,-6l1 0 52 -14c17,-4 35,-9 53,-14 35,-11 70,-22 105,-34 35,-12 70,-27 105,-40 22,-9 43,-18 66,-27 -85,11 -376,47 -569,47 -188,0 -422,-34 -497,-46 21,9 42,18 63,26 36,13 70,28 105,40 35,12 70,23 105,34 18,5 36,10 53,14l52 14c25,3 51,5 76,6 26,1 52,2 78,2z"/>
  <path class="fil2" d="M2456 4921c39,0 76,-3 111,-7 3,-14 13,-26 28,-30l1 0c-24,3 -49,5 -74,6 -26,1 -52,2 -78,2 -26,0 -52,-1 -78,-2 -25,-1 -51,-3 -76,-6l1 0 2 0c13,4 24,15 27,28 35,5 74,7 114,8 7,0 15,1 22,1z"/>
  <path class="fil2" d="M2320 4912c-3,-13 -14,-24 -27,-28l-2 0 -1 0 -52 -14c-17,-4 -35,-9 -53,-14 -35,-11 -70,-22 -105,-34 -35,-12 -69,-27 -105,-40 -21,-8 -42,-17 -63,-26 -16,-2 -25,-4 -25,-4 0,0 149,126 433,160z"/>
  <path class="fil2" d="M2567 4914c270,-30 434,-162 434,-162 0,0 -8,1 -23,3 -23,9 -44,18 -66,27 -35,13 -70,28 -105,40 -35,12 -70,23 -105,34 -18,5 -36,10 -53,14l-52 14 -1 0 -1 0c-15,4 -25,16 -28,30z"/>
  <path class="fil3" d="M1896 4415l1082 0c109,0 198,-89 198,-198l0 -79c3,1 5,1 7,2l0 0c4,1 8,2 12,3 3,1 6,1 10,2 1,0 1,0 2,0 6,2 12,3 19,4 6,1 13,3 19,4 1,0 3,0 4,0 5,1 11,2 17,3 6,1 12,1 18,2 4,1 8,1 12,1 5,1 9,1 14,2 7,1 14,1 22,2l0 0c7,0 14,1 22,1 5,1 11,1 17,1 4,0 9,1 14,1 8,0 15,0 22,0 7,1 14,1 21,1 5,0 10,0 15,0 33,0 66,-1 98,-3 -1,-26 -3,-52 -5,-78 -53,4 -111,7 -169,7 -71,0 -142,-4 -208,-17l0 27c0,121 -99,220 -220,220l-997 0c-122,0 -220,-99 -220,-220l0 -16c-44,5 -90,6 -136,6 -81,0 -161,-6 -231,-13 -2,26 -4,53 -6,80 52,4 106,7 162,7 63,0 127,-4 187,-13l0 63c0,109 90,198 198,198z"/>
  <path class="fil2" d="M3541 4164c13,-1 25,-1 37,-2 -1,-27 -3,-53 -5,-80 -12,1 -24,3 -37,4 2,26 4,52 5,78zm-2192 -4c2,-27 4,-54 6,-80 -7,-1 -14,-2 -21,-3 -7,-1 -13,-2 -19,-3 -2,27 -4,55 -5,83 13,1 26,2 39,3z"/>
  <path class="fil3" d="M1698 3659c8,-1 16,-1 24,-2l0 -96c0,-9 1,-19 2,-28 -16,29 -26,62 -26,97l0 29zm1478 -6l0 -23c0,-30 -6,-57 -17,-82 0,4 0,9 0,13l0 90c6,0 12,1 17,2z"/>
  <path class="fil1" d="M1890 4011c-153,62 -390,49 -552,29 -97,-11 -165,-101 -151,-198 13,-88 91,-152 180,-148 151,7 378,11 522,-21l1 338z"/>
  <path class="fil3" d="M1587 4020c46,0 91,-2 135,-7l0 -138c-44,5 -90,7 -136,7 -88,0 -176,-7 -248,-16 -42,-5 -78,-24 -104,-52 -5,10 -8,22 -10,34 -6,37 4,73 26,103 23,29 56,48 93,53 73,8 159,16 244,16z"/>
  <path class="fil2" d="M1876 3977c-144,58 -369,46 -533,27 -37,-5 -70,-24 -93,-53 -22,-30 -32,-66 -26,-103 10,-70 71,-120 141,-117 161,8 381,10 527,-21 14,15 40,86 33,166 -2,25 -11,85 -49,101zm-290 116c114,0 229,-12 318,-48 107,-43 110,-213 79,-315 -31,-98 -82,-98 -102,-93 -137,30 -354,28 -512,20 -108,-5 -202,72 -218,180 -9,57 6,113 41,159 34,45 85,74 142,81 75,9 163,16 252,16z"/>
  <path class="fil1" d="M3615 4040c-76,10 -168,17 -261,16 -7,0 -13,0 -19,0 -7,0 -14,0 -20,0 -5,-1 -9,-1 -14,-1 -5,0 -10,-1 -16,-1 -6,0 -13,-1 -19,-1l-1 0c-6,-1 -13,-1 -20,-2 -4,0 -8,-1 -13,-1 -3,-1 -7,-1 -11,-1 -5,-1 -11,-2 -17,-3 -5,0 -10,-1 -15,-2 -1,0 -2,0 -3,-1 -6,0 -12,-2 -18,-3 -6,-1 -12,-2 -18,-3 -1,0 -1,0 -2,0 -3,-1 -6,-2 -9,-3 -4,0 -7,-1 -11,-2l0 0c-11,-3 -22,-6 -32,-9 -6,-2 -12,-4 -17,-6 -6,-2 -11,-4 -16,-6l0 -162 1 -176c37,8 79,14 124,18 131,12 286,8 398,3 3,0 6,0 8,0 86,0 159,63 172,148 14,97 -54,187 -151,198z"/>
  <path class="fil3" d="M3366 4020c85,0 171,-8 245,-16 36,-5 69,-24 92,-53 22,-30 32,-66 26,-103 -1,-7 -2,-14 -4,-21 -28,31 -66,53 -110,58 -72,9 -159,16 -247,16 -5,0 -9,0 -14,0 -7,0 -13,0 -19,0 -7,0 -14,0 -20,-1 -5,0 -9,0 -14,0 -5,0 -10,-1 -16,-1 -6,0 -13,-1 -19,-1l-1 0c-7,-1 -13,-1 -20,-2 -4,-1 -8,-1 -13,-2 -3,0 -7,0 -11,-1 -5,0 -11,-1 -17,-2 -5,-1 -10,-1 -15,-2 -1,0 -2,-1 -3,-1 -6,-1 -12,-2 -18,-3 -3,0 -6,-1 -9,-2l0 118c64,14 135,19 207,19z"/>
  <path class="fil2" d="M3594 3731c68,0 125,49 135,117 6,37 -4,73 -26,103 -23,29 -56,48 -92,53 -164,19 -390,31 -534,-27l-14 34 14 -34c-38,-16 -47,-76 -49,-101 -7,-80 19,-151 33,-166 146,31 366,29 527,21 2,0 4,0 6,0zm-227 362c89,0 177,-7 252,-16 57,-7 108,-36 142,-81 35,-46 50,-102 41,-159 -15,-108 -109,-185 -218,-180 -157,8 -374,10 -512,-20 -20,-5 -71,-5 -102,93 -31,102 -28,272 79,315 89,36 204,48 318,48z"/>
  <path class="fil1" d="M3122 3561l0 542c0,100 -82,183 -183,183l-997 0c-101,0 -183,-83 -183,-183l0 -542c0,-100 82,-183 183,-183l997 0c59,0 112,29 146,73 23,30 37,69 37,110z"/>
  <path class="fil1" d="M2212 4087c12,0 23,0 36,-1 313,-18 359,-270 359,-270l30 0c3,-30 14,-57 32,-79 28,-38 74,-63 125,-63 64,0 119,38 143,93 7,15 12,31 14,49l29 0c0,0 -1,162 60,163 0,0 0,0 0,0 19,0 33,-11 45,-31l0 -387c0,-80 -65,-146 -146,-146l-997 0c-81,0 -146,66 -146,146l0 147c143,100 96,379 416,379z"/>
  <path class="fil3" d="M1942 4249l997 0c81,0 146,-66 146,-146l0 -155c-12,20 -26,31 -45,31 0,0 0,0 0,0 -61,-1 -60,-163 -60,-163l-29 0c0,5 0,10 0,16 0,7 0,15 -1,22 -11,76 -76,136 -156,136 -79,0 -145,-59 -156,-135 -1,-7 -2,-15 -2,-23 0,-6 1,-11 1,-16l-30 0c0,0 -46,252 -359,270 -13,1 -24,1 -36,1 -320,0 -273,-279 -416,-379l0 395c0,80 65,146 146,146z"/>
  <path class="fil2" d="M2939 3415c81,0 146,66 146,146l0 542c0,80 -65,146 -146,146l-997 0c-81,0 -146,-66 -146,-146l0 -542c0,-80 65,-146 146,-146l997 0zm-997 908l997 0c121,0 220,-99 220,-220l0 -542c0,-121 -99,-220 -220,-220l-997 0c-122,0 -220,99 -220,220l0 542c0,121 98,220 220,220z"/>
  <path class="fil7" d="M2951 3832c0,87 -70,158 -157,158 -87,0 -158,-71 -158,-158 0,-87 71,-158 158,-158 87,0 157,71 157,158z"/>
  <path class="fil1" d="M2951 3832c0,9 0,17 -2,25 -12,-75 -77,-132 -155,-132 -79,0 -144,57 -156,132 -1,-8 -2,-16 -2,-25 0,-87 71,-158 158,-158 87,0 157,71 157,158z"/>
  <path class="fil8" d="M2794 3989c78,0 143,-57 155,-132 -3,-21 -10,-40 -21,-57 -27,45 -77,75 -134,75 -57,0 -107,-30 -134,-75 -11,17 -18,36 -22,57 0,0 0,0 0,0 12,75 77,132 156,132z"/>
  <path class="fil3" d="M2638 3857c4,-21 11,-40 22,-57 -5,-8 -9,-16 -13,-25 -7,18 -11,37 -11,57 0,8 1,17 2,25 0,0 0,0 0,0zm311 0c2,-8 2,-17 2,-25 0,-20 -3,-39 -10,-57 -4,9 -8,17 -13,25 11,17 18,36 21,57z"/>
  <path class="fil2" d="M2794 3702c72,0 130,58 130,130 0,72 -58,130 -130,130 -72,0 -130,-58 -130,-130 0,-72 58,-130 130,-130zm0 315c102,0 185,-83 185,-185 0,-102 -83,-185 -185,-185 -102,0 -185,83 -185,185 0,102 83,185 185,185z"/>
  <path class="fil2" d="M2347 4323c21,0 37,-17 37,-37l0 -315c0,-56 -27,-111 -72,-144l-84 -64c-27,-20 -43,-52 -43,-86l0 -299c0,-20 -17,-37 -37,-37 -21,0 -37,17 -37,37l0 299c0,57 27,111 72,145l85 64c27,20 42,52 42,85l0 315c0,20 17,37 37,37z"/>
  <path class="fil1" d="M1133 2662c-87,362 -453,328 -553,304 -210,-51 -282,-249 -282,-249l169 -224 75 -121 90 -27c71,-129 221,-275 308,-223 0,0 269,227 193,540z"/>
  <path class="fil3" d="M631 2785c32,0 66,-3 102,-7 72,-8 135,-43 172,-97 -58,-55 -70,-119 -68,-168 -38,35 -75,53 -108,58l-25 63c-2,4 -4,7 -6,10 4,12 6,25 6,38 0,23 -8,57 -47,87 -8,6 -17,12 -26,16z"/>
  <path class="fil1" d="M278 2234c84,84 157,146 157,146l234 240 159 -386c0,0 1,-78 -6,-182 -11,-204 -50,-508 -177,-500 -227,14 -77,613 -77,613 0,0 -362,-484 -508,-346 -85,80 81,278 218,415z"/>
  <path class="fil3" d="M639 2332c38,-64 94,-131 151,-174 -1,-24 -1,-50 -3,-78 -62,49 -146,117 -179,160 -20,26 -48,35 -81,35 -36,0 -76,-11 -116,-21 -28,-8 -55,-15 -80,-19 16,16 32,31 47,45 11,-1 23,-2 35,-2 67,0 156,20 226,54z"/>
  <path class="fil2" d="M791 2226l-135 328 -195 -200c-1,-1 -2,-1 -2,-2 -147,-124 -382,-363 -385,-474 0,-19 6,-27 12,-32 12,-12 26,-16 44,-15 124,11 337,261 409,356 10,14 29,19 45,11 16,-7 25,-25 20,-42 -28,-114 -86,-433 -10,-537 14,-19 31,-28 54,-30 7,0 18,1 32,14 94,89 112,473 111,623zm-122 431c3,0 5,0 7,0 13,-3 23,-11 28,-23l158 -386c2,-5 3,-9 3,-14 0,-56 2,-556 -134,-684 -25,-25 -56,-37 -88,-35 -44,3 -82,24 -108,60 -73,99 -56,307 -33,451 -97,-110 -247,-258 -365,-268 -40,-4 -75,8 -102,34 -24,22 -36,53 -35,88 5,179 362,487 409,527l234 239c7,7 16,11 26,11z"/>
  <path class="fil1" d="M255 2675c56,90 292,133 380,65 74,-58 0,-132 -21,-151 -4,-3 -6,-4 -6,-4 0,0 91,-28 107,-105 1,-5 2,-10 2,-15 6,-88 -230,-165 -337,-147 -80,12 -111,45 -118,80 -8,37 10,77 22,98 5,10 10,15 10,15 0,0 -84,92 -39,164z"/>
  <path class="fil3" d="M571 2586c0,-3 0,-5 1,-8 2,-13 12,-25 25,-29 0,0 11,-3 25,-11 -10,-12 -18,-26 -23,-41 -15,1 -31,1 -47,1 -83,0 -178,-15 -254,-70 3,25 19,52 26,62 6,8 8,18 6,28 61,27 147,57 241,68z"/>
  <path class="fil3" d="M506 2736c45,0 84,-9 106,-26 16,-12 18,-22 18,-28 0,-2 0,-5 -1,-7 -29,16 -69,23 -111,23 -90,0 -192,-31 -238,-81 -2,13 -1,27 6,39 20,31 80,61 150,74 24,4 47,6 70,6z"/>
  <path class="fil2" d="M414 2352c76,0 195,34 248,82 12,11 18,21 18,28 -4,62 -82,87 -83,87 -13,4 -23,16 -25,29 -3,14 3,27 13,36 15,11 45,43 45,68 0,6 -2,16 -18,28 -32,25 -103,33 -176,20 -70,-13 -130,-43 -150,-74 -28,-47 34,-119 35,-120 12,-13 13,-32 3,-46 -10,-14 -36,-61 -24,-92 12,-27 53,-39 86,-44 8,-1 18,-2 28,-2zm92 458c63,0 116,-14 151,-41 39,-30 47,-64 47,-87 0,-34 -16,-64 -34,-86 37,-23 80,-64 84,-129 1,-21 -5,-54 -43,-88 -78,-72 -249,-112 -337,-98 -75,12 -123,42 -142,89 -22,53 0,108 17,139 -27,37 -69,115 -26,185 32,51 106,92 200,109 29,5 57,7 83,7z"/>
  <path class="fil2" d="M579 2623c10,0 21,-1 31,-1 21,-2 36,-19 35,-39 -1,-21 -19,-37 -39,-35 -159,9 -292,-68 -294,-68 -17,-11 -40,-5 -50,13 -10,17 -5,40 13,50 6,4 136,80 304,80z"/>
  <path class="fil1" d="M940 2122c-115,-69 -342,211 -346,336 -4,96 110,176 245,54 138,-124 281,-283 101,-390z"/>
  <path class="fil1" d="M298 2717c0,0 72,198 282,249 100,24 466,58 553,-304 76,-313 -193,-540 -193,-540 -115,-69 -342,211 -346,336 -4,96 139,150 258,-18 0,0 -63,153 71,257l-316 182 -239 -47 -70 -115z"/>
  <path class="fil1" d="M861 2624l6 -4c-5,-4 -9,-7 -13,-11 2,5 4,10 7,15z"/>
  <path class="fil3" d="M613 2516c-11,-13 -18,-30 -19,-50 0,0 0,0 0,0 1,20 8,37 19,50z"/>
  <path class="fil3" d="M687 2548c34,0 75,-15 116,-52 6,-50 44,-85 44,-85 3,-10 0,-14 -7,-14 -14,0 -48,19 -87,38 -40,19 -85,38 -124,38 -13,0 -24,-2 -35,-7 1,20 8,37 19,50 17,20 43,32 74,32z"/>
  <path class="fil9" d="M413 2878c0,0 0,0 0,0 -17,-15 -32,-30 -45,-46l0 0c13,16 28,31 45,46zm732 -369l0 0c-1,-6 -1,-13 -2,-19 1,6 1,13 2,19z"/>
  <path class="fil3" d="M757 2978c117,-10 255,-56 334,-202l0 0c-77,142 -210,190 -325,201 -3,0 -6,0 -9,1 0,0 0,0 0,0z"/>
  <path class="fil10" d="M708 2980c16,0 32,-1 49,-2 0,0 0,0 0,0 -17,1 -33,2 -49,2 -55,0 -101,-8 -128,-14 -35,-9 -66,-21 -94,-36 0,0 0,0 0,0 28,15 59,27 94,36 27,6 73,14 128,14z"/>
  <path class="fil4" d="M486 2930c0,0 0,0 0,0 -3,-2 -6,-4 -10,-6 -23,-14 -45,-30 -63,-46 0,0 0,0 0,0 21,19 45,36 73,52zm605 -154c17,-33 32,-71 42,-114 13,-54 16,-105 12,-153l0 0c4,48 1,99 -12,153 -10,43 -25,81 -42,114l0 0z"/>
  <path class="fil3" d="M708 2980c16,0 32,-1 49,-2 3,-1 6,-1 9,-1 -20,2 -39,3 -58,3 -55,0 -101,-8 -128,-14 -39,-10 -74,-24 -104,-42 4,2 7,4 10,6 28,15 59,27 94,36 27,6 73,14 128,14zm-299 -140c0,0 0,0 0,0l-27 -5 27 5z"/>
  <path class="fil9" d="M1143 2490c0,0 0,0 0,-1 0,1 0,1 0,1zm0 -1c0,0 0,0 0,0 0,0 0,0 0,0zm-1 -1c0,0 0,0 0,0 0,0 0,0 0,0z"/>
  <path class="fil3" d="M708 2980c19,0 38,-1 58,-3 115,-11 248,-59 325,-201 17,-33 32,-71 42,-114 13,-54 16,-105 12,-153 -1,-6 -1,-13 -2,-19 0,0 0,0 0,0 0,0 0,0 0,-1 0,0 0,0 0,0 0,0 0,0 0,0 0,0 0,-1 -1,-1 0,0 0,0 0,0 -17,-132 -87,-238 -140,-301 61,96 114,236 75,398 -63,264 -276,318 -425,318 -55,0 -101,-8 -128,-14 -45,-11 -83,-28 -115,-49l-27 -5 -14 -3c13,16 28,31 45,46 18,16 40,32 63,46 30,18 65,32 104,42 27,6 73,14 128,14z"/>
  <path class="fil1" d="M298 2717c1,2 6,17 19,39l6 2 -25 -41z"/>
  <path class="fil1" d="M312 2755c4,4 7,8 11,12 -2,-3 -5,-7 -6,-11l-5 -1z"/>
  <path class="fil2" d="M987 2913c20,-4 39,-13 56,-24 18,-12 33,-26 46,-41 27,-32 47,-68 60,-106 26,-76 40,-157 32,-237 -7,-80 -33,-157 -71,-226 -19,-35 -41,-67 -65,-98 -12,-16 -25,-31 -38,-45 -7,-7 -14,-14 -21,-21 -7,-8 -13,-14 -22,-22 -2,-1 -3,-2 -4,-3l-1 0c-24,-14 -53,-18 -77,-15 -24,4 -45,12 -64,22 -19,9 -36,21 -52,33 -16,12 -31,25 -45,39 -28,27 -53,56 -76,87 -23,32 -43,65 -60,101 -8,18 -16,37 -22,57 -2,11 -5,22 -6,34l0 8c0,4 0,7 0,10 1,6 0,13 2,19 4,26 19,51 39,68 19,17 44,28 69,31 6,1 12,1 18,1 6,0 12,0 18,-1 11,-1 23,-3 34,-7 5,-1 11,-3 16,-5l15 -7c10,-5 19,-11 28,-17 35,-24 62,-55 86,-87l-64 -35c-4,8 -5,14 -7,21 -2,7 -4,13 -5,20 -3,13 -4,27 -5,40 -2,28 0,56 6,83 2,14 8,28 13,41 3,6 7,12 11,18 3,7 8,12 13,17 18,22 43,37 72,41 7,1 14,-5 15,-12 1,-2 1,-4 0,-5l0 -3c-4,-14 -9,-24 -13,-34 -4,-11 -10,-19 -13,-29 -9,-17 -17,-35 -23,-53 -6,-19 -9,-39 -7,-59 0,-10 1,-21 4,-31 1,-5 2,-10 3,-14 1,-5 3,-11 4,-13l0 -1c7,-19 -2,-40 -22,-47 -15,-6 -33,-1 -42,12 -20,27 -42,52 -68,69 -25,17 -53,27 -77,23 -12,-1 -22,-6 -30,-13 -8,-7 -14,-15 -15,-26 -1,-2 -1,-5 -1,-8l0 -4 0 -5c1,-6 2,-13 4,-21 4,-14 10,-30 17,-45 29,-61 72,-118 121,-166 24,-24 51,-45 79,-60 13,-7 27,-12 39,-13 13,-2 22,0 30,5l-5 -4c5,5 12,11 18,17 6,6 12,13 18,19 12,13 24,27 35,40 22,28 41,58 58,88 34,62 57,129 63,197 6,69 -4,139 -32,202 -13,32 -29,61 -47,90 -18,28 -37,55 -57,90l0 0c-3,6 -1,15 5,18 3,2 7,2 10,2z"/>
  <path class="fil2" d="M263 2730c4,10 7,17 11,26 4,8 8,15 12,23 4,8 9,15 14,23 5,7 10,14 15,21l16 21 18 19c12,13 25,25 39,36 13,11 28,21 42,30 16,9 31,18 47,24 31,15 67,22 102,16 2,-1 3,-2 3,-4 0,-1 -1,-2 -1,-2l-1 0c-27,-24 -53,-38 -79,-55 -13,-8 -24,-18 -37,-27 -11,-10 -22,-19 -33,-31 -5,-5 -10,-10 -15,-16 -5,-6 -10,-11 -14,-17l-14 -18 -13 -18c-8,-13 -16,-26 -23,-39 -4,-6 -7,-13 -10,-19 -4,-7 -7,-14 -9,-19l-1 -2c-9,-19 -30,-27 -49,-19 -18,8 -27,28 -20,47z"/>
  <path class="fil2" d="M873 3647c68,0 301,-19 376,-260 107,-348 -50,-605 -57,-615 -8,-13 -26,-17 -39,-9 -12,8 -16,25 -8,38 2,3 150,247 51,569 -74,240 -327,222 -338,221 -15,-1 -28,10 -30,25 -1,15 10,29 25,30 1,0 8,1 20,1z"/>
  <path class="fil2" d="M3533 3724c2,0 5,0 7,-1 282,-77 353,-306 356,-315 4,-15 -4,-30 -19,-35 -14,-4 -30,4 -34,19 -3,9 -66,209 -317,278 -15,4 -24,19 -20,34 3,12 15,20 27,20z"/>
  <path class="fil11" d="M4768 1734c7,0 15,-2 22,-6l273 -160c16,-9 33,-13 51,-13 9,0 17,1 25,3 54,14 109,22 164,22l6 0c354,0 647,-288 653,-642 2,-176 -64,-343 -188,-468 -124,-126 -289,-195 -465,-195 -4,0 -9,0 -13,0 -356,7 -643,302 -640,658 1,159 61,313 168,432 30,33 35,82 12,121l-106 183c-10,17 -7,38 7,53 8,8 19,12 31,12z"/>
  <path class="fil2" d="M5309 231l0 0c188,0 364,74 496,208 132,134 203,312 200,500 -6,378 -318,685 -696,685l-6 0c-59,-1 -118,-9 -175,-24 -4,-1 -9,-2 -14,-2 -10,0 -20,3 -29,8l-273 160c-14,8 -29,12 -44,12 -23,0 -45,-9 -62,-26 -28,-28 -34,-71 -14,-105l107 -183c13,-22 10,-51 -7,-70 -115,-127 -178,-290 -180,-461 -2,-380 304,-694 683,-702 5,0 9,0 14,0zm0 87c-4,0 -8,0 -12,0 -332,7 -600,282 -597,614 1,155 60,296 157,403 43,48 49,118 17,174l-106 182 273 -160c23,-13 48,-20 73,-20 12,0 25,2 37,5 49,13 100,20 153,21 1,0 3,0 5,0 330,0 604,-269 609,-600 5,-341 -269,-619 -609,-619z"/>
  <path class="fil12" d="M5826 1238c5,-4 9,-9 14,-14 48,-85 76,-183 78,-287 1,-87 -16,-170 -47,-245 -91,-216 -303,-369 -551,-374 -3,0 -7,0 -11,0 -1,0 -2,0 -4,0 -3,0 -5,0 -8,0 -23,1 -45,3 -67,5l0 0c-1,1 -1,1 -1,1 0,0 0,0 0,0 0,0 -1,0 -1,0 0,0 0,0 0,0 0,0 -1,0 -1,0 0,0 0,0 -1,0l0 0c-137,19 -260,84 -352,178 -6,11 -12,23 -18,34 107,-102 251,-166 409,-170 4,0 8,0 12,0 340,0 614,278 609,619 -1,91 -23,177 -60,253z"/>
  <path class="fil13" d="M5871 692c-91,-216 -303,-369 -551,-374 248,5 460,158 551,374zm-645 -368l0 0c0,0 0,0 0,0zm1 0c0,0 1,0 1,0 0,0 -1,0 -1,0zm1 0c0,0 1,0 1,0 0,0 -1,0 -1,0zm1 0c0,0 0,0 1,-1 -1,1 -1,1 -1,1zm1 -1c22,-2 44,-4 67,-5 3,0 5,0 8,0 -3,0 -5,0 -8,0 -23,1 -45,3 -67,5z"/>
  <path class="fil14" d="M4768 1691l101 -59 172 -101c23,-13 48,-20 73,-20 12,0 25,2 37,5 0,0 0,0 0,0 0,0 0,0 1,0 24,7 48,12 73,15 0,0 0,0 0,0 1,0 1,0 1,0 0,0 0,0 0,0 0,0 0,0 0,0 1,0 1,0 1,0 0,0 0,0 0,0 25,4 51,5 77,6 1,0 3,0 5,0 67,0 131,-11 191,-31 0,-1 1,-1 1,-1 0,0 0,0 0,0 0,0 0,0 0,0 1,0 1,0 1,0 0,0 0,0 0,0 1,0 1,0 1,0 144,-49 264,-150 338,-281 -1,0 -1,0 -1,0 -12,22 -26,43 -41,63 10,-16 19,-32 27,-49 -110,106 -259,171 -421,171 -2,0 -4,0 -5,0 -53,-1 -104,-8 -153,-21 -5,-1 -13,-2 -23,-3 -90,-6 -172,-55 -227,-127 -14,-18 -29,-34 -44,-51 -97,-106 -156,-248 -157,-403 -1,-95 21,-187 60,-268 -25,25 -49,51 -69,80l0 0c24,-41 54,-80 87,-114 0,0 0,0 0,0 -109,111 -176,264 -174,430 1,154 59,294 154,400l0 0c0,1 0,1 0,1 0,0 0,0 0,0 1,0 1,0 1,1 0,0 1,1 2,1 25,28 38,64 37,100 0,25 -6,50 -19,72l-29 50 -78 134z"/>
  <path class="fil15" d="M4768 1691l0 0 78 -134 -78 134zm101 -59l172 -101c23,-13 48,-20 73,-20 12,0 25,2 37,5 0,0 0,0 0,0 -12,-3 -25,-5 -37,-5 -25,0 -50,7 -73,20l-172 101zm440 -95c67,0 131,-11 191,-31 -60,20 -124,31 -191,31 -2,0 -4,0 -5,0 -26,-1 -52,-2 -77,-6 25,4 51,5 77,6 1,0 3,0 5,0zm-82 -6c0,0 0,0 -1,0 1,0 1,0 1,0zm-1 0c0,0 0,0 0,0 0,0 0,0 0,0zm-1 0c0,0 0,0 0,0 0,0 0,0 0,0zm276 -26c0,0 0,0 0,0 0,0 0,0 0,0zm0 0c1,0 1,0 1,0 0,0 0,0 -1,0zm1 0c1,0 1,0 1,0 0,0 0,0 -1,0zm-608 -70c1,-36 -12,-72 -37,-100 -1,0 -2,-1 -2,-1 0,0 0,0 0,0 26,28 39,64 39,101zm-40 -102c0,0 0,0 0,0 0,0 0,0 0,0zm0 -1l0 0 0 0z"/>
  <path class="fil16" d="M5799 1287c15,-20 29,-41 41,-63 -5,5 -9,10 -14,14 -8,17 -17,33 -27,49zm-1012 -671c20,-29 44,-55 69,-80 6,-11 12,-23 18,-34 -33,34 -63,73 -87,114z"/>
  <path class="fil1" d="M5087 724l0 0c62,-62 163,-51 225,11l10 10 9 -10c63,-62 164,-73 226,-11 62,62 62,163 0,225l-10 10 -195 196c-17,16 -43,16 -60,0l-196 -196 -9 -10c-62,-62 -62,-163 0,-225z"/>
  <path class="fil17" d="M5109 887c11,0 22,-25 39,-48 19,-26 38,-41 27,-49 -4,-3 -11,-4 -19,-4 -16,0 -36,6 -49,24 -19,26 -13,68 -2,76 2,1 3,1 4,1z"/>
  <path class="fil17" d="M5208 774c2,0 4,0 7,-1 7,-3 12,-10 11,-18 -1,-6 -7,-10 -14,-10 -2,0 -5,1 -8,2 -10,4 -14,14 -10,21 3,4 9,6 14,6z"/>
 </g>
</svg>
