<?xml version="1.0" encoding="UTF-8"?>
<!DOCTYPE svg PUBLIC "-//W3C//DTD SVG 1.1//EN" "http://www.w3.org/Graphics/SVG/1.1/DTD/svg11.dtd">
<!-- Creator: CorelDRAW X7 -->
<svg xmlns="http://www.w3.org/2000/svg" xml:space="preserve" width="162.114mm" height="142.56mm" version="1.1" style="shape-rendering:geometricPrecision; text-rendering:geometricPrecision; image-rendering:optimizeQuality; fill-rule:evenodd; clip-rule:evenodd"
viewBox="0 0 112225 100175"
 xmlns:xlink="http://www.w3.org/1999/xlink">
 <defs>
  <style type="text/css">
   <![CDATA[
    .fil12 {fill:black}
    .fil0 {fill:#02A9FD}
    .fil14 {fill:#1176BB}
    .fil2 {fill:#1A1A1A}
    .fil10 {fill:#5C0502}
    .fil26 {fill:#999999}
    .fil23 {fill:#9ADDFF}
    .fil13 {fill:#AD1B2F}
    .fil11 {fill:#CBC3CF}
    .fil4 {fill:#E78C12}
    .fil1 {fill:#EA1C24}
    .fil24 {fill:#F68A8E}
    .fil3 {fill:white}
    .fil19 {fill:#411535;fill-rule:nonzero}
    .fil15 {fill:#9578C0;fill-rule:nonzero}
    .fil22 {fill:#A89AAE;fill-rule:nonzero}
    .fil16 {fill:#C46A0E;fill-rule:nonzero}
    .fil5 {fill:#E78C12;fill-rule:nonzero}
    .fil25 {fill:#F05E64;fill-rule:nonzero}
    .fil20 {fill:#F4CC97;fill-rule:nonzero}
    .fil17 {fill:url(#id0)}
    .fil9 {fill:url(#id1)}
    .fil18 {fill:url(#id2)}
    .fil8 {fill:url(#id3)}
    .fil6 {fill:url(#id4)}
    .fil21 {fill:url(#id5)}
    .fil7 {fill:url(#id6)}
   ]]>
  </style>
  <linearGradient id="id0" gradientUnits="userSpaceOnUse" x1="5671.5" y1="85950.4" x2="25255.1" y2="84827.2">
   <stop offset="0" style="stop-opacity:1; stop-color:#B62F24"/>
   <stop offset="1" style="stop-opacity:1; stop-color:#C36311"/>
  </linearGradient>
  <linearGradient id="id1" gradientUnits="userSpaceOnUse" x1="13184.4" y1="85854.9" x2="24857.6" y2="84025.7">
   <stop offset="0" style="stop-opacity:1; stop-color:#FCFE01"/>
   <stop offset="1" style="stop-opacity:1; stop-color:#EA9A10"/>
  </linearGradient>
  <linearGradient id="id2" gradientUnits="userSpaceOnUse" x1="13288.7" y1="85854.9" x2="24866.3" y2="84025.7">
   <stop offset="0" style="stop-opacity:1; stop-color:#D4C001"/>
   <stop offset="1" style="stop-opacity:1; stop-color:#C6750C"/>
  </linearGradient>
  <linearGradient id="id3" gradientUnits="userSpaceOnUse" x1="5675.81" y1="85766.6" x2="25254.9" y2="84686.5">
   <stop offset="0" style="stop-opacity:1; stop-color:#D43D30"/>
   <stop offset="1" style="stop-opacity:1; stop-color:#E58216"/>
  </linearGradient>
  <linearGradient id="id4" gradientUnits="userSpaceOnUse" x1="5673.78" y1="85950" x2="25255.2" y2="84826.9">
   <stop offset="0" style="stop-opacity:1; stop-color:#D43D30"/>
   <stop offset="1" style="stop-opacity:1; stop-color:#AE93E5"/>
  </linearGradient>
  <linearGradient id="id5" gradientUnits="userSpaceOnUse" x1="5671.5" y1="85950.4" x2="25255" y2="84827.2">
   <stop offset="0" style="stop-opacity:1; stop-color:#ECAAA4"/>
   <stop offset="1" style="stop-opacity:1; stop-color:#F4C899"/>
  </linearGradient>
  <linearGradient id="id6" gradientUnits="userSpaceOnUse" xlink:href="#id3" x1="5671.5" y1="85950.4" x2="25255" y2="84827.2">
  </linearGradient>
 </defs>
 <g id="Layer_x0020_1">
  <metadata id="CorelCorpID_0Corel-Layer"/>
  <g id="_2526354620016">
   <path class="fil0" d="M36154 80823c-3187,274 -6323,860 -9287,1838 -2334,770 -4556,1781 -6647,3077 4320,247 11589,298 16042,-440 2024,-336 3853,-683 3949,-2438 127,-2304 -2798,-2145 -4057,-2037z"/>
   <path class="fil1" d="M35883 90912c75,4698 -4087,6194 -8394,6500 6603,1707 15518,2884 17348,-4144 -2928,-640 -5914,-1426 -8954,-2356z"/>
   <path class="fil1" d="M61960 82487c5511,5665 15256,1787 15256,-6202 0,-8053 -9882,-11902 -15357,-6093 171,308 1351,1064 1781,1446 1228,-1239 2910,-1957 4689,-1957 5867,0 8821,7125 4671,11275 -2278,2277 -5853,2576 -8477,726 -813,444 -1584,652 -2563,805z"/>
   <path class="fil1" d="M89786 60571c-5616,7718 -3889,18517 3833,24119l90 77c4612,-3232 8777,-7343 12445,-12358 372,-507 529,-1894 138,-2347 -4155,-4816 -9590,-7976 -16420,-9645l-86 154z"/>
   <path class="fil1" d="M69581 36351c1104,-101 2224,129 3176,636l-282 -1389c-1002,76 -2008,177 -3005,296l111 457z"/>
   <path class="fil0" d="M72241 48010c401,1462 813,902 1314,627 1260,-692 1385,-1824 1037,-3127l-2351 2500z"/>
   <path class="fil1" d="M79016 25432c-37,2952 437,4835 2330,7375 384,-1270 1383,-2246 2609,-2996 -1076,-1324 -1210,-2568 -985,-3839l-3954 -540z"/>
   <path class="fil1" d="M85647 30567c-1149,550 -1968,1157 -2456,1819 -410,555 -583,1164 -521,1826l1169 773c895,445 1819,581 2682,331 4438,-1355 4188,-10725 -490,-14573 -3257,-2679 -6210,-596 -6872,3197 1718,535 3468,681 5272,461 1377,-361 2585,914 3004,2262 480,1553 52,3491 -1314,3822l-474 82z"/>
   <path class="fil1" d="M30138 73331l4343 -3541 1487 -1037c-4009,-1726 -10876,1807 -15197,4392 2891,-826 7621,-1919 9367,186z"/>
   <path class="fil2" d="M52756 39544c2887,371 7403,20 11784,-1251 803,-796 1629,-2042 2247,-2984l301 -1020c-1648,-1747 -2104,-4156 -280,-5860l3201 -2440c0,-4190 -1996,-8157 -5000,-11162 -3707,-3706 -10881,-1109 -14496,1662 -3181,2534 -6048,7179 -6775,11461 3064,606 5453,4784 3987,7835 1374,1682 2432,3426 5031,3759zm12789 41424c3557,2094 8166,-455 8166,-4683 0,-4816 -5893,-7271 -9294,-3803 1931,2306 3390,5941 1128,8486z"/>
   <path class="fil3" d="M40445 28804c1044,-10125 6914,-16087 16601,-17628 -11758,-2613 -21907,8588 -18201,20010l1602 -2214c-7,-54 -8,-111 -2,-168zm28806 5632c3655,-436 7771,-680 11380,-174 -2345,-2702 -3607,-7441 -2844,-10986 -3218,2296 -6047,3612 -9582,5261 -1088,429 -1537,1018 -1564,2299 -33,1538 961,3797 2610,3600zm-1836 16967c623,1672 1039,3389 1103,5104 1327,263 2453,66 3374,-593 1096,-782 1959,-2225 2587,-4328 240,-796 1416,-363 2663,-2141 1516,-2163 841,-5150 -1433,-6459 -44,257 -106,512 -186,762 17,327 2234,4108 -1228,6162 -1493,937 -2601,625 -3250,-882l-3630 2375zm-11260 8145c-409,-2008 -673,-4104 -537,-5983l-1103 -250c-514,-106 -1005,-224 -1474,-352l-27 617c2232,-305 3445,2573 1641,3947l-748 424 1792 1678 456 -81zm920 -5730c-309,1727 -106,3455 471,5181 3335,-278 6575,-1007 9505,-2370 -114,-1586 -431,-3109 -962,-4565 -3004,1397 -5517,2241 -9014,1754zm-8146 13435c2043,-2477 4513,-4457 7385,-4767 -719,-1800 -2241,-2925 -3951,-3891 -3249,1111 -7568,1285 -11110,695 426,1407 980,2605 1661,3598 2193,3192 3656,2419 6015,4365zm-13104 -12869c-629,3527 12340,5376 17958,1958 699,-496 -56,-1721 -871,-1189l-538 240c-5774,2339 -14759,-1254 -15471,-1859 -496,-306 -959,190 -1078,850zm5483 -511c3390,1194 6883,1520 10163,295l102 -1668c-1559,-811 -3503,-2176 -4690,-3248 1690,671 3187,1221 4492,1651 3068,918 7074,2196 10217,1279 4642,-1355 8435,-3646 11485,-7167l41 -46c2849,-2909 297,-7816 -3748,-7103 -3039,534 -2685,2478 -3677,4021 -2427,3104 -8335,4109 -13660,418l-1494 399c-2054,-390 -3337,839 -4526,3078 374,-1599 1024,-2712 1951,-3342 -829,-294 -1629,-650 -2394,-1063 -2461,3817 -4076,7999 -4262,12496zm715 -9055c628,-1404 1388,-2803 2283,-4196 -286,-188 -566,-384 -841,-589l-4718 817c1512,822 2697,2295 3276,3968zm-1107 17577c-522,-1012 -950,-2160 -1285,-3442 -2347,-594 -5753,-2037 -5255,-4827 80,-1235 1608,-2748 3100,-1957 812,432 1609,813 2390,1144 120,-1900 479,-3791 1078,-5674 283,-4210 -4129,-7710 -6831,-5063 -4078,3998 -4383,12103 -3421,18480 840,5565 6593,3801 10224,1339zm37774 13890c0,7765 -8231,12737 -15082,9223 -1352,-694 -2531,-1676 -3456,-2864 -2856,45 -5177,-923 -6867,-2257 -1868,-1475 -3181,-3614 -3235,-5430 -233,-7719 -2682,-7500 -6407,-8917 -2112,1047 -4323,1791 -6097,2919 -3686,3088 -9356,6917 -10085,11870l-14 107c3543,-1030 7033,-1564 10795,-1720 1896,237 3080,1124 3411,3070 447,2987 -2361,4049 -5155,4464l-6388 560c1554,929 8742,2928 10545,3388 17641,4500 35997,5255 51768,-5061 -7979,-6047 -9784,-17331 -4082,-25565 -8558,-1768 -19049,-1299 -31117,780 3763,3100 4161,5708 4329,7598 6648,-5759 17137,-1062 17137,7835zm-13372 1165c-547,-5103 -4993,-4160 -5365,-8564 -103,-1236 -86,-2885 -1617,-4837 -1398,-293 -2788,-89 -4169,610 -1407,713 -2813,1937 -4219,3671 1107,1529 1486,3663 1571,6586 37,1300 1251,3317 2677,4319 5468,3406 11479,1540 11122,-1785zm-16241 -36242c-1571,-799 -2982,-1935 -4280,-3397l-1556 137c1632,1470 3574,2599 5717,3277l119 -17zm-8825 -7662c-84,1909 2405,3724 4311,2055l-4311 -2055zm479 -1404l4621 2202c254,-916 -13,-1880 -666,-2535 -1134,-1133 -3017,-982 -3955,333zm4997 -1375c908,908 1355,2211 1140,3535 564,-1343 251,-2886 -765,-3905 -1014,-1012 -2546,-1327 -3888,-774 1319,-206 2608,242 3513,1144zm-2794 -2847c1304,-8253 7968,-14561 16141,-15520 -9630,929 -15763,5987 -17070,15731 299,-99 610,-169 929,-211z"/>
   <path class="fil4" d="M26147 79891c148,-601 356,-1140 626,-1971 -7633,-2112 -17436,4466 -24345,10137 2416,481 4789,1243 6839,2520 6481,4038 14845,3375 20432,-1813 -1169,-865 -2055,-1892 -2659,-3079 37,73 75,144 113,214 -2554,18 -5030,-52 -6933,-161 1884,-1169 3875,-2104 5957,-2841l30 193c-160,-986 -180,-2053 -60,-3199zm808 5621c-35,-73 -69,-146 -102,-220 33,74 67,147 102,220z"/>
   <path class="fil5" d="M23703 77516l-8 0 -1 0 0 0 0 0 -1 0 0 0 0 0 -1 0 0 0 0 0 -1 0 0 0 0 0 -1 0 0 0 0 0 -1 0 0 0 0 0 -1 0 0 0 0 0 -1 0 0 0 0 0 -1 0 0 0 -1 0 1 0 0 0 1 0 0 0 1 0 0 0 1 0 0 0 1 0 0 0 1 0 0 0 0 0 1 0 0 0 1 0 0 0 1 0 0 0 1 0 0 0 1 0 0 0 1 0 0 0 1 0 0 0 1 0 0 0 0 0 1 0 0 0 1 0 0 0 1 0 0 0 1 0 0 0zm-18 0l0 0 0 0 -1 0 0 0 0 0 -1 0 0 0 0 0 -1 0 0 0 0 0 -1 0 0 0 0 0 -1 0 0 0 0 0 -1 0 0 0 0 0 -1 0 0 0 0 0 -1 0 0 0 0 0 -1 0 0 0 0 0 -1 0 0 0 0 0 -1 0 0 0 0 0 -1 0 0 0 0 0 1 0 0 0 1 0 0 0 1 0 0 0 1 0 0 0 1 0 0 0 0 0 1 0 0 0 1 0 0 0 1 0 0 0 1 0 0 0 1 0 0 0 1 0 0 0 1 0 0 0 0 0zm-12 0l-1 0 0 0 0 0 -1 0 0 0 0 0 0 0 0 0 1 0 0 0 0 0 0 0 0 0 0 0 0 0 0 0 0 0 1 0 0 0 0 0 0 0 0 0zm-2 0l0 0 -1 0 0 0 0 0 -1 0 0 0 0 0 -1 0 0 0 0 0 -1 0 0 0 0 0 -1 0 0 0 0 0 -1 0 1 0 0 0 0 0 1 0 0 0 1 0 0 0 1 0 0 0 0 0 0 0 1 0 0 0 0 0 0 0 0 0 0 0 0 0 0 0 1 0 0 0 0 0 0 0 0 0 0 0zm-6 0l0 0 0 0 -1 0 0 0 0 0 -1 0 0 0 0 0 -1 0 0 0 0 0 -1 0 0 0 0 0 1 0 0 0 0 0 1 0 0 0 1 0 0 0 0 0 1 0 0 0zm-4 0l-1 0 0 0 0 0 0 0 -1 0 0 0 -1 0 0 0 0 0 -1 0 0 0 0 0 -1 0 0 0 0 0 -1 0 0 0 0 0 -1 0 0 0 0 0 -1 0 0 0 0 0 -1 0 0 0 0 0 0 0 -1 0 -7 0 0 0 0 0 1 0 0 0 1 0 0 0 0 0 1 0 0 0 1 0 0 0 0 0 1 0 0 0 1 0 0 0 0 0 1 0 0 0 1 0 0 0 0 0 1 0 0 0 1 0 0 0 0 0 1 0 0 0 1 0 0 0 0 0 1 0 0 0 1 0 0 0 0 0 1 0 0 0 1 0 0 0 0 0 1 0z"/>
   <path class="fil6" d="M26552 78581c69,-201 142,-419 221,-661l0 0 -8 24c-75,233 -146,442 -213,637z"/>
   <path class="fil7" d="M18396 93192l0 0c253,0 507,-6 760,-18 -253,12 -506,18 -760,18zm764 -18c1,0 3,0 5,-1 -2,1 -4,1 -5,1zm-1618 -1280c-529,0 -1064,-55 -1589,-185 -5496,-1355 -9091,-3664 -13040,-3664 -161,0 -323,4 -485,12l0 0c471,-387 956,-778 1453,-1171 -268,212 -533,423 -793,633 8233,-5952 16128,-9152 23685,-9599 -79,242 -152,460 -221,661 -123,365 -229,677 -319,988 -440,-26 -877,-40 -1312,-40 -6176,0 -11879,2733 -17110,8197 4059,1977 7918,2966 11578,2966 1086,0 2154,-87 3205,-261 -665,468 -2798,1463 -5052,1463zm-13659 -5009c4,-3 8,-7 12,-10 -4,3 -8,7 -12,10zm22890 -8965c-993,-274 -2023,-402 -3078,-404l8 0c1043,2 2062,128 3044,397 9,2 17,5 26,7l0 0zm-4456 -338l0 0 0 0zm21 -2l0 0c0,0 0,0 0,0zm19 -2c2,0 2,0 3,0 -1,0 -1,0 -3,0zm20 -1c2,0 3,-1 5,-1 -2,0 -3,1 -5,1zm21 -2c2,0 3,0 5,-1 -2,0 -4,1 -5,1zm20 -2c2,0 4,0 6,-1 -2,1 -4,1 -6,1zm20 -2c2,0 4,0 7,0 -2,0 -5,0 -7,0zm19 -1c3,-1 6,-1 9,-1 -3,0 -6,0 -9,1zm19 -2c4,0 7,-1 11,-1 -3,0 -7,1 -11,1zm19 -2c5,0 9,-1 13,-1 -4,0 -9,1 -13,1zm16 -1c381,-32 758,-48 1133,-49l7 0c-377,1 -757,17 -1140,49z"/>
   <path class="fil8" d="M24792 81163l-191 0c27,0 53,0 79,0l5 0 24 0 5 0c26,0 52,0 78,0z"/>
   <path class="fil9" d="M15628 87797c-1161,-326 -2332,-688 -3523,-993 399,-269 822,-584 1229,-944 1541,-1366 7137,-4647 11267,-4697l191 0c396,5 778,41 1139,113l0 1 -10 149 0 0c-3302,319 -10379,3459 -10293,6371l0 0m9740 -448l-838 -36 840 36 -2 0 0 0zm-7417 -317l-2 0 0 0 0 0 -12 -3c-175,-42 -309,-97 -407,-164 1,1 2,2 3,2 97,65 230,120 404,162l10 2c1,1 1,1 2,1l0 0 0 0c0,0 1,0 2,0z"/>
   <path class="fil10" d="M70239 22390c-465,313 -903,625 -1314,937 197,993 298,2014 301,3047l0 104 -11 5 0 1c-856,391 -2281,928 -2771,1346l-12 9 -10 9 -9 8 -12 11 -7 5 -14 12 -4 4 -17 15 -1 2 -19 17 -21 19 -16 14 -4 4 -14 14 -5 5 -12 12 -8 8 -10 9 -10 10 -8 7 -11 13 -6 4 -14 16 -3 3 -16 16 -1 2 -17 18 -1 0 -16 18 -2 2 -14 16 -5 4 -12 14 -6 7 -11 12 -8 8 -7 10 -10 11 -18 21 0 0 -4 5 -13 16 -4 3 -14 19 -1 1 -15 18 -1 2 -15 18 -2 3 -13 17 -4 5 -10 14 -7 8 -8 12 -8 10 -7 8 -10 14 -5 7 -10 15 -5 5 -12 18 -1 2 -15 19c-458,659 -679,1488 -696,2349 -31,1439 486,2970 1487,4032l20 21 21 21 -109 165c334,330 702,658 1107,985 73,-107 147,-214 217,-323 13,5 25,10 38,15l66 326c490,30 994,66 1514,109l-64 -264c997,-119 2003,-220 3005,-296l179 883c515,63 1042,130 1581,204l-281 -1179c965,-48 1920,-68 2851,-53 2349,38 4565,295 6448,882 1196,579 2462,744 3677,393l107 -34c1783,-553 3077,-2150 3705,-4230 2065,-6834 -3319,-15917 -9051,-14181 -923,287 -8066,6051 -11000,7498l-2 -42c-29,-1128 -184,-2251 -450,-3349zm-2034 6147c-321,127 -655,267 -906,504l-1 2c-35,34 -69,69 -101,106l-4 5 -6 6 -37 45 -6 8 -3 4 -9 11 -27 36 -8 11 -1 1 -8 12 -9 12 -4 6 -9 14 -13 17 0 2 -13 20c-235,365 -361,823 -392,1315l-2 27 0 3 -1 24 -2 28 -1 26 0 10 -1 17 0 27c-13,617 117,1269 362,1856 251,599 622,1118 1079,1436l6 4 6 5 3 2 3 3 6 4c340,227 725,341 1145,290 1247,-149 2514,-271 3776,-352 2455,-166 5223,-156 7604,178 -2345,-2702 -3607,-7441 -2844,-10986 -3218,2296 -6047,3612 -9582,5261zm13141 4270c-1893,-2540 -2367,-4423 -2330,-7375l3954 540c-225,1271 -91,2515 985,3839 -1226,750 -2225,1726 -2609,2996zm3103 -4989c-202,-667 -239,-1772 369,-1998 480,-101 1025,689 1212,1270l25 85c191,661 138,1725 -354,1901 -519,157 -1075,-698 -1252,-1258zm2986 -1155c-419,-1348 -1627,-2623 -3004,-2262 -1804,220 -3554,74 -5272,-461 331,-1896 1283,-3715 2957,-4249 1303,-393 2647,9 3915,1052 4678,3848 4928,13218 490,14573 -863,250 -1787,114 -2682,-331l-1169 -773c-62,-662 111,-1271 521,-1826 488,-662 1307,-1269 2456,-1819l474 -82c1438,-455 1760,-2282 1345,-3718l-31 -104z"/>
   <path class="fil11" d="M31337 87864c24471,8137 44577,7189 60319,-2842 -1345,-1133 -2494,-2423 -3439,-3823 -3767,1682 -7664,3065 -11692,4153 1060,-997 1920,-2222 2497,-3619 1544,-3737 792,-8028 -1931,-11018 2506,4650 1142,10439 -3176,13480 -4319,3042 -10229,2375 -13763,-1551 -2856,45 -5177,-923 -6867,-2257 -1868,-1475 -3181,-3614 -3235,-5430 -233,-7719 -2740,-6544 -6407,-8917 -369,183 -737,362 -1101,541 -1717,842 -3355,1661 -4727,2721 3257,-1559 5243,-2086 5960,-1582 765,588 1724,1209 2820,1955 1085,738 1294,2798 1699,5710 600,4309 3849,7105 9049,8241 1429,313 2713,447 3821,573 1188,1511 2762,2653 4534,3320 -8441,1132 -17381,1089 -26836,-122 572,-205 1084,-447 1538,-726 782,-481 1388,-1072 1817,-1774 509,-1138 176,-2526 -998,-4162 256,418 409,929 434,1551 28,190 44,373 46,548 80,2533 -1927,3295 -4250,3747 -314,66 -633,121 -951,169l-1342 118 -5046 442c264,158 691,347 1227,554zm54821 -59890c3,-279 -34,-565 -103,-799 -187,-637 -776,-1489 -1237,-1355 -119,44 -213,123 -286,224l-8 12 -6 8 -11 16 -2 4 -14 21 0 1 -12 21 -3 7 -9 15 -6 12 -5 12 -8 16 -3 6 -10 24 0 0 -10 24 -2 6 -7 18 -5 13 -5 12 -6 19 -2 6 -7 26 -9 26 -1 6 -5 20 -4 13 -3 14 -4 19 -2 9 -6 26 0 1 -5 27 -1 7 -4 22 -3 12 -2 17 -3 19 -1 8 -4 28 0 2 -3 29 -1 5 -2 24 -1 12 -2 17 -2 21 0 9 -2 28 0 2 -2 30 0 4 -1 27 0 12 0 17 -1 21 0 10 0 27 0 3 0 31 0 4 1 26 0 12 0 19 1 19 0 11 2 27 0 4 1 31 1 4 2 26 1 12 1 19 2 18 0 12 3 26 0 5 4 31 0 2 3 27 2 11 2 20 2 17 2 12 4 25 0 6 5 29 0 2 5 28 1 9 4 20 2 16 3 14 4 22 1 6 6 29 0 0 6 28 1 9 5 19 3 15 3 13 5 21 1 7 7 27 7 27 2 7 5 19 4 13 3 13 6 20 2 6 7 25c177,560 733,1415 1252,1258l15 -6 7 -3 7 -3 14 -6 1 -1 13 -6 8 -5 6 -3 12 -8 3 -1 12 -7 8 -8 5 -2 12 -9 3 -3 10 -8 9 -9 2 -2 13 -10 4 -5 7 -6 11 -12 0 0 12 -13 5 -6 6 -6 9 -14 2 0 9 -14 6 -8 4 -5 10 -15 2 -2 8 -13 7 -10 2 -4 10 -16 2 -5 7 -11 6 -12 2 -5 9 -15 3 -7 5 -10 7 -16 1 -2 8 -17 3 -8 4 -10 7 -18 8 -19 3 -10 3 -8 6 -19 1 -3 6 -16 4 -13 2 -8 6 -19 1 -4 5 -16 5 -15 0 -5 6 -20 1 -7 3 -15 4 -18 2 -3 4 -20 2 -9 2 -13 4 -20 0 -1 4 -22 2 -11 2 -11 4 -22 0 -2 3 -21 2 -13 1 -9 3 -22 0 -4 3 -19 1 -16 1 -7 2 -22 1 -7 2 -17 2 -19 0 -4 1 -23 1 -8 1 -15 1 -22 0 -2 2 -23 0 -12 0 -12 0 -24 1 -23 1 -14 0 -10zm-27561 12255c-174,21 -348,40 -521,56l-261 25 -260 22 -260 19c-174,11 -347,21 -519,30l-259 10 -258 8 -258 4 0 1 -257 1 -256 -2 0 0 -255 -5 -254 -8 -254 -12 -252 -16 -1 0 -250 -18 -250 -23 -249 -26 -247 -31 -246 -33 -244 -39 -243 -41 -241 -46 -240 -51 -237 -54 0 0 -236 -58 -234 -63 -232 -68 -229 -72 -228 -76 -225 -82 -1 0 -223 -85 -220 -91c-73,-31 -147,-63 -219,-96l-215 -100 0 -1c-72,-34 -142,-69 -213,-105l-1 0 -210 -110 0 -1 -208 -115 -205 -122 -202 -125 0 -2c-67,-42 -133,-85 -199,-131l-196 -137c-65,-47 -130,-94 -193,-144 -64,-47 -127,-97 -190,-147 -63,-51 -125,-102 -187,-154l-183 -161c-61,-54 -121,-109 -180,-165 -59,-57 -118,-113 -177,-172 -58,-57 -116,-117 -173,-177 -57,-60 -113,-121 -169,-184 -56,-62 -111,-126 -165,-189 -153,121 -313,233 -479,337 1662,1761 3514,2945 5676,3519l130 34 133 32 136 31 0 0 138 30 0 0 140 27 0 0 142 27 0 0 144 26 0 0 146 24 0 0 147 22 1 0 149 21 1 0 150 20 1 0 152 18 0 0 155 16 0 0 155 16 0 0 157 13 1 0 157 13 159 10 1 0 160 9 1 0 161 7 0 0 163 6 163 5 0 0 164 3 0 0 165 0 165 0 166 -1 166 -4 0 0 167 -5 167 -7 166 -9 1 0 166 -9 1 0 167 -11 0 0 167 -15 0 0 167 -15 0 0 167 -16 0 0 165 -19 2 0 165 -19 0 0 165 -22 1 0 164 -24 1 0 163 -25 1 0 163 -27 1 0 162 -29 1 0 161 -31 1 0 160 -32 1 0 159 -34 1 0 158 -36 1 0 156 -37 2 0 155 -40 0 0 155 -41 1 0 152 -43 1 0 151 -46 1 0 149 -47 1 0 148 -48 1 0 146 -50 1 0 144 -53 0 0 143 -55 1 0 140 -55 1 0 137 -58 1 0 136 -61 1 0 134 -61 0 0 132 -64 0 0 129 -66 0 0 127 -68 1 0 124 -70 122 -71 -256 53 -257 52 -257 50 -257 49 0 1 -259 46 0 0 -259 44 -260 44 -260 40 -259 38 -260 37 -1 0 -260 34 -1 0 -260 32zm-2861 3205c98,35 196,67 293,98l144 45 143 42 0 0 143 39 141 38c93,24 186,45 279,66l138 29 137 26 0 1c91,16 181,32 271,44l1 0 134 19 134 16 133 12 0 1c88,8 176,14 263,19l131 5 0 0 130 3 129 0 129 -3 0 0 128 -5 1 0 128 -7 0 -1 127 -10 127 -13 0 -1 126 -14 0 -1 126 -18 126 -21 1 0 124 -23 0 0 126 -26 0 -1 125 -28 125 -31 124 -34 124 -37 124 -39 125 -41 123 -45 125 -46 0 -1 123 -50 125 -51 0 -1 124 -54 124 -57 124 -61 1 0 124 -62 0 0 125 -65 125 -68 125 -70 126 -73 126 -76 126 -78 127 -81 127 -83 1 0 127 -86 128 -88 0 0 129 -92 129 -93 130 -96 131 -99 131 -101 131 -104 133 -107 133 -109c-328,-192 -718,-433 -1167,-724l-101 63 -100 61 -1 0 -101 61 -102 60 -102 59 -1 0 -102 59 -103 58 -104 57 0 0 -104 56 -104 56 -1 0 -105 55 -105 54 -106 54 -106 53 -106 52 -107 51 -107 51 -1 0 -107 50 -108 49 -108 48 -1 0 -108 48 -109 47 -1 0 -110 47 -109 45 -111 45 -111 43 -110 44 -112 43 -112 41 -111 41 -1 0 -112 40 -112 40 -1 0 -113 38 -1 0 -112 38 -1 0 -113 36 -1 0 -113 36 -115 37 0 0 -114 34 -1 0 -115 34 0 0 -115 33 -116 33 0 0 -116 31 0 0 -116 30 -1 0 -116 30 0 0 -117 29 0 0 -117 28 0 0 -118 28 0 0 -117 25 -1 0 -118 27 0 0 -118 25 0 0 -118 24 -1 0 -118 23 -1 0 -119 22 0 0 -119 22 -1 0 -119 22 0 0 -120 19 -120 19 -1 0 -120 19 0 0 -120 17 -122 16 -121 16 -121 15 -122 14 -122 13 149 55 148 53zm19787 314c15,298 1863,3473 -443,5587 -222,202 -482,395 -785,575 -1493,937 -2601,625 -3250,-882l-3630 2375c107,288 208,576 302,866 1252,-644 2222,-1316 2913,-2018 1191,1045 2432,986 3727,-169 581,-43 373,573 -626,1848 -853,2344 -2598,3730 -5236,4160 9,139 17,278 23,417 1327,263 2453,66 3374,-593 1096,-782 1959,-2225 2587,-4328 167,-553 786,-512 1568,-1036 965,-908 1466,-2205 1363,-3526 -101,-1321 -795,-2526 -1887,-3276zm-9154 9156c-85,-282 -179,-562 -280,-840 -3004,1397 -5517,2241 -9014,1754 -309,1727 -106,3455 471,5181 3335,-278 6575,-1007 9505,-2370 -2647,926 -5156,1311 -7524,1153 -941,167 -1072,-459 -1187,-1137 -26,-109 -43,-212 -52,-309 -55,-596 186,-976 726,-1146 12,-3 23,-4 35,-7 108,-30 229,-53 361,-68 1005,-194 1913,-426 2722,-694 1612,-485 3024,-990 4237,-1517zm-12462 5047l1792 1678 456 -81c-409,-2008 -673,-4104 -537,-5983l-1103 -250c-514,-106 -1005,-224 -1474,-352l-27 617c2232,-305 3445,2573 1641,3947l-748 424zm-1080 -1798c-2993,1229 -7592,1160 -13798,-205 -1533,-458 -2487,-1223 -2864,-2296 -164,172 -286,435 -340,732 -629,3526 12339,5376 17958,1958 463,-329 289,-977 -119,-1223 94,527 -185,871 -837,1034zm16605 -23336c-1293,-126 -1702,-1552 -1227,-4280 -1092,431 -1534,1018 -1564,2299 -15,610 135,1339 426,1981l1 4c464,853 1330,1215 2594,1083 5237,-394 8883,-276 10942,354l27 4c-1676,-1930 -2798,-4901 -3025,-7733 -89,1585 15,2966 311,4145 20,62 36,121 47,179 103,528 -172,848 -825,958 -205,34 -447,48 -727,41 -1717,116 -5916,1068 -6980,965zm-25967 7216c-1262,369 -2319,730 -3174,1085 1014,1073 1731,2053 2012,3092 571,-1200 1238,-2396 2003,-3588 -286,-188 -566,-384 -841,-589zm-4409 -11940c-1,-17 -3,-34 -3,-52 -258,-4341 1261,-8639 4264,-11871 3503,-3768 8602,-5627 13708,-4998 -11748,-2596 -21883,8600 -18180,20014l1602 -2214c-7,-54 -8,-111 -2,-168 30,-290 64,-577 101,-860 -935,808 -1433,858 -1490,149zm3117 -1040c-62,352 -118,711 -168,1078 299,-99 610,-169 929,-211 50,-309 106,-616 169,-919 -308,-40 -618,-23 -930,52zm-1165 5220c232,-486 630,-893 1148,-1130 -551,151 -1060,486 -1425,999l277 131zm2109 3377c-1090,-10 -2029,-765 -2276,-1823l-589 -281c-84,1909 2405,3724 4311,2055l-392 -187c-320,156 -679,241 -1054,236zm5960 5558c-1571,-799 -2982,-1935 -4280,-3397l-1556 137c1632,1470 3574,2599 5717,3277l119 -17zm7523 2488c93,24 186,45 279,66l-279 -66zm-9155 -1760c79,127 142,253 186,382 110,42 222,82 333,122 -90,47 -179,96 -266,150 61,402 -50,810 -332,1226 -871,826 -2685,4072 -3381,6485 -696,2412 505,2129 1491,2603 1992,773 3524,481 3033,-538 -489,-1011 -3663,-3022 -3347,-4341 398,-1664 3134,145 4324,697 14608,6783 28821,-7153 19884,-10856 4045,-713 6597,4194 3748,7103l-41 46c-3050,3521 -6843,5812 -11485,7167 -3143,917 -7149,-361 -10217,-1279 -1305,-430 -2802,-980 -4492,-1651 1187,1072 3131,2437 4690,3248l-102 1668c-3280,1225 -6773,899 -10163,-295 186,-4497 1801,-8679 4262,-12496 511,276 1038,527 1579,750 97,-64 195,-128 296,-191zm-13266 761c4541,334 6290,2941 5247,7825 -305,550 -739,747 -1303,593 -929,-444 -1741,-568 -2435,-372 -288,115 -559,255 -815,417 -1356,865 -2217,2365 -2244,4017 -27,1706 839,3278 2244,4174 655,266 1076,514 1261,743 89,110 124,215 106,317 672,2261 -1012,3038 -5053,2329 1682,3452 6530,1825 9729,-345 -522,-1012 -950,-2160 -1285,-3442 -2347,-594 -5753,-2037 -5255,-4827 80,-1235 1608,-2748 3100,-1957 812,432 1609,813 2390,1144 120,-1900 479,-3791 1078,-5674 283,-4210 -4129,-7710 -6831,-5063 -72,72 -145,146 -216,221 95,-36 189,-68 282,-100zm3631 -106c-63,-31 -128,-60 -194,-86 66,26 131,55 194,86zm8290 19130c-541,-832 -36,-1109 1517,-830 2133,110 3946,-427 5440,-1612l-694 -684c-3167,1084 -7352,1276 -10842,738l0 0c1290,3481 3105,5365 4812,5946 1708,580 2184,964 2902,1611 284,-330 576,-650 875,-957 -1473,-1198 -2809,-2602 -4010,-4212zm18823 14015c-2622,3193 -8997,4450 -9820,-1111 -838,-4248 -2102,-6853 -3792,-7817 -389,390 -779,818 -1169,1286 432,735 716,1544 813,2373l-138 -112c150,644 280,1404 569,2446 437,4406 2647,6404 5737,7222 4546,1204 7832,-180 8195,-2573 11,-435 -289,-1550 -395,-1714zm-2496 -7969c-67,-330 -122,-693 -166,-1089 -204,-1845 -141,-2959 -1575,-4464 -47,-43 -88,-85 -124,-126 -539,-615 175,-718 2021,-1135l7750 -1743c-4126,289 -8503,849 -13109,1642 3763,3100 4161,5708 4329,7598 285,-246 576,-474 874,-683z"/>
   <path class="fil12" d="M59954 68886c371,4404 4817,3461 5364,8564 357,3325 -5654,5191 -11122,1785 -1426,-1002 -2640,-3019 -2677,-4319 -85,-2923 -464,-5057 -1571,-6586 1406,-1734 2812,-2958 4219,-3671 1381,-699 2771,-903 4169,-610 1532,1952 1514,3601 1618,4837zm-19223 -36744l4621 2202c61,-222 94,-455 94,-697 0,-717 -291,-1368 -761,-1837l1 -1c-469,-469 -1120,-760 -1838,-760 -700,0 -1335,276 -1803,725l-34 36c-102,102 -195,213 -280,332zm3832 3459l-4311 -2055c-1,34 -2,67 -2,101 0,332 63,649 176,941 114,184 232,365 353,542 87,109 179,213 276,311l3 3c245,245 526,454 835,619 295,117 618,181 955,181 657,0 1258,-243 1715,-643zm9952 17714l0 0c369,90 737,174 1103,249 -136,1879 128,3976 536,5984l-455 81 -1792 -1678 748 -424c1804,-1374 591,-4252 -1642,-3947l29 -617c468,128 959,245 1473,352zm-3141 -2413c-1304,-429 -2801,-979 -4491,-1650 1187,1072 3131,2437 4690,3248l-102 1669c-3280,1224 -6773,898 -10163,-296 186,-4497 1801,-8679 4262,-12496 765,413 1565,769 2395,1063 -928,630 -1578,1743 -1952,3342 912,-1717 1922,-2743 3030,-3081 489,-91 998,-92 1496,3 461,87 913,256 1333,510 34,27 72,51 112,70 5325,3690 11282,1707 13709,-1397l127 -244c918,-1769 793,-3292 3550,-3777 4044,-713 6597,4194 3748,7103l-41 46c-3050,3521 -6844,5813 -11485,7167 -3143,917 -7148,-361 -10218,-1280zm-5141 -13698c1662,1761 3514,2945 5675,3519 2565,681 7084,533 9423,-796 125,-70 248,-144 372,-218 -3151,670 -5885,857 -8203,559 -2917,-375 -5181,-1509 -6788,-3401 -153,121 -313,233 -479,337zm2844 4004c-1571,-799 -2982,-1935 -4280,-3397 -390,98 -798,149 -1217,149 -114,0 -227,-4 -339,-12 1632,1470 3574,2599 5717,3276l119 -16zm-1352 -5423c1374,1682 3361,2691 5960,3025 2888,372 6523,-77 10905,-1348 803,-796 1493,-1639 2111,-2581l-21 -21 -20 -21c-1001,-1062 -1518,-2593 -1487,-4032 17,-861 238,-1690 696,-2348l14 -20 2 -2 12 -18 5 -4 10 -16 5 -7 10 -14 7 -8 8 -11 8 -11 6 -8 11 -14 5 -5 12 -17 2 -3 15 -18 1 -2 15 -18 1 -1 14 -18 4 -3 12 -17 5 -5 0 0 18 -21 10 -11 7 -10 8 -8 11 -12 6 -7 12 -14 5 -4 14 -16 2 -2 17 -17 0 -1 17 -18 2 -2 15 -16 3 -3 14 -16 6 -4 11 -13 8 -7 10 -10 10 -9 8 -8 12 -12 5 -5 14 -14 4 -4 17 -14 20 -19 19 -17 1 -2 17 -15 4 -3 14 -13 7 -6 12 -10 9 -8 10 -9 12 -9c490,-418 1914,-955 2771,-1347l0 0 11 -5 0 -104c-13,-4135 -1594,-8042 -4560,-11008 -3670,-3671 -10537,-686 -14016,2072l-40 29c-3180,2535 -5460,6202 -6187,10483 1053,177 1994,682 2718,1405l1 1 2 -1c912,912 1477,2173 1477,3565 0,1063 -332,2051 -896,2865zm14907 5077c449,291 839,532 1167,724 -1750,1444 -3286,2197 -4853,2331 -1099,94 -2240,-111 -3507,-591 2385,-248 4624,-989 6617,-2120 195,-111 386,-225 576,-344zm2360 -1343c179,-365 394,-709 643,-1023l-643 1023zm-26147 -8333c255,-695 657,-1317 1170,-1831l45 -41c123,-120 252,-234 387,-342 -7,-54 -8,-111 -2,-168 582,-5623 2639,-9927 5983,-12929 2730,-2450 6303,-4013 10618,-4699 -1091,-242 -2225,-370 -3388,-370 -4300,0 -8192,1744 -11009,4560 -2818,2817 -4561,6709 -4561,11008 0,1680 266,3297 757,4812zm3160 -3056c299,-98 610,-168 929,-210 748,-4737 3248,-8799 6756,-11597l43 -36c2650,-2100 5870,-3479 9342,-3887 -4854,468 -8790,1987 -11668,4570 -2904,2605 -4753,6321 -5402,11160zm4098 2267c-646,-644 -1538,-1043 -2523,-1043 -484,0 -944,95 -1364,269 206,-32 417,-49 632,-49 1123,0 2141,456 2877,1192l2 2 1 -2c737,738 1193,1756 1193,2881 0,223 -18,442 -53,655 179,-425 277,-892 277,-1382 0,-985 -399,-1877 -1044,-2522l2 -1zm-6135 6129l0 1c-369,-369 -667,-809 -873,-1298 -1574,-2581 -2482,-5614 -2482,-8855 0,-4705 1909,-8967 4993,-12051 3084,-3084 7345,-4993 12052,-4993 4706,0 8967,1909 12051,4993 2980,2979 4870,7172 4980,11416l2 43c2934,-1448 10076,-7212 11000,-7499 5732,-1736 11116,7347 9051,14181 -628,2080 -1922,3677 -3706,4230l-106 34c-1215,351 -2481,186 -3677,-393 -1883,-587 -4099,-844 -6448,-882 -931,-15 -1886,6 -2851,53l755 3173c157,216 299,445 427,687 337,639 542,1321 620,2010 4858,2015 4879,8935 27,10978 -719,2236 -1731,3823 -3034,4756 -295,214 -604,391 -926,535 13596,-739 26860,1344 35581,11454 904,1048 654,3199 -63,4180 -14924,20414 -37070,25171 -61060,20294 -893,3576 -3318,5702 -7278,6376 -4027,686 -9683,-192 -16965,-2633 -895,-263 -619,-1517 240,-1448 5551,441 12570,218 12106,-5426 -1060,-338 -2126,-695 -3198,-1067 -6052,6051 -15443,6971 -22697,2451 -2312,-1441 -5085,-2166 -7863,-2588 -619,-94 -849,-881 -366,-1290 7741,-6547 18565,-13997 27207,-11357 464,-763 1017,-1485 1627,-2171 -1499,-2257 -9661,576 -13459,2025 -808,308 -1421,-822 -638,-1321 5508,-3785 10125,-6274 13848,-7466 3649,-1168 6495,-1107 8539,179 1620,-1012 3373,-1992 5259,-2939l-976 -1236c-3383,2273 -8780,4183 -11386,422 -515,-742 -875,-1677 -1046,-2809 -1042,-6904 -615,-15373 3848,-19746 1568,-1538 5945,-2321 8894,-2747 -734,-691 -1407,-1446 -2009,-2256zm28237 -7989c-321,127 -655,267 -906,504l-1 2c-35,34 -69,69 -101,106l-4 5 -6 6 -37 45 -6 8 -3 4 -9 12 -27 35 -8 11 -1 1 -8 12 -9 12 -4 5 -9 15 -13 17 0 2 -13 20c-235,365 -361,824 -393,1315l-1 27 0 3 -2 24 -1 27 -1 27 0 10 -1 17 0 27c-13,617 117,1269 362,1856 251,600 622,1118 1078,1436l7 4 6 5 3 2 3 3 6 4c340,227 725,341 1145,290 1247,-149 2514,-271 3777,-352 2454,-166 5222,-156 7603,178 -2345,-2702 -3607,-7441 -2844,-10986 -3218,2296 -6047,3611 -9582,5261zm-1844 9194l-10 13 11 -13c519,-452 1121,-813 1782,-1056l-190 -952c-13,-5 -25,-10 -37,-15 -467,710 -990,1390 -1555,2023l-1 0zm-22055 2891c-286,-188 -567,-384 -841,-590 -63,27 -134,47 -213,57l-4505 761c1512,822 2697,2295 3276,3968 628,-1404 1389,-2803 2283,-4196zm12008 21864c-2872,310 -5342,2290 -7385,4767 -2359,-1946 -3822,-1173 -6015,-4365 -681,-993 -1235,-2191 -1661,-3598 3542,590 7861,416 11110,-695l2557 2344c512,534 987,1067 1394,1547zm-2531 -6144c-3004,1827 -8358,2198 -12525,1452 -1624,-289 -5799,-1341 -5433,-3411 119,-659 582,-1156 1078,-849 712,605 9698,4197 15471,1859l538 -240c815,-532 1570,692 871,1189zm-3733 18615c54,1816 1367,3955 3235,5430 1690,1334 4011,2302 6867,2257 925,1188 2104,2170 3456,2864 6851,3514 15082,-1458 15082,-9223 0,-8897 -10489,-13594 -17137,-7835 -168,-1890 -565,-4498 -4329,-7598 12068,-2079 22560,-2549 31116,-780 -5701,8234 -3896,19518 4083,25565 -15771,10316 -34127,9561 -51767,5061 -1804,-460 -8992,-2459 -10547,-3388l4269 -282 2120 -278c2860,-475 5606,-1115 5155,-4464 -223,-5573 -10747,-2355 -14206,-1350l14 -107c729,-4953 6548,-8588 10354,-11527 1664,-1285 3716,-2215 5828,-3262 2160,1397 4315,1549 5452,3698 593,1124 880,2733 955,5219zm-23183 7704c2964,-978 6100,-1565 9287,-1838 1259,-108 4184,-267 4057,2037 -96,1755 -1925,2102 -3949,2437 -4453,739 -11721,688 -16042,441 2091,-1297 4313,-2307 6647,-3077zm-8899 4376l7961 335 -561 -23c898,-3 1702,-8 2414,-18 113,105 228,207 346,308l1571 1125c-5587,5188 -13951,5851 -20432,1813 -2050,-1278 -4423,-2039 -6839,-2520 6909,-5671 16712,-12249 24345,-10137l-619 1902c-113,485 -187,970 -223,1454l-10 151c-2478,825 -5215,2193 -7370,3634 -908,608 -2085,1575 -583,1976zm17915 3875c3039,930 6026,1716 8954,2356 -1831,7028 -10745,5851 -17348,4144 4307,-306 8470,-1802 8394,-6500zm-1402 -21123l-4343 3542c-1746,-2105 -6476,-1012 -9367,-186 4320,-2586 11188,-6118 15197,-4392l-1487 1036zm29159 1849c-430,-382 -1610,-1138 -1781,-1446 5475,-5809 15356,-1960 15356,6093 0,7989 -9744,11867 -15255,6202 979,-153 1750,-361 2563,-805 2624,1850 6199,1551 8476,-726 4150,-4150 1197,-11275 -4670,-11275 -1779,0 -3461,719 -4689,1957zm4437 -13721l-393 36 181 -85 212 49zm3815 -2003c-921,659 -2047,856 -3375,593 -63,-1715 -479,-3432 -1102,-5104l3630 -2375c649,1507 1757,1819 3250,882 1089,-610 1720,-1489 1891,-2635 148,-994 -73,-2170 -663,-3527 80,-250 142,-505 187,-762 2273,1309 2948,4296 1432,6458 -1247,1779 -2423,1346 -2663,2142 -628,2103 -1491,3546 -2587,4328zm-4841 715c-2930,1363 -6170,2092 -9505,2370 -577,-1727 -780,-3454 -471,-5181 3497,487 6010,-357 9014,-1754 531,1456 847,2979 962,4565zm2530 -20278l-111 -457c997,-119 2003,-220 3005,-296l282 1389c-952,-507 -2072,-738 -3176,-636zm-4913 36337c1992,-2030 5269,-2049 7289,-30 927,928 1502,2211 1502,3627 0,3998 -4359,6410 -7723,4429 2139,-2406 759,-5845 -1068,-8026zm28951 12002c-7722,-5602 -9449,-16400 -3833,-24119l86 -154c6830,1669 12265,4829 16420,9645 392,453 234,1840 -138,2347 -3668,5015 -7833,9126 -12445,12358l-90 -77zm-53988 -25737c334,1282 763,2430 1285,3442 -3631,2462 -9384,4226 -10224,-1339 -962,-6377 -657,-14482 3421,-18480 2702,-2648 7114,853 6832,5063 -600,1883 -959,3774 -1079,5674 -781,-331 -1578,-712 -2390,-1143 -1492,-792 -3020,721 -3100,1956 -498,2790 2908,4233 5255,4827zm33924 -10316c-501,275 -913,835 -1314,-627l2351 -2500c348,1303 224,2435 -1037,3127zm7791 -15830c-1893,-2540 -2368,-4423 -2330,-7375l3954 540c-225,1271 -91,2515 985,3839 -1226,751 -2225,1726 -2609,2996zm3103 -4989c-202,-668 -239,-1772 369,-1998 480,-101 1025,689 1212,1270l25 86c190,660 138,1724 -355,1900 -518,157 -1074,-698 -1251,-1258zm2986 -1154c-419,-1349 -1627,-2624 -3004,-2262 -1804,219 -3554,73 -5272,-462 331,-1896 1283,-3715 2957,-4249 1303,-394 2647,9 3915,1052 4677,3848 4928,13218 490,14573 -863,250 -1787,114 -2682,-331l-1169 -773c-62,-662 111,-1271 521,-1826 645,-875 1851,-1716 2929,-1900 1512,-432 1761,-2283 1346,-3719l-31 -103z"/>
   <path class="fil13" d="M70194 82623c-1883,553 -3976,254 -5671,-941 -720,393 -1407,601 -2235,749l21 -3c3313,2981 8332,3011 11681,71 3348,-2940 3967,-7921 1439,-11591l-1 -1c-1190,-1544 -2867,-2640 -4712,-3161 4,0 8,2 12,3 2543,759 4549,2796 5236,5420 794,3033 -333,6244 -2848,8116 -888,661 -1885,1108 -2922,1338z"/>
   <path class="fil13" d="M35598 94507c1816,-2319 4960,1248 8050,1291 403,-425 1139,-1862 1189,-2530 -2928,-640 -5914,-1426 -8954,-2356 62,3897 -2790,5591 -6222,6230 2668,-9 4290,-1149 5937,-2635z"/>
   <path class="fil14" d="M37904 80800c4660,2150 -1235,3796 -17684,4938 1903,108 4379,179 6933,161 3245,-22 6617,-188 9109,-601 2024,-336 3853,-683 3949,-2438 82,-1490 -1113,-1951 -2307,-2060z"/>
   <path class="fil13" d="M27802 71421c-301,217 -5494,1125 -7031,1724 1789,-511 4282,-1124 6336,-1019 1266,65 2365,402 3031,1205l4343 -3541 1487 -1037c-898,-386 -1940,-509 -3065,-438 -1986,736 -3683,1768 -5101,3106z"/>
   <path class="fil13" d="M64326 71035c-448,-916 -797,-851 -1228,-1465 -69,-99 -135,-209 -197,-330 -362,283 -710,600 -1042,952 171,308 1351,1064 1781,1446 215,-217 445,-418 686,-603z"/>
   <path class="fil14" d="M72241 48010c401,1462 813,902 1314,627 424,-233 720,-516 912,-838l-441 -1687 -1785 1898z"/>
   <path class="fil14" d="M69581 36351c1104,-101 2224,129 3176,636l-103 -506 -179 -883c-1002,76 -2008,177 -3005,296l64 264 47 193z"/>
   <path class="fil13" d="M82500 28969c237,1478 -708,1986 -1985,907 -844,-713 -1174,-2358 -1499,-4444 -37,2952 437,4835 2330,7375 384,-1270 1383,-2246 2609,-2996 -1076,-1324 -1210,-2568 -985,-3839 -657,775 -670,1744 -470,2997z"/>
   <polygon class="fil13" points="87340,29380 87340,29382 87341,29380 "/>
   <path class="fil13" d="M85647 30567c-1149,550 -1968,1157 -2456,1819 -410,555 -583,1164 -521,1826l1169 773c895,445 1819,581 2682,331 1902,-581 2942,-2635 3142,-5094 -1147,4417 -5123,5656 -4845,3532 176,-1346 645,-2168 1695,-3420 -122,66 -252,117 -392,151l-474 82z"/>
   <path class="fil13" d="M89578 80576c924,1326 2047,2542 3365,3598 4970,-3376 9491,-7686 13564,-12929 41,-478 -15,-952 -215,-1183 -5250,4243 -10820,7749 -16714,10514z"/>
   <path class="fil15" d="M18366 93192c-223,0 -447,-4 -670,-13 -15,-1 -30,-1 -45,-2l-1 0c-2305,-97 -4609,-663 -6760,-1705 -544,-263 -1078,-557 -1599,-881 2792,1733 5931,2596 9047,2601l0 0c9,0 19,0 28,0z"/>
   <path class="fil16" d="M18367 93192c0,0 -1,0 -1,0 -9,0 -19,0 -28,0l58 0c-10,0 -19,0 -29,0zm4227 -2761c0,0 0,0 0,0 487,-342 530,-710 10,-874 -207,-65 -410,-92 -611,-92 -459,0 -914,139 -1406,278 -493,140 -1024,279 -1638,279 -604,0 -1287,-136 -2092,-538 -766,-384 -1208,-968 -1229,-1687 1789,502 3553,921 5325,922 1643,0 3292,-360 4976,-1347l0 0 -557 -23c896,-3 1699,-8 2410,-18l0 0c113,105 228,207 346,308l0 0 1571 1125 0 0c-281,-170 -550,-347 -808,-532 -2024,1106 -4123,1839 -6297,2199zm-4043 -5370l0 0c2155,-1441 4892,-2809 7370,-3635l0 0c-1559,520 -3221,1254 -4776,2086 -916,490 -1795,1015 -2594,1549l0 0z"/>
   <path class="fil17" d="M18396 93192l-58 0c-3116,-5 -6255,-868 -9047,-2601 -8,-4 -16,-9 -24,-14 -2042,-1273 -4404,-2033 -6811,-2515 -10,-1 -19,-3 -28,-5 162,-8 324,-12 485,-12 3949,0 7544,2309 13040,3664 525,130 1060,185 1589,185 2254,0 4387,-995 5052,-1463 2174,-360 4273,-1093 6297,-2199 258,185 527,362 808,532 -2962,2750 -6706,4229 -10534,4409 -2,1 -4,1 -5,1 -2,0 -2,0 -4,0 -253,12 -507,18 -760,18zm-9129 -2615l0 0zm20432 -1813l0 0z"/>
   <path class="fil18" d="M20953 88719c-1772,-1 -3536,-420 -5325,-922 0,0 0,0 0,0 -86,-2912 6991,-6052 10293,-6371 -2478,826 -5215,2194 -7370,3635 -796,533 -1800,1343 -1021,1804 100,69 238,125 421,167 5,2 11,3 17,5l6562 276 838 36 3 0 0 0 -1 0 0 0 0 0 0 0 0 0 0 0 0 0 -1 0 0 0 0 0 0 0 0 0 0 0 0 0 0 0 -1 0 561 23 0 0c-1684,987 -3333,1347 -4976,1347zm-2402 -3658l0 0zm7378 2311l-558 -23c0,0 0,0 1,0l557 23 0 0z"/>
   <path class="fil19" d="M18367 93192c-224,0 -447,-4 -671,-13 223,9 447,13 670,13 0,0 1,0 1,0l0 0zm-716 -15l-1 0 1 0zm1505 -3c2,0 2,0 4,0 -2,0 -2,0 -4,0zm9 -1c3828,-180 7572,-1659 10534,-4409l0 0c-2962,2751 -6705,4229 -10534,4409zm-8275 -1701c-552,-267 -1094,-566 -1623,-895 -2050,-1277 -4423,-2039 -6839,-2520l0 0c9,2 18,4 28,5 2407,482 4769,1242 6811,2515l0 0c8,5 16,10 24,14l0 0c521,324 1055,618 1599,881zm17238 -3833c-118,-101 -233,-203 -346,-308l346 308zm-2199 -267l0 0zm0 0l-561 -23c1,0 2,0 3,0l558 23zm-558 -23l-1 0 2412 -18c-711,10 -1514,15 -2410,18 -1,0 -1,0 -1,0zm-841 -36l-6562 -276c-6,-2 -12,-3 -17,-5 5,1 11,3 16,4l6563 277zm-7000 -448c-779,-461 225,-1271 1021,-1804l0 0c799,-534 1678,-1059 2594,-1549 -916,490 -1794,1015 -2594,1549 -795,532 -1797,1340 -1024,1802 1,0 2,2 3,2z"/>
   <path class="fil20" d="M23695 77516l-44 0c7,0 14,0 22,0 7,0 14,0 22,0z"/>
   <path class="fil21" d="M3088 87519c260,-210 525,-421 793,-633 1,0 1,-1 2,-1 4,-3 8,-7 12,-10 5425,-4283 12265,-8703 18422,-9293l0 0c7,0 14,-1 21,-2 0,0 0,0 0,0 7,0 13,-1 19,-2 2,0 2,0 3,0 6,0 12,-1 17,-1 2,0 3,-1 5,-1 5,0 11,-1 16,-1 1,0 3,-1 5,-1 5,0 10,0 15,-1 2,0 4,0 6,-1 5,0 9,0 14,-1 2,0 5,0 7,0 4,0 8,-1 12,-1 3,-1 6,-1 9,-1 4,0 7,-1 10,-1 4,0 8,-1 11,-1 2,0 6,0 8,-1 4,0 9,-1 13,-1 1,0 2,0 3,0 383,-32 763,-48 1140,-49l44 0c1055,2 2085,130 3078,404l0 0c-7557,447 -15452,3647 -23685,9599z"/>
   <path class="fil22" d="M3881 86886c1,0 1,-1 2,-1 -1,0 -1,1 -2,1zm14 -11c5426,-4284 12265,-8704 18422,-9293 -6157,590 -12997,5010 -18422,9293zm22878 -8955l0 0zm-4456 -338c7,0 14,-1 21,-2 -7,1 -14,2 -21,2zm21 -2c7,0 14,-1 19,-2 -6,1 -12,2 -19,2zm22 -2c6,0 12,-1 17,-1 -5,0 -11,1 -17,1zm22 -2c5,0 10,-1 16,-1 -5,0 -11,1 -16,1zm21 -2c5,0 10,0 15,-1 -5,1 -10,1 -15,1zm21 -2c5,0 9,0 14,-1 -5,1 -9,1 -14,1zm21 -1c4,-1 8,-1 12,-1 -4,0 -8,1 -12,1zm21 -2c4,0 7,-1 10,-1 -3,0 -6,1 -10,1zm21 -2c3,0 5,0 8,-1 -2,1 -6,1 -8,1zm21 -2c1,0 2,0 3,0 -1,0 -2,0 -3,0z"/>
   <path class="fil23" d="M20220 85738c6145,-2854 11879,-4508 17203,-4965 -482,-11 -934,21 -1269,50 -3187,274 -6323,860 -9287,1838 -231,77 -461,155 -690,236 -2082,737 -4073,1672 -5957,2841z"/>
   <path class="fil24" d="M43648 95798c-3558,2631 -8944,3170 -16159,1614 5660,1463 13020,2538 16159,-1614z"/>
   <path class="fil24" d="M20771 73145c5167,-2695 9211,-4306 12132,-4830 -3894,247 -8780,2824 -12132,4830z"/>
   <path class="fil24" d="M79511 22604c3687,-4324 7053,-2578 10096,5236 -327,-2667 -1527,-5411 -3576,-7097 -2850,-2345 -5468,-1043 -6520,1861z"/>
   <path class="fil24" d="M89139 61524c6736,1275 12453,4120 17153,8538 -4155,-4816 -9590,-7976 -16420,-9645l-86 154c-228,313 -443,631 -647,953z"/>
   <path class="fil25" d="M97456 69128c-110,0 -221,-14 -332,-44 -59,-19 -119,-38 -177,-58 -116,-37 -229,-72 -342,-108 -340,-161 -599,-465 -698,-839 -131,-492 37,-1015 430,-1340 237,-196 532,-296 828,-296 168,0 338,32 498,98 23,11 47,22 70,32 114,52 226,104 340,156 530,293 790,925 599,1515 -175,539 -675,884 -1216,884zm-3462 -938c-1296,-312 -2475,-512 -3534,-603 -835,-75 -1475,-775 -1475,-1613 0,-839 640,-1539 1475,-1615 1083,158 2181,400 3293,725 170,49 339,101 508,154 490,244 834,730 878,1301 59,752 -420,1442 -1145,1651z"/>
   <path class="fil24" d="M68329 69681c4760,0 7602,4690 6289,8677 1346,-2847 429,-6251 -2163,-8039 -2538,-1749 -5950,-1448 -8140,693 4,8 7,15 11,23 1135,-866 2536,-1354 4003,-1354z"/>
   <path class="fil3" d="M86053 27170c-142,-479 -508,-1076 -878,-1286 -236,-99 -463,-45 -628,140 -5,7 -11,13 -15,20l-8 12 -6 8 -11 16c-206,275 -289,780 -125,1469l6 28 1 9 5 19 3 15 3 13c0,8 1,15 5,21l1 7 7 27 7 27 2 7c1,6 2,13 5,19l4 13 3 13 6 20 2 6 7 25c237,751 590,1138 916,1232 234,67 456,-17 612,-227 0,-5 3,-9 7,-12 2,-6 5,-11 8,-17l9 -15 3 -7c200,-312 263,-859 56,-1576 -1,-7 -4,-14 -5,-21l-2 -5z"/>
   <path class="fil3" d="M90027 15970c1952,-1302 3690,-2578 5212,-3826 1530,-1255 2834,-2477 3911,-3662 274,-301 252,-768 -48,-1041 -179,-161 -415,-220 -635,-178 -911,114 -1745,160 -2502,133 -282,-10 -554,-29 -815,-60 1576,-2657 3475,-5103 5696,-7336 -1400,1090 -2741,2249 -4023,3479 -1275,1223 -2483,2512 -3624,3864 -67,78 -118,172 -148,279 -108,391 122,796 514,904 700,195 1486,309 2354,338 259,10 528,11 802,5 -727,704 -1533,1417 -2416,2140 -1471,1208 -3169,2452 -5090,3732 -338,225 -432,682 -207,1021 223,338 680,431 1019,208zm10300 23196c49,-789 -11,-1608 -177,-2458 -80,-413 -186,-833 -319,-1262 2281,269 4714,782 7298,1540 -1610,-830 -3102,-1522 -4475,-2078 -1388,-562 -2664,-989 -3828,-1280 -148,-37 -308,-28 -461,34 -374,156 -553,587 -396,962 342,823 588,1612 736,2366 59,307 103,607 131,901 -826,-443 -1650,-852 -2468,-1226 -1190,-543 -2351,-1002 -3479,-1374 -387,-128 -803,83 -931,469 -127,387 84,804 471,930 1099,363 2210,801 3328,1312 1124,512 2280,1109 3467,1791 353,202 804,80 1006,-273 63,-112 95,-234 97,-354zm-6102 -13356c1982,-572 3818,-1062 5510,-1468 1679,-400 3237,-724 4670,-968 401,-66 671,-445 605,-847 -29,-171 -115,-318 -234,-426 -453,-427 -977,-813 -1569,-1157l-677 -361c3110,-2126 6342,-4149 9695,-6068 -2340,792 -4484,1656 -6431,2592 -1949,937 -3693,1945 -5228,3022 -120,84 -217,204 -271,354 -136,381 62,802 445,938 637,230 1213,495 1729,795l26 15c-973,195 -2006,422 -3100,683 -1730,414 -3589,910 -5578,1485 -390,112 -614,521 -502,909 113,391 521,615 910,502z"/>
   <path class="fil12" d="M55760 38937c-160,0 -317,-2 -473,-7 -558,-14 -1092,-54 -1602,-120 -2599,-334 -4586,-1343 -5960,-3025l0 0c564,-814 896,-1802 896,-2865 0,-1392 -565,-2653 -1477,-3565l-2 1 -1 -1c-723,-723 -1665,-1228 -2718,-1405l0 0 0 0c656,-3865 2578,-7229 5285,-9711l0 0c-1417,4107 -1246,7769 509,10982 259,473 553,937 881,1392 585,1068 932,2090 1040,3069 357,3115 2475,4673 6354,4672 1696,0 3729,-297 6098,-893 -3391,984 -6334,1476 -8830,1476z"/>
   <path class="fil12" d="M55287 38930c-558,-14 -1092,-54 -1603,-120 -2598,-334 -4585,-1343 -5959,-3025l0 0c1374,1682 3361,2691 5960,3025 510,66 1044,106 1602,120zm-7562 -3145c808,-3803 -208,-6237 -3302,-7835 1053,177 1995,682 2718,1405l1 1 2 -1c912,912 1477,2173 1477,3565 0,1063 -332,2051 -896,2865z"/>
   <path class="fil26" d="M71764 73043c3064,4601 -666,9835 -6221,8056 3364,1981 7723,-430 7723,-4429 0,-1485 -592,-2733 -1502,-3627zm-16146 -57164c5762,283 9952,3136 12571,8560 -2204,-7894 -6394,-10746 -12571,-8560zm-5523 14069c370,-165 858,124 1091,645 232,521 121,1077 -249,1242 -369,166 -858,-123 -1090,-644 -233,-522 -122,-1078 248,-1243zm-28 -6235c-842,-375 -1954,282 -2484,1470 -529,1187 -277,2454 565,2830 843,376 1954,-282 2485,-1470 529,-1186 276,-2454 -566,-2830zm19132 49110c622,0 1127,545 1127,1217 0,672 -505,1217 -1127,1217 -622,0 -1126,-545 -1126,-1217 0,-672 504,-1217 1126,-1217z"/>
  </g>
 </g>
</svg>
