<?xml version="1.0" encoding="UTF-8"?>
<!DOCTYPE svg PUBLIC "-//W3C//DTD SVG 1.1//EN" "http://www.w3.org/Graphics/SVG/1.1/DTD/svg11.dtd">
<!-- Creator: CorelDRAW X7 -->
<svg xmlns="http://www.w3.org/2000/svg" xml:space="preserve" width="58.0372mm" height="58.0372mm" version="1.1" style="shape-rendering:geometricPrecision; text-rendering:geometricPrecision; image-rendering:optimizeQuality; fill-rule:evenodd; clip-rule:evenodd"
viewBox="0 0 909 909"
 xmlns:xlink="http://www.w3.org/1999/xlink">
 <defs>
  <style type="text/css">
   <![CDATA[
    .fil0 {fill:white}
   ]]>
  </style>
 </defs>
 <g id="Layer_x0020_1">
  <metadata id="CorelCorpID_0Corel-Layer"/>
  <path class="fil0" d="M455 0c251,0 454,204 454,455 0,251 -203,454 -454,454 -251,0 -455,-203 -455,-454 0,-251 204,-455 455,-455zm-146 204c-39,0 -71,31 -71,71 0,39 32,70 71,70 39,0 71,-31 71,-70 0,-40 -32,-71 -71,-71zm190 420c0,25 -20,44 -44,44 -25,0 -45,-19 -45,-44l0 -79c0,-20 -8,-38 -21,-51 -13,-14 -31,-22 -51,-22 -20,0 -38,8 -52,22 -13,13 -21,31 -21,51l0 151c0,25 -20,45 -44,45 -25,0 -45,-20 -45,-45l0 -151c0,-45 18,-85 48,-114 29,-29 69,-48 114,-48 33,0 63,10 89,27 8,-16 18,-30 31,-43 29,-29 69,-47 114,-47 44,0 84,18 114,47 29,29 47,70 47,114l0 152c0,24 -20,44 -44,44 -25,0 -45,-20 -45,-44l0 -152c0,-20 -8,-38 -21,-51 -13,-13 -31,-21 -51,-21 -20,0 -38,8 -52,21 -13,13 -21,31 -21,51l0 59c0,0 0,1 0,1 0,2 0,3 0,4l0 79zm102 -484c39,0 70,32 70,71 0,39 -31,71 -70,71 -39,0 -71,-32 -71,-71 0,-39 32,-71 71,-71z"/>
 </g>
</svg>
