<?xml version="1.0" encoding="UTF-8"?>
<!DOCTYPE svg PUBLIC "-//W3C//DTD SVG 1.1//EN" "http://www.w3.org/Graphics/SVG/1.1/DTD/svg11.dtd">
<!-- Creator: CorelDRAW X7 -->
<svg xmlns="http://www.w3.org/2000/svg" xml:space="preserve" width="101.194mm" height="162.56mm" version="1.1" style="shape-rendering:geometricPrecision; text-rendering:geometricPrecision; image-rendering:optimizeQuality; fill-rule:evenodd; clip-rule:evenodd"
viewBox="0 0 9269 14891"
 xmlns:xlink="http://www.w3.org/1999/xlink">
 <defs>
  <style type="text/css">
   <![CDATA[
    .fil15 {fill:black;fill-rule:nonzero}
    .fil5 {fill:black;fill-rule:nonzero}
    .fil13 {fill:#1A1A1A;fill-rule:nonzero}
    .fil18 {fill:#2F1C50;fill-rule:nonzero}
    .fil9 {fill:#371A45;fill-rule:nonzero}
    .fil20 {fill:#9793B0;fill-rule:nonzero}
    .fil14 {fill:#999999;fill-rule:nonzero}
    .fil4 {fill:#B5202F;fill-rule:nonzero}
    .fil12 {fill:#B98F18;fill-rule:nonzero}
    .fil7 {fill:#B9AFBE;fill-rule:nonzero}
    .fil8 {fill:#C6B9CF;fill-rule:nonzero}
    .fil17 {fill:#CA2334;fill-rule:nonzero}
    .fil21 {fill:#CFAC18;fill-rule:nonzero}
    .fil19 {fill:#CFD3E4;fill-rule:nonzero}
    .fil2 {fill:#F92323;fill-rule:nonzero}
    .fil3 {fill:#FDBDBD;fill-rule:nonzero}
    .fil1 {fill:#FF2261;fill-rule:nonzero}
    .fil10 {fill:#FFCE00;fill-rule:nonzero}
    .fil16 {fill:#FFEB99;fill-rule:nonzero}
    .fil11 {fill:#FFF0B2;fill-rule:nonzero}
    .fil6 {fill:white;fill-rule:nonzero}
    .fil0 {fill:black;fill-rule:nonzero;fill-opacity:0.149020}
   ]]>
  </style>
 </defs>
 <g id="Layer_x0020_1">
  <metadata id="CorelCorpID_0Corel-Layer"/>
  <g id="_2526325402880">
   <path class="fil0" d="M4635 14891c-2560,0 -4635,-309 -4635,-689 0,-147 309,-283 835,-395 12,30 27,58 45,85 46,70 111,124 179,161 67,39 138,64 207,83 140,39 280,55 418,68 138,11 275,16 411,20 62,1 121,2 183,2 8,0 16,0 23,0l54 0c18,-1 36,-3 53,-4 36,-1 71,-6 107,-10 141,-18 280,-53 414,-106 67,-28 133,-59 195,-100 32,-18 61,-42 91,-64 15,-13 28,-26 43,-39 14,-12 27,-26 40,-41 27,-28 49,-61 71,-94l27 -55c9,-17 14,-33 21,-50 12,-33 26,-65 37,-99l9 -29c375,-15 767,-22 1172,-22 433,0 853,9 1251,25 6,18 11,35 17,53l24 62 12 30c5,11 7,20 14,32 42,93 109,168 181,227 74,60 154,105 237,143 82,36 167,66 254,87 86,22 174,38 263,46 62,6 127,9 189,9 25,0 50,-1 74,-1 171,-3 342,-8 514,-23 87,-7 173,-17 260,-32 87,-15 175,-36 262,-69 44,-17 87,-38 128,-64 42,-26 82,-58 116,-97 31,-35 56,-75 75,-118 483,108 763,239 763,379 0,380 -2075,689 -4634,689z"/>
   <path class="fil1" d="M6593 6480c-1059,-2 -2110,-255 -2110,-255l-42 -1c0,0 -1052,243 -2111,238 0,0 -541,3438 -2102,6138 0,0 1455,362 3008,-173 0,0 548,368 1211,371 662,2 1213,-363 1213,-363 1550,547 3006,195 3006,195 -1548,-2711 -2073,-6150 -2073,-6150z"/>
   <path class="fil2" d="M8666 12630c0,0 -156,38 -420,70 -544,64 -1544,103 -2587,-265 0,0 -549,365 -1212,363 -663,-3 -1211,-371 -1211,-371 -1043,359 -2041,314 -2585,246 -266,-34 -423,-73 -423,-73 1561,-2700 2102,-6138 2102,-6138 1059,5 2111,-238 2111,-238l42 1c0,0 1051,253 2110,255 0,0 525,3439 2073,6150z"/>
   <path class="fil3" d="M8479 12581c-264,-433 -498,-880 -703,-1319 -14,-135 -30,-270 -47,-405 230,577 498,1160 807,1714 -18,3 -37,6 -57,10zm-8038 -25c-30,-5 -58,-10 -82,-15 391,-692 717,-1431 986,-2147 44,26 92,49 144,68 -275,676 -621,1404 -1048,2094z"/>
   <path class="fil4" d="M4453 12599c-2,0 -4,0 -6,0 -278,-1 -536,-67 -741,-142 69,-403 129,-806 209,-1202 267,79 526,120 769,120 239,0 491,-37 752,-110 13,65 26,129 37,195 50,267 92,536 137,806 -148,87 -614,333 -1157,333zm3429 -67c-11,-166 -23,-332 -36,-499 88,162 182,322 280,480 -75,8 -157,14 -244,19zm-6469 -11c-244,0 -462,-15 -642,-34l0 1c338,-536 619,-1101 850,-1645 -6,43 -11,87 -16,130 -16,132 -30,264 -44,396 -37,384 -68,767 -94,1152 -18,0 -36,0 -54,0z"/>
   <path class="fil5" d="M3236 12342c17,0 33,5 47,15 5,3 536,354 1164,356 2,0 4,0 6,0 625,0 1155,-345 1160,-348 22,-15 50,-18 75,-9 1267,447 2482,281 2848,215 -1374,-2463 -1930,-5505 -2015,-6007 -978,-12 -1940,-230 -2048,-255l-23 0c-107,24 -1070,232 -2048,237 -88,502 -658,3543 -2043,5995 366,69 1581,243 2849,-194 9,-3 19,-5 28,-5zm1217 540c-2,0 -4,0 -6,0 -591,-2 -1086,-279 -1222,-362 -1544,519 -2957,177 -3017,162 -26,-6 -47,-24 -58,-49 -10,-24 -8,-52 5,-75 1535,-2655 2086,-6075 2092,-6109 6,-42 42,-72 83,-72l1 0c11,0 23,0 35,0 1025,0 2046,-233 2056,-235 6,-1 13,-2 19,-2l43 0c6,0 13,1 19,2 11,3 1054,252 2090,254 42,0 77,30 84,72 5,34 541,3454 2063,6120 13,24 15,51 4,76 -10,24 -32,42 -58,49 -60,14 -1475,345 -3016,-185 -136,83 -629,354 -1217,354z"/>
   <path class="fil6" d="M1701 10435c-878,-179 -624,-1005 -619,-1025l1 0c-36,-23 -71,-46 -104,-69 0,0 1188,-145 1419,-695 8,-19 15,-40 21,-60l0 0c701,1043 78,2011 -718,1849z"/>
   <path class="fil6" d="M2114 8216c2,2 4,4 6,6 1143,1167 469,2394 -419,2213 -889,-181 -618,-1025 -618,-1025 -2257,-1436 1031,-3205 1031,-3205 622,-343 1261,-560 1261,-560l-402 1228 -318 975c-431,187 -541,368 -541,368z"/>
   <path class="fil7" d="M2047 8164c-104,-79 -230,-158 -360,-207 0,0 300,-165 400,-283 392,-461 336,-851 626,-881 -119,222 -217,453 -307,688 -63,167 -121,336 -174,506 -117,86 -169,153 -185,177z"/>
   <path class="fil5" d="M1873 10537c-62,0 -125,-6 -188,-19 -291,-59 -498,-192 -617,-394 -150,-256 -110,-549 -82,-676 -533,-354 -795,-760 -778,-1208 41,-1115 1792,-2069 1866,-2109 620,-343 1267,-563 1274,-566 44,-15 92,9 107,53 15,44 -9,92 -53,107 -6,3 -640,219 -1247,554 -18,10 -1741,949 -1778,1967 -15,398 238,766 751,1093 32,20 47,60 35,97 -1,3 -104,339 52,604 93,158 262,263 503,312 332,68 641,-79 806,-384 206,-379 190,-1022 -470,-1693 -27,-27 -32,-70 -12,-103 11,-18 119,-184 495,-363 42,-20 92,-2 112,40 21,42 3,93 -39,113 -213,101 -327,196 -382,250 672,717 673,1415 445,1836 -168,310 -470,489 -800,489z"/>
   <path class="fil5" d="M2068 8275c-29,-30 -61,-61 -93,-90 -32,-30 -65,-58 -98,-87 -68,-55 -138,-108 -216,-152 87,20 172,52 255,88 41,18 82,38 123,58 41,20 80,41 122,65l0 0c36,21 49,67 28,103 -21,37 -68,49 -104,28 -6,-3 -12,-8 -17,-13z"/>
   <path class="fil5" d="M1118 9344c35,21 72,44 107,66l108 68 110 67c36,23 74,45 112,67 -44,-2 -88,-8 -132,-16 -43,-8 -86,-19 -128,-31 -42,-12 -84,-25 -125,-40 -42,-14 -82,-30 -123,-49 -37,-17 -54,-62 -37,-99 18,-38 63,-55 100,-37 3,1 5,2 8,4l0 0z"/>
   <path class="fil8" d="M1693 10347c-228,-51 -388,-155 -478,-307 -93,-158 -94,-340 -79,-463 76,183 248,453 608,465 -18,101 -35,203 -51,305z"/>
   <path class="fil5" d="M1680 10431c-706,-156 -657,-739 -616,-947 15,7 29,13 44,18 7,23 16,48 28,75 -15,123 -14,305 79,463 90,152 250,256 478,307 -5,28 -9,56 -13,84z"/>
   <path class="fil5" d="M1108 9502c-15,-5 -29,-11 -44,-18 9,-43 17,-70 18,-74l1 0c0,0 7,37 25,92z"/>
   <path class="fil5" d="M489 8938c-35,0 -63,-29 -63,-64 -1,-249 207,-509 530,-660 368,-173 926,-219 1391,170 27,22 31,62 8,89 -22,27 -62,31 -89,8 -419,-350 -924,-308 -1256,-153 -278,131 -458,345 -458,546 1,35 -28,64 -63,64l0 0z"/>
   <path class="fil6" d="M7631 10435c879,-179 625,-1005 619,-1025l0 0c36,-23 71,-46 104,-69 0,0 -1188,-145 -1419,-695 -9,-19 -16,-40 -21,-60l0 0c-702,1043 -78,2011 717,1849z"/>
   <path class="fil6" d="M7218 8216c-2,2 -4,4 -5,6 -1143,1167 -470,2394 418,2213 890,-181 619,-1025 619,-1025 2257,-1436 -1032,-3205 -1032,-3205 -621,-343 -1260,-560 -1260,-560l401 1228 319 975c431,187 540,368 540,368z"/>
   <path class="fil7" d="M7286 8164c-16,-23 -65,-87 -175,-169 -131,-410 -286,-814 -477,-1200 274,41 226,426 612,879 100,118 400,283 400,283 -131,49 -256,128 -360,207z"/>
   <path class="fil5" d="M7460 10537c-330,0 -632,-179 -800,-489 -228,-421 -227,-1119 445,-1836 -54,-54 -169,-149 -382,-250 -42,-20 -60,-71 -40,-113 20,-42 71,-60 113,-40 376,179 484,345 495,363 20,33 15,76 -12,103 -660,671 -676,1314 -470,1693 165,305 474,452 805,384 241,-49 411,-154 504,-312 156,-265 53,-601 52,-604 -12,-37 2,-77 35,-97 513,-327 766,-695 751,-1093 -37,-1019 -1760,-1957 -1777,-1967 -608,-335 -1242,-551 -1248,-554 -45,-15 -68,-63 -53,-107 15,-44 63,-68 107,-53 6,3 654,223 1274,566 74,40 1825,994 1866,2109 17,448 -245,854 -778,1208 28,127 68,420 -83,676 -118,202 -325,335 -616,394 -63,13 -126,19 -188,19z"/>
   <path class="fil5" d="M8286 9476c-41,19 -82,35 -123,49 -41,15 -83,28 -125,40 -43,12 -85,23 -129,31 -43,8 -87,14 -131,16 38,-22 75,-44 112,-67l109 -67 109 -68c35,-22 72,-45 107,-66l0 0c36,-22 82,-10 103,25 22,36 10,82 -25,104 -3,1 -5,2 -7,3z"/>
   <path class="fil8" d="M7657 10343c-9,-53 -17,-107 -27,-160 -7,-47 -15,-95 -23,-142 347,-20 516,-284 590,-464 15,123 14,305 -79,463 -88,149 -243,251 -461,303z"/>
   <path class="fil5" d="M7669 10427c-4,-28 -8,-56 -12,-84 218,-52 373,-154 461,-303 93,-158 94,-340 79,-463 11,-27 21,-52 28,-75 14,-5 29,-11 43,-18 41,207 90,782 -599,943z"/>
   <path class="fil5" d="M8225 9502c18,-55 25,-92 25,-92l0 0c1,4 10,31 18,74 -14,7 -29,13 -43,18z"/>
   <path class="fil5" d="M8844 8938l0 0c-35,0 -64,-29 -64,-64 1,-201 -179,-415 -457,-546 -332,-155 -837,-197 -1256,153 -27,23 -67,19 -90,-8 -22,-27 -18,-67 8,-89 466,-389 1024,-343 1392,-170 322,151 531,411 530,660 0,35 -28,64 -63,64z"/>
   <path class="fil6" d="M8464 13651c-43,416 -512,481 -1392,491 -426,5 -919,-169 -1046,-469 -127,-299 -217,-748 -299,-1226 -83,-479 -157,-987 -252,-1404 -521,162 -1079,162 -1600,0l-2 0c-4,17 -8,35 -12,53 -183,831 -290,1992 -539,2577 -127,300 -620,474 -1046,469 -880,-10 -1349,-75 -1392,-491 -10,-91 9,-173 44,-246 148,-302 597,-445 597,-445 0,0 63,-1178 174,-2065 189,-1501 608,-3036 1062,-4131l429 -1382 2940 0 457 1382c454,1095 874,2630 1062,4131 111,887 175,2065 175,2065 0,0 690,219 640,691z"/>
   <path class="fil7" d="M2278 14057c-58,0 -119,-1 -179,-2 -134,-4 -269,-9 -401,-20 -132,-11 -264,-28 -386,-61 -122,-34 -234,-88 -292,-175 -29,-44 -45,-96 -52,-154 -6,-53 0,-106 17,-157 99,115 289,228 656,257 117,9 231,14 341,14 648,0 1150,-173 1189,-653 46,-561 -34,-1157 -73,-1596 -24,-269 -22,-490 -18,-609 213,116 439,221 673,302 -98,477 -163,955 -250,1428 -49,265 -101,530 -178,784l-31 94c-10,31 -23,61 -34,92 -6,14 -12,31 -18,44l-19 36c-16,23 -30,47 -51,68 -10,11 -19,22 -31,32 -11,10 -21,20 -33,30 -24,18 -48,37 -75,53 -51,33 -109,60 -167,85 -119,47 -245,79 -373,95 -32,4 -64,8 -96,10 -16,1 -32,2 -48,3l-48 0c-8,0 -15,0 -23,0z"/>
   <path class="fil7" d="M7075 14058c-58,0 -113,-2 -171,-8 -80,-7 -160,-22 -238,-41 -78,-19 -154,-46 -226,-79 -72,-32 -141,-71 -199,-119 -58,-47 -106,-103 -134,-165 -4,-7 -8,-18 -11,-27l-11 -28 -22 -57c-14,-39 -26,-79 -39,-118 -96,-317 -156,-650 -214,-983 -57,-333 -109,-669 -171,-1004 -12,-71 -27,-142 -41,-214 234,-77 460,-178 671,-289 4,123 4,332 -19,584 -39,439 -119,1035 -73,1596 39,480 541,653 1190,653 109,0 223,-5 340,-14 367,-29 558,-142 656,-256 6,17 11,35 14,53 6,34 6,68 3,103 -8,72 -32,135 -76,184 -43,51 -107,88 -178,115 -72,28 -150,47 -230,61 -80,14 -162,23 -245,30 -165,14 -334,19 -502,22 -25,0 -50,1 -74,1z"/>
   <path class="fil5" d="M6613 6753c240,475 422,978 574,1487 77,255 146,512 207,770 63,259 117,519 167,780 24,131 48,262 69,393 23,131 42,263 62,394 37,264 69,528 95,792 52,529 90,1057 121,1587l-59 -76c47,15 86,31 127,50 41,18 81,38 121,60 78,43 154,93 224,155 69,62 132,136 176,225 21,45 37,93 46,143 9,50 10,101 5,151 -5,48 -17,98 -36,145 -19,48 -47,93 -81,132 -34,39 -74,71 -116,97 -41,26 -84,47 -128,64 -87,33 -175,54 -262,69 -87,15 -173,25 -260,32 -172,15 -343,20 -514,23 -83,2 -176,1 -263,-8 -89,-8 -177,-24 -263,-46 -87,-21 -172,-51 -254,-87 -83,-38 -163,-83 -237,-143 -72,-59 -139,-134 -181,-227 -7,-12 -9,-21 -14,-32l-12 -30 -24 -62c-14,-42 -27,-83 -41,-125 -100,-333 -160,-669 -219,-1004 -57,-335 -108,-671 -170,-1002 -15,-84 -32,-166 -48,-248l-27 -123 -3 -16 -2 -7 -1 -4c139,79 123,70 107,62 -9,-5 -18,-10 -1,0l-2 0 -31 10 -63 18c-169,45 -342,75 -517,89 -174,13 -350,10 -524,-9 -174,-21 -346,-57 -513,-109l108 -62c-117,525 -189,1064 -286,1600 -50,269 -103,537 -184,804l-32 99c-11,34 -25,66 -37,99 -7,17 -12,33 -21,50l-27 55c-22,33 -44,66 -71,94 -13,15 -26,29 -40,41 -15,13 -28,26 -43,39 -30,22 -59,46 -91,64 -62,41 -128,72 -195,100 -134,53 -273,88 -414,106 -36,4 -71,9 -107,10 -17,1 -35,3 -53,4l-54 0c-70,1 -137,-1 -206,-2 -136,-4 -273,-9 -411,-20 -138,-13 -278,-29 -418,-68 -69,-19 -140,-44 -207,-83 -68,-37 -133,-91 -179,-161 -24,-34 -41,-73 -54,-111 -13,-39 -21,-78 -26,-117 -9,-79 1,-163 28,-238 27,-76 70,-143 120,-201 50,-57 106,-106 166,-149 59,-42 121,-79 185,-112 32,-16 64,-31 97,-45 34,-14 65,-27 103,-39l-59 76c31,-530 69,-1058 121,-1587 14,-132 28,-264 44,-396 7,-66 16,-132 25,-198 9,-66 18,-132 27,-198 39,-263 84,-525 134,-786 51,-261 107,-521 168,-779 62,-259 124,-518 199,-773 72,-256 154,-509 248,-758 95,-249 200,-494 329,-728 8,-14 25,-19 39,-11 12,6 17,20 13,33 -73,255 -152,506 -229,758l-115 377 -56 190c-20,62 -38,126 -56,189 -149,505 -275,1017 -374,1534 -50,259 -94,518 -132,779 -10,65 -18,130 -27,195 -9,65 -18,131 -25,196 -16,131 -30,262 -43,393 -52,525 -91,1052 -121,1579 -2,36 -26,65 -58,76l-1 0c-27,9 -58,21 -87,34 -30,12 -59,26 -88,40 -57,29 -112,62 -163,99 -51,36 -97,77 -136,122 -39,45 -70,94 -89,147 -18,52 -25,107 -19,162 7,58 23,110 52,154 58,87 170,141 292,175 122,33 254,50 386,61 132,11 267,16 401,20 67,1 137,3 202,2l48 0c16,-1 32,-2 48,-3 32,-2 64,-6 96,-10 128,-16 254,-48 373,-95 58,-25 116,-52 167,-85 27,-16 51,-35 75,-53 12,-10 22,-20 33,-30 12,-10 21,-21 31,-32 21,-21 35,-45 51,-68l19 -36c6,-13 12,-30 18,-44 11,-31 24,-61 34,-92l31 -94c77,-254 129,-519 178,-784 97,-532 169,-1071 288,-1607 10,-46 55,-74 100,-64 3,1 5,1 7,2l1 0c157,48 318,82 481,102 164,18 328,21 492,9 164,-14 327,-41 485,-84l59 -17 30 -9 2 -1c17,10 9,5 0,0 -15,-9 -30,-18 109,62l1 4 2 8 3 16 27 125c17,84 34,168 49,252 62,335 114,671 171,1004 58,333 118,666 214,983 13,39 25,79 39,118l22 57 11 28c3,9 7,20 11,27 28,62 76,118 134,165 58,48 127,87 199,119 72,33 148,60 226,79 78,19 158,34 238,41 81,8 158,9 245,7 168,-3 337,-8 502,-22 83,-7 165,-16 245,-30 80,-14 158,-33 230,-61 71,-27 135,-64 178,-115 44,-49 68,-112 76,-184 3,-35 3,-69 -3,-103 -6,-33 -17,-66 -32,-98 -31,-63 -79,-122 -137,-172 -57,-52 -123,-96 -193,-134 -35,-20 -71,-37 -107,-54 -36,-16 -76,-32 -110,-43l-1 0c-34,-12 -56,-42 -58,-76 -30,-527 -69,-1054 -121,-1579 -50,-525 -128,-1045 -231,-1562 -103,-516 -226,-1029 -366,-1536 -18,-64 -35,-127 -54,-190l-54 -190c-19,-63 -38,-126 -56,-189 -18,-64 -39,-126 -58,-189 -76,-253 -157,-503 -238,-755l0 -1c-5,-15 3,-30 18,-35 13,-5 28,2 34,14z"/>
   <path class="fil9" d="M1851 10009c-5,0 -10,0 -15,-1 -46,-9 -76,-53 -68,-99 48,-256 102,-514 161,-766 10,-45 56,-74 101,-63 46,10 74,56 63,101 -58,250 -111,505 -159,759 -7,41 -43,69 -83,69z"/>
   <path class="fil9" d="M4674 11249c-249,0 -497,-33 -738,-100 -1,5 -2,10 -3,15 -9,46 -54,75 -100,66 -45,-10 -75,-55 -65,-100 7,-36 15,-72 23,-106 5,-23 20,-43 41,-55 21,-12 46,-14 68,-7 251,79 511,118 774,118 263,0 524,-39 775,-118 23,-7 47,-4 68,7 20,12 35,32 40,55 9,38 17,77 26,117 9,45 -20,90 -66,100 -45,9 -90,-20 -100,-66 -2,-8 -3,-17 -5,-26 -241,67 -488,100 -738,100z"/>
   <path class="fil9" d="M7502 10039c-40,0 -75,-28 -83,-69 -51,-281 -112,-569 -180,-856 -11,-45 17,-90 63,-101 45,-11 91,17 102,63 68,289 129,580 181,863 9,46 -22,90 -68,99 -5,1 -10,1 -15,1z"/>
   <path class="fil2" d="M4587 6892l0 266c0,0 -1178,169 -1808,-998 -89,-164 -166,-354 -229,-575l645 102c0,0 258,428 626,776 225,213 492,395 766,429z"/>
   <path class="fil4" d="M4266 7095c-138,-13 -310,-43 -491,-113 -319,-122 -582,-325 -788,-607 198,193 458,417 606,417 3,0 5,0 8,0 192,-11 -225,-306 -205,-380 1,-4 4,-6 8,-6 29,0 123,94 228,188 105,94 221,189 294,189 23,0 42,-10 55,-32 22,-37 -119,-93 -156,-198 96,87 199,168 307,234 -18,14 -32,33 -39,57 -13,42 -1,87 31,117l142 134z"/>
   <path class="fil5" d="M2640 5664c210,667 591,1110 1135,1318 331,127 629,125 748,118l0 -154c-666,-127 -1261,-1033 -1367,-1201l-516 -81zm1786 1566c-158,0 -412,-22 -691,-127 -420,-160 -978,-549 -1246,-1500 -5,-21 0,-43 14,-60 14,-16 36,-24 57,-20l645 101c18,3 35,14 44,30 7,11 665,1091 1345,1175 32,4 56,31 56,63l0 265c0,32 -23,59 -54,63 -7,1 -69,10 -170,10z"/>
   <path class="fil2" d="M5978 5687c0,0 -672,1116 -1391,1205l0 265c0,0 1531,220 2036,-1572l-645 102z"/>
   <path class="fil5" d="M4650 7100c119,7 417,9 748,-118 544,-208 925,-651 1135,-1318l-516 81c-106,168 -701,1074 -1367,1201l0 154zm97 130c-101,0 -163,-9 -169,-10 -32,-4 -55,-31 -55,-63l0 -265c0,-32 24,-59 56,-63 680,-84 1338,-1164 1345,-1175 9,-16 26,-27 44,-30l645 -101c21,-4 43,4 57,20 14,17 19,39 14,60 -268,951 -826,1340 -1246,1500 -279,105 -533,127 -691,127z"/>
   <path class="fil4" d="M4906 7095l0 -2 145 -147c32,-31 42,-77 28,-119 -6,-18 -17,-33 -30,-46 103,-63 202,-140 295,-223 1,0 2,-1 3,-1 -39,102 -177,157 -155,194 13,22 32,32 55,32 73,0 189,-95 294,-189 49,-44 96,-88 135,-123 32,-10 64,-20 95,-31 -50,101 -372,342 -199,352 3,0 5,0 8,0 148,0 409,-224 606,-417 -205,282 -469,485 -788,607 -182,70 -354,101 -492,113z"/>
   <path class="fil5" d="M4918 7158l-12 -63c138,-12 310,-43 492,-113 319,-122 583,-325 788,-607 86,-84 160,-163 208,-215 -419,776 -1080,961 -1476,998zm131 -377c-17,-16 -40,-27 -65,-30l-6 -1c83,-48 163,-106 240,-169 42,-7 84,-15 126,-23 -93,83 -192,160 -295,223z"/>
   <path class="fil10" d="M4444 6763l91 -193c19,-38 73,-39 93,-1l97 190c8,15 23,25 40,27l211 27c43,6 61,58 30,88l-150 152c-12,12 -17,29 -14,46l40 209c8,42 -36,75 -75,56l-190 -96c-15,-8 -33,-8 -48,1l-187 102c-38,21 -83,-11 -76,-53l32 -211c3,-17 -3,-34 -15,-46l-155 -146c-31,-29 -15,-82 27,-89l210 -34c17,-3 32,-13 39,-29z"/>
   <path class="fil11" d="M4896 6923l-203 -26c-17,-2 -32,-13 -40,-28l-97 -189c-1,-1 -1,-2 -1,-2l25 -54c2,0 3,0 5,0l84 164c17,33 50,56 88,61l188 24 -49 50z"/>
   <path class="fil12" d="M4372 7304l29 -187c6,-38 -7,-76 -35,-102l-138 -130 117 -19 124 118c13,11 19,28 16,45l-33 211c-1,7 0,14 1,20l-81 44z"/>
   <path class="fil5" d="M4228 6885l138 130c28,26 41,64 35,102l-29 187 167 -91c33,-18 73,-19 107,-2l169 86 -35 -187c-7,-37 5,-75 31,-102l134 -135 -188 -24c-38,-5 -71,-28 -88,-61l-87 -169 -81 171c-16,35 -48,59 -85,65l-188 30zm129 556c-23,0 -46,-7 -66,-21 -36,-26 -54,-68 -48,-112l32 -205 -151 -142c-32,-30 -44,-75 -31,-117 13,-43 48,-73 92,-80l204 -33 89 -188c19,-40 58,-65 102,-65 43,-2 84,23 104,62l95 184 205 27c44,5 80,35 95,76 14,42 4,88 -28,119l-145 147 38 203c8,44 -9,87 -44,114 -35,26 -82,30 -121,11l-185 -94 -182 100c-17,9 -36,14 -55,14z"/>
   <path class="fil6" d="M7870 4090c-37,3 -68,-25 -71,-61l-141 -1889c-3,-36 25,-68 61,-70 380,-29 711,256 739,636l48 644c29,380 -256,712 -636,740z"/>
   <path class="fil9" d="M7771 2083c-17,0 -34,0 -51,2 -28,2 -49,26 -47,54l141 1889c2,28 27,49 55,47 371,-28 650,-352 622,-723l-48 -645c-26,-354 -323,-624 -672,-624zm99 2007l0 0 0 0zm-5 15c-42,0 -78,-32 -81,-75l-141 -1889c-3,-44 30,-83 75,-86 387,-29 726,262 755,650l49 644c29,388 -263,727 -651,756 -2,0 -4,0 -6,0z"/>
   <path class="fil7" d="M7927 3998c22,-115 37,-231 45,-347 4,-37 7,-74 10,-111 184,-45 337,-163 430,-320l10 137c23,311 -194,586 -495,641z"/>
   <path class="fil5" d="M7744 2153l138 1851c324,-34 564,-321 540,-647l-48 -644c-24,-327 -305,-574 -630,-560zm126 1937l0 0 0 0zm-5 85c-78,0 -144,-61 -150,-139l-141 -1890c-6,-82 56,-154 139,-161 426,-32 798,289 830,715l48 644c31,426 -289,798 -715,830 -4,0 -8,1 -11,1z"/>
   <path class="fil6" d="M1483 2535c37,-2 68,25 71,61l141 1889c3,36 -24,68 -61,71 -380,28 -711,-257 -739,-637l-48 -644c-29,-380 256,-711 636,-740z"/>
   <path class="fil9" d="M1484 2551c-179,13 -343,96 -461,232 -117,137 -175,311 -161,491l48 644c13,180 96,343 233,461 136,118 310,175 490,162 28,-3 49,-27 47,-55l-141 -1889c-2,-28 -26,-48 -55,-46zm98 2022c-169,0 -330,-60 -459,-171 -143,-123 -229,-294 -243,-482l-48 -644c-14,-188 46,-370 168,-513 123,-142 294,-229 482,-243 45,-3 84,30 87,75l141 1889c3,45 -30,83 -75,87 -18,1 -35,2 -53,2z"/>
   <path class="fil7" d="M1574 4473c-142,-2 -277,-53 -386,-147 -123,-105 -197,-252 -209,-413l-10 -132c118,129 285,213 468,225 34,160 80,316 137,467z"/>
   <path class="fil5" d="M1471 2621c-154,17 -294,90 -395,207 -106,123 -157,279 -145,441l48 644c12,161 86,308 209,413 118,102 267,153 421,147l-138 -1852zm111 2021c-186,0 -363,-65 -504,-187 -157,-135 -252,-323 -267,-530l-49 -644c-15,-206 51,-406 186,-563 135,-157 323,-251 529,-267 83,-6 155,56 161,139l141 1889c6,83 -56,155 -138,161 -20,1 -40,2 -59,2z"/>
   <path class="fil6" d="M7905 3301c6,1783 -1434,3233 -3217,3240 -1782,6 -3233,-1434 -3239,-3217 -7,-1783 1434,-3233 3216,-3240 1783,-6 3234,1434 3240,3217z"/>
   <path class="fil9" d="M4677 100c-4,0 -8,0 -12,0 -858,3 -1663,340 -2268,949 -605,609 -936,1417 -933,2275 6,1768 1446,3202 3213,3202 4,0 8,0 11,0 1772,-7 3208,-1453 3202,-3225 -3,-858 -340,-1664 -949,-2268 -606,-602 -1410,-933 -2264,-933zm0 6456c-1783,0 -3237,-1447 -3243,-3232 -3,-866 331,-1682 941,-2297 611,-614 1424,-955 2290,-958 4,0 8,0 12,0 862,0 1673,334 2285,942 615,610 955,1424 958,2290 7,1788 -1443,3249 -3231,3255 -4,0 -8,0 -12,0z"/>
   <path class="fil7" d="M4677 6456c-729,0 -1401,-249 -1936,-668 491,248 1158,458 1873,458 34,0 67,-1 101,-2 795,-22 1477,-251 1968,-512 -542,450 -1237,722 -1995,724 -4,0 -7,0 -11,0z"/>
   <path class="fil5" d="M4677 169c-4,0 -7,0 -11,0 -840,3 -1628,333 -2220,929 -591,596 -916,1386 -913,2226 6,1729 1416,3132 3144,3132 4,0 7,0 11,0 1734,-6 3139,-1421 3133,-3155 -3,-839 -333,-1628 -929,-2219 -593,-589 -1379,-913 -2215,-913zm0 6456c-1821,0 -3306,-1478 -3313,-3301 -3,-884 339,-1717 962,-2345 624,-628 1454,-976 2339,-979 884,-3 1718,338 2346,962 628,623 975,1454 979,2339 6,1826 -1475,3318 -3301,3324 -4,0 -8,0 -12,0z"/>
   <path class="fil13" d="M7895 3384c12,632 -182,1222 -524,1714 -256,368 -1325,1025 -2659,1062 -1237,34 -2375,-605 -2645,-963 -359,-479 -575,-1062 -587,-1693 -31,-1671 1392,-2391 3163,-2424 1772,-33 3221,633 3252,2304z"/>
   <path class="fil5" d="M4757 1163c-39,0 -76,0 -112,1 -939,18 -3119,281 -3081,2338 12,594 209,1162 571,1644 257,342 1369,963 2575,929 1337,-37 2363,-697 2592,-1026 344,-495 520,-1070 509,-1663 -37,-1980 -2064,-2223 -3054,-2223zm-143 5083c-1241,0 -2338,-632 -2614,-999 -384,-510 -593,-1112 -605,-1742 -15,-820 302,-1458 943,-1897 559,-383 1355,-595 2304,-613 949,-17 1752,164 2325,526 657,415 997,1041 1013,1861 11,630 -175,1239 -539,1764 -253,364 -1312,1059 -2726,1098 -34,1 -67,2 -101,2z"/>
   <path class="fil14" d="M6806 3744c-16,0 -33,-1 -49,-4 -226,-36 -368,-318 -317,-630 47,-289 243,-501 451,-501 16,0 32,1 49,4 182,29 310,219 326,455 -22,140 -52,278 -89,413 -87,160 -226,263 -371,263z"/>
   <path class="fil14" d="M6343 4577c-19,0 -39,-3 -58,-9 -119,-37 -180,-179 -138,-317 36,-116 134,-193 235,-193 19,0 39,3 58,9 119,36 180,178 138,317 -36,116 -134,193 -235,193z"/>
   <path class="fil15" d="M4616 6077c-346,0 -683,-53 -992,-135 1525,-142 2717,-892 3019,-1327 239,-344 421,-726 534,-1134 38,-70 66,-151 80,-238 10,-60 12,-119 9,-175 31,-204 46,-414 42,-627 -3,-163 -17,-319 -41,-467 318,327 532,781 544,1412 11,593 -165,1168 -509,1663 -229,329 -1255,989 -2592,1026 -31,1 -62,2 -94,2z"/>
   <path class="fil5" d="M4615 6161c-436,0 -858,-81 -1230,-202 80,-4 160,-10 239,-17 309,82 646,135 992,135 32,0 63,-1 94,-2 1337,-37 2363,-697 2592,-1026 344,-495 520,-1070 509,-1663 -12,-631 -226,-1085 -544,-1412 -7,-46 -16,-92 -25,-138 399,367 640,877 653,1548 12,632 -182,1222 -524,1714 -256,368 -1325,1025 -2659,1062 -32,1 -64,1 -97,1z"/>
   <path class="fil14" d="M7177 3481c37,-135 67,-273 89,-413 3,56 1,115 -9,175 -14,87 -42,168 -80,238z"/>
   <path class="fil5" d="M1695 2159c-18,0 -36,-6 -52,-18 -36,-28 -43,-79 -17,-116 551,-842 1641,-1340 2992,-1365 1339,-26 2445,414 3036,1206 29,30 32,76 5,110 -28,37 -82,43 -119,14 -1,0 -2,-1 -3,-2 -5,-4 -9,-9 -13,-15 -558,-751 -1616,-1168 -2903,-1144 -1295,24 -2335,494 -2855,1291 -1,2 -3,5 -5,7 -17,21 -41,32 -66,32z"/>
   <path class="fil14" d="M2219 4485c0,0 -549,-1639 328,-2313 664,-510 1558,-646 1941,-646 122,0 192,14 185,34 0,0 -1409,369 -1942,1498 -410,871 -512,1427 -512,1427z"/>
   <path class="fil5" d="M1512 12874c55,-13 107,-21 161,-26 27,-3 53,-5 80,-7 27,-2 54,-2 81,-2 107,-2 215,7 322,23 106,17 211,44 313,80 101,39 197,90 281,155 5,4 6,10 2,15 -3,4 -8,5 -12,4l-1 -1c-96,-39 -194,-68 -294,-87 -100,-17 -201,-27 -302,-31 -102,-3 -203,0 -304,5 -101,4 -204,12 -302,20l-3 0c-41,3 -77,-28 -80,-70 -3,-37 22,-70 58,-78z"/>
   <path class="fil5" d="M7789 13022c-98,-8 -201,-16 -302,-20 -101,-5 -202,-8 -304,-5 -101,4 -202,14 -302,31 -100,19 -198,48 -294,87l-1 1c-5,2 -12,-1 -14,-6 -2,-5 0,-10 3,-13 85,-65 181,-116 282,-155 101,-36 207,-63 313,-80 107,-16 215,-25 322,-23 27,0 54,0 81,2 26,2 53,4 80,7 54,5 106,13 161,26 41,9 66,50 56,90 -8,37 -42,61 -78,58l-3 0z"/>
   <path class="fil2" d="M7502 9955c-340,303 -1117,930 -2002,1203 -265,82 -540,132 -816,132 -279,0 -561,-54 -833,-143 -852,-277 -1621,-888 -2000,-1222 48,-257 102,-512 160,-763 904,103 3258,279 5310,-67 67,282 128,569 181,860z"/>
   <path class="fil4" d="M4684 11206c-253,0 -524,-47 -807,-140 -809,-262 -1546,-834 -1934,-1173 6,-32 12,-64 19,-96 461,281 1103,613 1793,790 304,78 618,125 930,125 307,0 614,-44 910,-116 705,-171 1348,-501 1797,-772 6,33 12,66 18,99 -381,335 -1109,899 -1935,1154 -276,85 -542,129 -791,129z"/>
   <path class="fil5" d="M1943 9893c388,339 1125,911 1934,1173 283,93 554,140 807,140 249,0 515,-44 791,-129 826,-255 1554,-819 1935,-1154 -45,-241 -96,-487 -153,-732 -2158,350 -4551,132 -5181,63 -48,211 -92,426 -133,639zm2741 1482c-270,0 -560,-50 -860,-148 -863,-280 -1642,-896 -2029,-1239 -22,-19 -32,-49 -27,-79 48,-256 102,-514 161,-766 9,-42 49,-70 92,-65 487,56 3032,314 5286,-66 44,-8 86,20 97,64 68,289 129,580 181,863 6,29 -5,59 -27,79 -380,339 -1150,948 -2033,1221 -292,90 -575,136 -841,136z"/>
   <path class="fil6" d="M3348 9172c-350,142 -892,112 -1261,67 -221,-27 -376,-231 -344,-451 30,-202 207,-348 410,-339 346,17 863,24 1191,-49l4 772z"/>
   <path class="fil7" d="M2656 9192c-195,0 -391,-16 -559,-37 -84,-10 -158,-53 -210,-120 -51,-67 -73,-151 -60,-235 3,-20 7,-39 14,-57 61,69 147,117 246,129 165,20 365,37 566,37 63,0 126,-2 189,-6l-1 0c66,94 135,181 205,262 -123,19 -256,27 -390,27z"/>
   <path class="fil5" d="M2134 8533c-154,0 -284,113 -307,267 -13,84 9,168 60,235 52,67 126,110 210,120 375,46 890,72 1219,-61 85,-35 105,-172 110,-230 16,-183 -42,-345 -75,-378 -332,70 -835,65 -1202,48 -5,0 -10,-1 -15,-1zm518 828c-202,0 -403,-17 -575,-38 -130,-16 -245,-81 -324,-185 -79,-104 -113,-233 -93,-363 36,-245 249,-422 497,-410 361,17 856,22 1169,-47 47,-10 163,-10 232,214 72,231 65,620 -179,718 -204,83 -466,111 -727,111z"/>
   <path class="fil6" d="M6024 9172c349,142 891,112 1260,67 221,-27 377,-231 344,-451 -30,-202 -207,-348 -410,-339 -345,17 -863,24 -1191,-49l-3 772z"/>
   <path class="fil7" d="M6715 9192c-140,0 -281,-9 -409,-31 67,-78 133,-162 197,-252l-12 -12c75,6 151,8 227,8 201,0 401,-17 566,-37 99,-12 184,-59 246,-127 7,19 11,38 14,59 13,84 -9,168 -60,235 -52,67 -126,110 -210,120 -168,21 -364,37 -559,37z"/>
   <path class="fil5" d="M6021 8486c-34,33 -92,195 -76,378 5,58 25,195 110,230 329,133 844,107 1219,61 84,-10 158,-53 210,-120 51,-67 73,-151 60,-235 -23,-159 -162,-274 -322,-266 -366,17 -870,22 -1201,-48zm698 875c-261,0 -523,-28 -727,-111 -244,-98 -251,-487 -179,-718 69,-224 185,-224 232,-214 313,69 809,64 1169,47 248,-12 461,165 498,410 19,130 -14,259 -94,363 -79,104 -194,169 -324,185 -172,21 -373,38 -575,38z"/>
   <path class="fil10" d="M5833 8216l-2302 0 -670 693c726,1033 1821,1270 1821,1270 0,0 1095,-237 1821,-1270l-670 -693z"/>
   <path class="fil2" d="M5302 8614l-1279 0 -373 272c403,574 1012,705 1012,705 0,0 609,-131 1012,-705l-372 -272z"/>
   <polygon class="fil6" points="5878,8263 5833,8216 5835,8216 "/>
   <polygon class="fil16" points="6031,8427 3337,8427 3533,8216 5833,8216 5878,8263 "/>
   <path class="fil17" d="M4557 10144c-232,-70 -814,-284 -1339,-798 5,0 10,0 14,1 513,503 1080,721 1325,797z"/>
   <path class="fil18" d="M3232 9347c-4,-1 -9,-1 -14,-1 -12,-12 -24,-24 -36,-36 4,0 8,-1 11,-2 13,13 26,26 39,39z"/>
   <path class="fil19" d="M2842 8903l261 -270c4,5 7,10 11,15l-245 253c-9,1 -18,2 -27,2z"/>
   <path class="fil20" d="M3046 9165c-70,-81 -139,-168 -205,-262l1 0c9,0 18,-1 27,-2l-8 8c64,91 130,175 198,254 -4,0 -8,1 -13,2z"/>
   <path class="fil18" d="M3182 9310c-46,-46 -91,-94 -136,-145 5,-1 9,-2 13,-2 44,50 89,99 134,145 -3,1 -7,2 -11,2z"/>
   <path class="fil21" d="M4662 10172c0,0 -38,-8 -105,-28 -245,-76 -812,-294 -1325,-797 -13,-13 -26,-26 -39,-39 -45,-46 -90,-95 -134,-145 -68,-79 -134,-163 -198,-254l8 -8 245 -253c655,839 1548,1048 1548,1048 0,0 1040,-293 1559,-1063l262 270c-726,1033 -1821,1269 -1821,1269z"/>
   <path class="fil5" d="M2971 8917c646,876 1571,1139 1711,1175 139,-36 1065,-299 1711,-1175l-596 -617 -2230 0 -596 617zm1711 1346c-6,0 -12,-1 -18,-2 -46,-10 -1136,-255 -1872,-1303 -23,-33 -20,-78 9,-107l670 -694c15,-16 37,-26 60,-26l2302 0c23,0 45,10 60,26l670 694c29,29 32,74 9,107 -736,1048 -1826,1293 -1872,1303 -6,1 -12,2 -18,2z"/>
   <path class="fil5" d="M7146 8157c42,-24 81,-45 122,-65 41,-20 82,-40 123,-58 83,-36 168,-68 255,-88 -78,44 -148,97 -216,152 -33,29 -66,57 -98,87 -32,29 -64,60 -93,90 -29,30 -77,31 -108,2 -30,-29 -31,-77 -2,-107 5,-5 11,-10 17,-13l0 0z"/>
   <path class="fil5" d="M3708 11994c-14,0 -27,-4 -39,-13 -834,-637 -2006,-536 -2018,-535 -35,3 -66,-22 -69,-57 -3,-35 22,-66 57,-69 50,-5 1232,-107 2107,560 28,21 33,61 12,89 -13,16 -31,25 -50,25z"/>
   <path class="fil5" d="M5649 11994c-19,0 -38,-9 -51,-25 -21,-28 -15,-68 12,-89 875,-667 2057,-565 2107,-560 35,3 61,34 57,69 -3,35 -34,60 -69,57 -11,-1 -1183,-102 -2018,535 -11,9 -25,13 -38,13z"/>
  </g>
 </g>
</svg>
