<?xml version="1.0" encoding="UTF-8"?>
<!DOCTYPE svg PUBLIC "-//W3C//DTD SVG 1.1//EN" "http://www.w3.org/Graphics/SVG/1.1/DTD/svg11.dtd">
<!-- Creator: CorelDRAW X7 -->
<svg xmlns="http://www.w3.org/2000/svg" xml:space="preserve" width="47.625mm" height="47.625mm" version="1.1" style="shape-rendering:geometricPrecision; text-rendering:geometricPrecision; image-rendering:optimizeQuality; fill-rule:evenodd; clip-rule:evenodd"
viewBox="0 0 1338 1338"
 xmlns:xlink="http://www.w3.org/1999/xlink">
 <defs>
  <style type="text/css">
   <![CDATA[
    .fil0 {fill:white;fill-rule:nonzero}
   ]]>
  </style>
 </defs>
 <g id="Layer_x0020_1">
  <metadata id="CorelCorpID_0Corel-Layer"/>
  <path class="fil0" d="M594 782l0 -226 195 113 -195 113zm744 -113c0,370 -299,669 -669,669 -369,0 -669,-299 -669,-669 0,-369 300,-669 669,-669 370,0 669,300 669,669zm-309 -181c-8,-32 -34,-58 -66,-66 -59,-16 -294,-16 -294,-16 0,0 -235,0 -293,16 -33,8 -58,34 -67,66 -16,59 -16,181 -16,181 0,0 0,122 16,181 9,32 34,58 67,66 58,16 293,16 293,16 0,0 235,0 294,-16 32,-8 58,-34 66,-66 16,-59 16,-181 16,-181 0,0 0,-122 -16,-181z"/>
 </g>
</svg>
